Lateef-Light.ufo
<glyph name="exclam.arab" format="2">
  <advance width="374"/>
  <unicode hex="0021"/>
  <outline>
    <contour>
      <point x="238" y="1047" type="curve"/>
      <point x="141" y="995" type="line"/>
      <point x="137" y="751"/>
      <point x="133" y="483"/>
      <point x="172" y="248" type="curve"/>
      <point x="197" y="254" type="line"/>
      <point x="201" y="513"/>
      <point x="186" y="772"/>
    </contour>
    <component base="_dot1" xOffset="187" yOffset="102"/>
  </outline>
</glyph>
<glyph name="numbersign" format="2">
  <advance width="841"/>
  <unicode hex="0023"/>
  <note>
numbersign
</note>
  <outline>
    <contour>
      <point x="433" y="0" type="line"/>
      <point x="499" y="0" type="line"/>
      <point x="699" y="942" type="line"/>
      <point x="630" y="942" type="line"/>
    </contour>
    <contour>
      <point x="48" y="279" type="line"/>
      <point x="762" y="279" type="line"/>
      <point x="762" y="348" type="line"/>
      <point x="48" y="348" type="line"/>
    </contour>
    <contour>
      <point x="141" y="0" type="line"/>
      <point x="210" y="0" type="line"/>
      <point x="407" y="942" type="line"/>
      <point x="340" y="942" type="line"/>
    </contour>
    <contour>
      <point x="78" y="593" type="line"/>
      <point x="792" y="593" type="line"/>
      <point x="792" y="662" type="line"/>
      <point x="78" y="662" type="line"/>
    </contour>
  </outline>
</glyph>
<glyph name="dollar" format="2">
  <advance width="747"/>
  <unicode hex="0024"/>
  <note>
dollar
</note>
  <outline>
    <contour>
      <point x="357" y="-14" type="curve" smooth="yes"/>
      <point x="539" y="-14"/>
      <point x="675" y="94"/>
      <point x="675" y="242" type="curve" smooth="yes"/>
      <point x="675" y="524"/>
      <point x="200" y="495"/>
      <point x="200" y="738" type="curve" smooth="yes"/>
      <point x="200" y="831"/>
      <point x="274" y="893"/>
      <point x="394" y="893" type="curve" smooth="yes"/>
      <point x="457" y="893"/>
      <point x="500" y="881"/>
      <point x="534" y="857" type="curve"/>
      <point x="576" y="735" type="line"/>
      <point x="629" y="739" type="line"/>
      <point x="619" y="922" type="line"/>
      <point x="566" y="946"/>
      <point x="500" y="958"/>
      <point x="410" y="958" type="curve" smooth="yes"/>
      <point x="229" y="958"/>
      <point x="96" y="853"/>
      <point x="96" y="706" type="curve" smooth="yes"/>
      <point x="96" y="410"/>
      <point x="571" y="442"/>
      <point x="571" y="211" type="curve" smooth="yes"/>
      <point x="571" y="112"/>
      <point x="492" y="52"/>
      <point x="378" y="52" type="curve" smooth="yes"/>
      <point x="301" y="52"/>
      <point x="239" y="75"/>
      <point x="184" y="110" type="curve"/>
      <point x="144" y="245" type="line"/>
      <point x="91" y="235" type="line"/>
      <point x="101" y="43" type="line"/>
      <point x="155" y="11"/>
      <point x="261" y="-14"/>
    </contour>
    <contour>
      <point x="364" y="-186" type="line"/>
      <point x="422" y="-186" type="line"/>
      <point x="422" y="1128" type="line"/>
      <point x="364" y="1128" type="line"/>
    </contour>
  </outline>
</glyph>
<glyph name="percent" format="2">
  <advance width="1184"/>
  <unicode hex="0025"/>
  <note>
percent
</note>
  <outline>
    <contour>
      <point x="234" y="-20" type="line"/>
      <point x="1004" y="913" type="line"/>
      <point x="946" y="964" type="line"/>
      <point x="178" y="32" type="line"/>
    </contour>
    <contour>
      <point x="309" y="460" type="curve" smooth="yes"/>
      <point x="444" y="460"/>
      <point x="561" y="566"/>
      <point x="561" y="707" type="curve" smooth="yes"/>
      <point x="561" y="853"/>
      <point x="451" y="953"/>
      <point x="309" y="953" type="curve" smooth="yes"/>
      <point x="171" y="953"/>
      <point x="54" y="845"/>
      <point x="54" y="707" type="curve" smooth="yes"/>
      <point x="54" y="561"/>
      <point x="163" y="460"/>
    </contour>
    <contour>
      <point x="309" y="534" type="curve" smooth="yes"/>
      <point x="213" y="534"/>
      <point x="146" y="608"/>
      <point x="146" y="709" type="curve" smooth="yes"/>
      <point x="146" y="808"/>
      <point x="213" y="881"/>
      <point x="309" y="881" type="curve" smooth="yes"/>
      <point x="401" y="881"/>
      <point x="475" y="810"/>
      <point x="475" y="709" type="curve" smooth="yes"/>
      <point x="475" y="606"/>
      <point x="401" y="534"/>
    </contour>
    <contour>
      <point x="876" y="-9" type="curve" smooth="yes"/>
      <point x="1012" y="-9"/>
      <point x="1129" y="94"/>
      <point x="1129" y="235" type="curve" smooth="yes"/>
      <point x="1129" y="381"/>
      <point x="1019" y="481"/>
      <point x="876" y="481" type="curve" smooth="yes"/>
      <point x="739" y="481"/>
      <point x="622" y="373"/>
      <point x="622" y="235" type="curve" smooth="yes"/>
      <point x="622" y="89"/>
      <point x="731" y="-9"/>
    </contour>
    <contour>
      <point x="876" y="64" type="curve" smooth="yes"/>
      <point x="781" y="64"/>
      <point x="714" y="136"/>
      <point x="714" y="237" type="curve" smooth="yes"/>
      <point x="714" y="337"/>
      <point x="781" y="410"/>
      <point x="876" y="410" type="curve" smooth="yes"/>
      <point x="969" y="410"/>
      <point x="1043" y="338"/>
      <point x="1043" y="237" type="curve" smooth="yes"/>
      <point x="1043" y="134"/>
      <point x="969" y="64"/>
    </contour>
  </outline>
</glyph>
<glyph name="quotesingle" format="2">
  <advance width="335"/>
  <unicode hex="0027"/>
  <note>
quotesingle
</note>
  <outline>
    <contour>
      <point x="166" y="1120" type="curve" smooth="yes"/>
      <point x="126" y="1120"/>
      <point x="94" y="1094"/>
      <point x="94" y="1020" type="curve" smooth="yes"/>
      <point x="94" y="966"/>
      <point x="130" y="837"/>
      <point x="144" y="763" type="curve"/>
      <point x="190" y="763" type="line"/>
      <point x="205" y="837"/>
      <point x="240" y="966"/>
      <point x="240" y="1020" type="curve" smooth="yes"/>
      <point x="240" y="1094"/>
      <point x="210" y="1120"/>
    </contour>
  </outline>
</glyph>
<glyph name="parenleft.arab" format="2">
  <advance width="709.0"/>
  <unicode hex="0028"/>
  <outline>
    <contour>
      <point x="502.0" y="-20.0" type="line"/>
      <point x="362.0" y="165.0"/>
      <point x="311.0" y="342.0"/>
      <point x="311.0" y="570.0" type="curve" smooth="yes"/>
      <point x="311.0" y="845.0"/>
      <point x="414.0" y="1010.0"/>
      <point x="449.0" y="1065.0" type="curve"/>
      <point x="414.0" y="1100.0" type="line"/>
      <point x="356.0" y="1024.0"/>
      <point x="211.0" y="829.0"/>
      <point x="211.0" y="508.0" type="curve" smooth="yes"/>
      <point x="211.0" y="174.0"/>
      <point x="328.0" y="8.0"/>
      <point x="428.0" y="-119.0" type="curve"/>
    </contour>
  </outline>
</glyph>
<glyph name="parenleft" format="2">
  <advance width="539"/>
  <unicode hex="0028"/>
  <outline>
    <contour>
      <point x="439" y="-4" type="line"/>
      <point x="297" y="152"/>
      <point x="228" y="362"/>
      <point x="228" y="574" type="curve" smooth="yes"/>
      <point x="228" y="763"/>
      <point x="284" y="953"/>
      <point x="393" y="1106" type="curve"/>
      <point x="381" y="1116" type="line"/>
      <point x="229" y="957"/>
      <point x="150" y="732"/>
      <point x="150" y="506" type="curve" smooth="yes"/>
      <point x="150" y="294"/>
      <point x="219" y="81"/>
      <point x="365" y="-79" type="curve"/>
    </contour>
  </outline>
</glyph>
<glyph name="parenright.arab" format="2">
  <advance width="707.0"/>
  <unicode hex="0029"/>
  <outline>
    <contour>
      <point x="207.0" y="1001.0" type="line"/>
      <point x="347.0" y="816.0"/>
      <point x="400.0" y="642.0"/>
      <point x="400.0" y="414.0" type="curve" smooth="yes"/>
      <point x="400.0" y="137.0"/>
      <point x="299.0" y="-25.0"/>
      <point x="260.0" y="-84.0" type="curve"/>
      <point x="297.0" y="-119.0" type="line"/>
      <point x="356.0" y="-43.0"/>
      <point x="502.0" y="153.0"/>
      <point x="502.0" y="473.0" type="curve" smooth="yes"/>
      <point x="502.0" y="809.0"/>
      <point x="383.0" y="973.0"/>
      <point x="281.0" y="1100.0" type="curve"/>
    </contour>
  </outline>
</glyph>
<glyph name="parenright" format="2">
  <advance width="555"/>
  <unicode hex="0029"/>
  <note>
parenright
</note>
  <outline>
    <contour>
      <point x="36" y="1170" type="curve"/>
      <point x="0" y="1133" type="line"/>
      <point x="187" y="946"/>
      <point x="282" y="691"/>
      <point x="282" y="401" type="curve" smooth="yes"/>
      <point x="282" y="110"/>
      <point x="187" y="-144"/>
      <point x="0" y="-330" type="curve"/>
      <point x="36" y="-367" type="line"/>
      <point x="272" y="-162"/>
      <point x="388" y="99"/>
      <point x="388" y="401" type="curve" smooth="yes"/>
      <point x="388" y="701"/>
      <point x="272" y="969"/>
    </contour>
  </outline>
</glyph>
<glyph name="plus" format="2">
  <advance width="983.0"/>
  <unicode hex="002B"/>
  <outline>
    <contour>
      <point x="446.0" y="844.0" type="line"/>
      <point x="446.0" y="514.0" type="line"/>
      <point x="119.0" y="514.0" type="line"/>
      <point x="119.0" y="430.0" type="line"/>
      <point x="446.0" y="430.0" type="line"/>
      <point x="446.0" y="100.0" type="line"/>
      <point x="530.0" y="100.0" type="line"/>
      <point x="530.0" y="430.0" type="line"/>
      <point x="860.0" y="430.0" type="line"/>
      <point x="860.0" y="514.0" type="line"/>
      <point x="530.0" y="514.0" type="line"/>
      <point x="530.0" y="844.0" type="line"/>
    </contour>
  </outline>
</glyph>
<glyph name="comma" format="2">
  <advance width="335"/>
  <unicode hex="002C"/>
  <note>
comma
</note>
  <outline>
    <contour>
      <point x="64" y="-255" type="line"/>
      <point x="163" y="-216"/>
      <point x="250" y="-91"/>
      <point x="250" y="16" type="curve" smooth="yes"/>
      <point x="250" y="89"/>
      <point x="211" y="131"/>
      <point x="166" y="131" type="curve" smooth="yes"/>
      <point x="125" y="131"/>
      <point x="97" y="99"/>
      <point x="97" y="67" type="curve" smooth="yes"/>
      <point x="97" y="0"/>
      <point x="158" y="1"/>
      <point x="158" y="-64" type="curve" smooth="yes"/>
      <point x="158" y="-136"/>
      <point x="109" y="-187"/>
      <point x="44" y="-218" type="curve"/>
    </contour>
  </outline>
</glyph>
<glyph name="slash" format="2">
  <advance width="543.0"/>
  <unicode hex="002F"/>
  <outline>
    <contour>
      <point x="479.0" y="1245.0" type="line"/>
      <point x="416.0" y="1243.0" type="line"/>
      <point x="66.0" y="-260.0" type="line"/>
      <point x="127.0" y="-260.0" type="line"/>
    </contour>
  </outline>
</glyph>
<glyph name="one" format="2">
  <advance width="515"/>
  <unicode hex="0031"/>
  <note>
one
</note>
  <outline>
    <contour>
      <point x="311" y="296" type="curve" smooth="yes"/>
      <point x="311" y="691" type="line" smooth="yes"/>
      <point x="311" y="837"/>
      <point x="311" y="906"/>
      <point x="314" y="956" type="curve"/>
      <point x="86" y="849" type="line"/>
      <point x="91" y="794" type="line"/>
      <point x="218" y="824" type="line"/>
      <point x="223" y="767"/>
      <point x="226" y="715"/>
      <point x="226" y="669" type="curve" smooth="yes"/>
      <point x="226" y="296" type="line" smooth="yes"/>
      <point x="226" y="166"/>
      <point x="221" y="88"/>
      <point x="219" y="69" type="curve"/>
      <point x="97" y="48" type="line"/>
      <point x="101" y="0" type="line"/>
      <point x="439" y="0" type="line"/>
      <point x="442" y="48" type="line"/>
      <point x="317" y="69" type="line"/>
      <point x="314" y="80"/>
      <point x="311" y="128"/>
    </contour>
  </outline>
</glyph>
<glyph name="four" format="2">
  <advance width="818"/>
  <unicode hex="0034"/>
  <note>
four
</note>
  <outline>
    <contour>
      <point x="585" y="277" type="curve"/>
      <point x="584" y="727" type="line"/>
      <point x="584" y="802"/>
      <point x="585" y="871"/>
      <point x="589" y="948" type="curve"/>
      <point x="558" y="948" type="line"/>
      <point x="72" y="322" type="line"/>
      <point x="81" y="277" type="line"/>
      <point x="731" y="277" type="line"/>
      <point x="731" y="362" type="line"/>
      <point x="158" y="362" type="line"/>
      <point x="155" y="329" type="line"/>
      <point x="542" y="834" type="line"/>
      <point x="502" y="834" type="line"/>
      <point x="502" y="277" type="line"/>
      <point x="502" y="130"/>
      <point x="502" y="89"/>
      <point x="500" y="69" type="curve"/>
      <point x="375" y="48" type="line"/>
      <point x="378" y="0" type="line"/>
      <point x="680" y="0" type="line"/>
      <point x="683" y="48" type="line"/>
      <point x="589" y="69" type="line"/>
      <point x="587" y="89"/>
      <point x="585" y="130"/>
    </contour>
  </outline>
</glyph>
<glyph name="six" format="2">
  <advance width="772.0"/>
  <unicode hex="0036"/>
  <outline>
    <contour>
      <point x="713.0" y="344.0" type="curve"/>
      <point x="713.0" y="496.0"/>
      <point x="621.0" y="645.0"/>
      <point x="455.0" y="645.0" type="curve" smooth="yes"/>
      <point x="375.0" y="645.0"/>
      <point x="301.0" y="614.0"/>
      <point x="236.0" y="569.0" type="curve"/>
      <point x="289.0" y="795.0"/>
      <point x="444.0" y="1001.0"/>
      <point x="692.0" y="1016.0" type="curve"/>
      <point x="692.0" y="1044.0" type="line"/>
      <point x="649.0" y="1044.0" type="line" smooth="yes"/>
      <point x="319.0" y="1044.0"/>
      <point x="68.0" y="713.0"/>
      <point x="68.0" y="401.0" type="curve" smooth="yes"/>
      <point x="68.0" y="213.0"/>
      <point x="170.0" y="-18.0"/>
      <point x="387.0" y="-18.0" type="curve" smooth="yes"/>
      <point x="584.0" y="-18.0"/>
      <point x="713.0" y="160.0"/>
    </contour>
    <contour>
      <point x="578.0" y="262.0" type="curve"/>
      <point x="578.0" y="162.0"/>
      <point x="532.0" y="25.0"/>
      <point x="410.0" y="25.0" type="curve" smooth="yes"/>
      <point x="264.0" y="25.0"/>
      <point x="209.0" y="236.0"/>
      <point x="209.0" y="352.0" type="curve" smooth="yes"/>
      <point x="209.0" y="406.0"/>
      <point x="217.0" y="461.0"/>
      <point x="223.0" y="516.0" type="curve"/>
      <point x="264.0" y="541.0"/>
      <point x="332.0" y="580.0"/>
      <point x="381.0" y="580.0" type="curve" smooth="yes"/>
      <point x="539.0" y="580.0"/>
      <point x="578.0" y="385.0"/>
    </contour>
  </outline>
</glyph>
<glyph name="seven" format="2">
  <advance width="772.0"/>
  <unicode hex="0037"/>
  <outline>
    <contour>
      <point x="700.0" y="995.0" type="line"/>
      <point x="700.0" y="1022.0" type="line"/>
      <point x="156.0" y="1022.0" type="line"/>
      <point x="57.0" y="780.0" type="line"/>
      <point x="78.0" y="774.0" type="line"/>
      <point x="137.0" y="877.0"/>
      <point x="182.0" y="899.0"/>
      <point x="303.0" y="899.0" type="curve" smooth="yes"/>
      <point x="584.0" y="899.0" type="line"/>
      <point x="279.0" y="-23.0" type="line"/>
      <point x="360.0" y="-23.0" type="line"/>
    </contour>
  </outline>
</glyph>
<glyph name="eight" format="2">
  <advance width="772.0"/>
  <unicode hex="0038"/>
  <outline>
    <contour>
      <point x="684.0" y="242.0" type="curve"/>
      <point x="684.0" y="389.0"/>
      <point x="555.0" y="485.0"/>
      <point x="451.0" y="567.0" type="curve"/>
      <point x="541.0" y="623.0"/>
      <point x="662.0" y="702.0"/>
      <point x="662.0" y="823.0" type="curve" smooth="yes"/>
      <point x="662.0" y="971.0"/>
      <point x="516.0" y="1044.0"/>
      <point x="387.0" y="1044.0" type="curve" smooth="yes"/>
      <point x="242.0" y="1044.0"/>
      <point x="104.0" y="956.0"/>
      <point x="104.0" y="801.0" type="curve" smooth="yes"/>
      <point x="104.0" y="668.0"/>
      <point x="205.0" y="592.0"/>
      <point x="297.0" y="514.0" type="curve"/>
      <point x="207.0" y="451.0"/>
      <point x="92.0" y="354.0"/>
      <point x="92.0" y="233.0" type="curve" smooth="yes"/>
      <point x="92.0" y="76.0"/>
      <point x="242.0" y="-18.0"/>
      <point x="387.0" y="-18.0" type="curve" smooth="yes"/>
      <point x="545.0" y="-18.0"/>
      <point x="684.0" y="70.0"/>
    </contour>
    <contour>
      <point x="553.0" y="831.0" type="curve"/>
      <point x="553.0" y="719.0"/>
      <point x="492.0" y="668.0"/>
      <point x="416.0" y="596.0" type="curve"/>
      <point x="336.0" y="659.0"/>
      <point x="215.0" y="737.0"/>
      <point x="215.0" y="850.0" type="curve" smooth="yes"/>
      <point x="215.0" y="948.0"/>
      <point x="297.0" y="999.0"/>
      <point x="387.0" y="999.0" type="curve" smooth="yes"/>
      <point x="498.0" y="999.0"/>
      <point x="553.0" y="942.0"/>
    </contour>
    <contour>
      <point x="575.0" y="180.0" type="curve"/>
      <point x="575.0" y="78.0"/>
      <point x="492.0" y="25.0"/>
      <point x="397.0" y="25.0" type="curve" smooth="yes"/>
      <point x="272.0" y="25.0"/>
      <point x="209.0" y="121.0"/>
      <point x="209.0" y="236.0" type="curve" smooth="yes"/>
      <point x="209.0" y="338.0"/>
      <point x="256.0" y="422.0"/>
      <point x="332.0" y="487.0" type="curve"/>
      <point x="422.0" y="410.0"/>
      <point x="575.0" y="311.0"/>
    </contour>
  </outline>
</glyph>
<glyph name="nine" format="2">
  <advance width="807"/>
  <unicode hex="0039"/>
  <note>
nine
</note>
  <outline>
    <contour>
      <point x="609" y="563" type="curve"/>
      <point x="603" y="609" type="line"/>
      <point x="547" y="524"/>
      <point x="479" y="484"/>
      <point x="401" y="484" type="curve" smooth="yes"/>
      <point x="282" y="484"/>
      <point x="199" y="569"/>
      <point x="199" y="686" type="curve" smooth="yes"/>
      <point x="199" y="810"/>
      <point x="274" y="893"/>
      <point x="375" y="893" type="curve" smooth="yes"/>
      <point x="511" y="893"/>
      <point x="587" y="781"/>
      <point x="587" y="597" type="curve" smooth="yes"/>
      <point x="587" y="309"/>
      <point x="428" y="110"/>
      <point x="147" y="35" type="curve"/>
      <point x="171" y="-24" type="line"/>
      <point x="481" y="43"/>
      <point x="698" y="287"/>
      <point x="698" y="611" type="curve" smooth="yes"/>
      <point x="698" y="829"/>
      <point x="574" y="956"/>
      <point x="388" y="956" type="curve" smooth="yes"/>
      <point x="215" y="956"/>
      <point x="89" y="810"/>
      <point x="89" y="662" type="curve" smooth="yes"/>
      <point x="89" y="511"/>
      <point x="208" y="402"/>
      <point x="364" y="402" type="curve" smooth="yes"/>
      <point x="470" y="402"/>
      <point x="561" y="462"/>
    </contour>
  </outline>
</glyph>
<glyph name="colon" format="2">
  <advance width="335"/>
  <unicode hex="003A"/>
  <note>
colon
</note>
  <outline>
    <contour>
      <point x="166" y="-16" type="curve" smooth="yes"/>
      <point x="213" y="-16"/>
      <point x="245" y="16"/>
      <point x="245" y="59" type="curve" smooth="yes"/>
      <point x="245" y="101"/>
      <point x="213" y="131"/>
      <point x="166" y="131" type="curve" smooth="yes"/>
      <point x="121" y="131"/>
      <point x="89" y="101"/>
      <point x="89" y="59" type="curve" smooth="yes"/>
      <point x="89" y="16"/>
      <point x="121" y="-16"/>
    </contour>
    <contour>
      <point x="166" y="552" type="curve" smooth="yes"/>
      <point x="213" y="552"/>
      <point x="245" y="582"/>
      <point x="245" y="625" type="curve" smooth="yes"/>
      <point x="245" y="669"/>
      <point x="213" y="698"/>
      <point x="166" y="698" type="curve" smooth="yes"/>
      <point x="121" y="698"/>
      <point x="89" y="669"/>
      <point x="89" y="625" type="curve" smooth="yes"/>
      <point x="89" y="582"/>
      <point x="121" y="552"/>
    </contour>
  </outline>
</glyph>
<glyph name="semicolon" format="2">
  <advance width="335"/>
  <unicode hex="003B"/>
  <note>
semicolon
</note>
  <outline>
    <contour>
      <point x="64" y="-255" type="line"/>
      <point x="158" y="-219"/>
      <point x="250" y="-91"/>
      <point x="250" y="16" type="curve" smooth="yes"/>
      <point x="250" y="89"/>
      <point x="211" y="131"/>
      <point x="166" y="131" type="curve" smooth="yes"/>
      <point x="125" y="131"/>
      <point x="97" y="99"/>
      <point x="97" y="67" type="curve" smooth="yes"/>
      <point x="97" y="0"/>
      <point x="158" y="1"/>
      <point x="158" y="-64" type="curve" smooth="yes"/>
      <point x="158" y="-136"/>
      <point x="109" y="-187"/>
      <point x="44" y="-218" type="curve"/>
    </contour>
    <contour>
      <point x="166" y="552" type="curve" smooth="yes"/>
      <point x="213" y="552"/>
      <point x="245" y="582"/>
      <point x="245" y="625" type="curve" smooth="yes"/>
      <point x="245" y="669"/>
      <point x="213" y="698"/>
      <point x="166" y="698" type="curve" smooth="yes"/>
      <point x="121" y="698"/>
      <point x="89" y="669"/>
      <point x="89" y="625" type="curve" smooth="yes"/>
      <point x="89" y="582"/>
      <point x="121" y="552"/>
    </contour>
  </outline>
</glyph>
<glyph name="less" format="2">
  <advance width="866"/>
  <unicode hex="003C"/>
  <outline>
    <contour>
      <point x="85" y="362" type="line"/>
      <point x="781" y="46" type="line"/>
      <point x="781" y="139" type="line"/>
      <point x="130" y="433" type="line"/>
      <point x="130" y="378" type="line"/>
      <point x="781" y="670" type="line"/>
      <point x="781" y="767" type="line"/>
      <point x="85" y="451" type="line"/>
    </contour>
  </outline>
</glyph>
<glyph name="equal" format="2">
  <advance width="866"/>
  <unicode hex="003D"/>
  <outline>
    <contour>
      <point x="781" y="592" type="line"/>
      <point x="85" y="592" type="line"/>
      <point x="85" y="505" type="line"/>
      <point x="781" y="505" type="line"/>
    </contour>
    <contour>
      <point x="781" y="306" type="line"/>
      <point x="85" y="306" type="line"/>
      <point x="85" y="219" type="line"/>
      <point x="781" y="219" type="line"/>
    </contour>
  </outline>
</glyph>
<glyph name="greater" format="2">
  <advance width="866"/>
  <unicode hex="003E"/>
  <outline>
    <contour>
      <point x="781" y="362" type="line"/>
      <point x="781" y="451" type="line"/>
      <point x="85" y="767" type="line"/>
      <point x="85" y="670" type="line"/>
      <point x="736" y="378" type="line"/>
      <point x="736" y="433" type="line"/>
      <point x="85" y="139" type="line"/>
      <point x="85" y="46" type="line"/>
    </contour>
  </outline>
</glyph>
<glyph name="question" format="2">
  <advance width="686.0"/>
  <unicode hex="003F"/>
  <outline>
    <contour>
      <point x="625.0" y="807.0" type="curve"/>
      <point x="625.0" y="971.0"/>
      <point x="489.0" y="1044.0"/>
      <point x="342.0" y="1044.0" type="curve" smooth="yes"/>
      <point x="209.0" y="1044.0"/>
      <point x="70.0" y="979.0"/>
      <point x="70.0" y="829.0" type="curve" smooth="yes"/>
      <point x="70.0" y="780.0"/>
      <point x="94.0" y="711.0"/>
      <point x="154.0" y="711.0" type="curve" smooth="yes"/>
      <point x="188.0" y="711.0"/>
      <point x="213.0" y="741.0"/>
      <point x="213.0" y="774.0" type="curve" smooth="yes"/>
      <point x="213.0" y="807.0"/>
      <point x="166.0" y="864.0"/>
      <point x="166.0" y="905.0" type="curve" smooth="yes"/>
      <point x="166.0" y="975.0"/>
      <point x="252.0" y="1004.0"/>
      <point x="309.0" y="1004.0" type="curve" smooth="yes"/>
      <point x="428.0" y="1004.0"/>
      <point x="483.0" y="903.0"/>
      <point x="483.0" y="797.0" type="curve" smooth="yes"/>
      <point x="483.0" y="715.0"/>
      <point x="454.0" y="639.0"/>
      <point x="414.0" y="572.0" type="curve" smooth="yes"/>
      <point x="353.0" y="469.0"/>
      <point x="315.0" y="360.0"/>
      <point x="311.0" y="240.0" type="curve"/>
      <point x="342.0" y="240.0" type="line"/>
      <point x="354.0" y="506.0"/>
      <point x="625.0" y="580.0"/>
    </contour>
    <contour>
      <point x="416.0" y="63.0" type="curve"/>
      <point x="416.0" y="111.0"/>
      <point x="379.0" y="150.0"/>
      <point x="332.0" y="150.0" type="curve" smooth="yes"/>
      <point x="287.0" y="150.0"/>
      <point x="246.0" y="111.0"/>
      <point x="246.0" y="63.0" type="curve" smooth="yes"/>
      <point x="246.0" y="14.0"/>
      <point x="285.0" y="-20.0"/>
      <point x="332.0" y="-20.0" type="curve" smooth="yes"/>
      <point x="379.0" y="-20.0"/>
      <point x="416.0" y="16.0"/>
    </contour>
  </outline>
</glyph>
<glyph name="at" format="2">
  <advance width="1404"/>
  <unicode hex="0040"/>
  <note>
at
</note>
  <outline>
    <contour>
      <point x="717" y="-364" type="curve" smooth="yes"/>
      <point x="804" y="-364"/>
      <point x="927" y="-338"/>
      <point x="990" y="-301" type="curve"/>
      <point x="971" y="-253" type="line"/>
      <point x="889" y="-290"/>
      <point x="802" y="-303"/>
      <point x="723" y="-303" type="curve" smooth="yes"/>
      <point x="391" y="-303"/>
      <point x="211" y="-72"/>
      <point x="211" y="282" type="curve" smooth="yes"/>
      <point x="211" y="630"/>
      <point x="431" y="885"/>
      <point x="783" y="885" type="curve" smooth="yes"/>
      <point x="1046" y="885"/>
      <point x="1226" y="725"/>
      <point x="1226" y="465" type="curve" smooth="yes"/>
      <point x="1226" y="227"/>
      <point x="1120" y="48"/>
      <point x="983" y="48" type="curve"/>
      <point x="974" y="80"/>
      <point x="969" y="117"/>
      <point x="969" y="163" type="curve"/>
      <point x="972" y="476" type="line"/>
      <point x="971" y="606"/>
      <point x="873" y="694"/>
      <point x="731" y="694" type="curve"/>
      <point x="613" y="678"/>
      <point x="495" y="598"/>
      <point x="495" y="534" type="curve" smooth="yes"/>
      <point x="495" y="499"/>
      <point x="528" y="476"/>
      <point x="571" y="476" type="curve" smooth="yes"/>
      <point x="584" y="476"/>
      <point x="597" y="479"/>
      <point x="611" y="483" type="curve"/>
      <point x="613" y="534" type="line" smooth="yes"/>
      <point x="616" y="611"/>
      <point x="632" y="629"/>
      <point x="694" y="629" type="curve" smooth="yes"/>
      <point x="802" y="629"/>
      <point x="885" y="564"/>
      <point x="885" y="478" type="curve" smooth="yes"/>
      <point x="885" y="385" type="line"/>
      <point x="645" y="300" type="line" smooth="yes"/>
      <point x="534" y="261"/>
      <point x="492" y="221"/>
      <point x="492" y="152" type="curve" smooth="yes"/>
      <point x="492" y="62"/>
      <point x="589" y="-12"/>
      <point x="704" y="-12" type="curve" smooth="yes"/>
      <point x="772" y="-12"/>
      <point x="832" y="20"/>
      <point x="906" y="101" type="curve"/>
      <point x="887" y="96" type="line"/>
      <point x="898" y="38" type="line" smooth="yes"/>
      <point x="905" y="6"/>
      <point x="921" y="-12"/>
      <point x="956" y="-12" type="curve" smooth="yes"/>
      <point x="1129" y="-12"/>
      <point x="1316" y="219"/>
      <point x="1316" y="463" type="curve" smooth="yes"/>
      <point x="1316" y="767"/>
      <point x="1088" y="948"/>
      <point x="783" y="948" type="curve" smooth="yes"/>
      <point x="373" y="948"/>
      <point x="104" y="653"/>
      <point x="104" y="263" type="curve" smooth="yes"/>
      <point x="104" y="-113"/>
      <point x="345" y="-364"/>
    </contour>
    <contour>
      <point x="728" y="57" type="curve" smooth="yes"/>
      <point x="661" y="57"/>
      <point x="598" y="110"/>
      <point x="598" y="166" type="curve" smooth="yes"/>
      <point x="598" y="211"/>
      <point x="619" y="240"/>
      <point x="670" y="255" type="curve" smooth="yes"/>
      <point x="885" y="317" type="line"/>
      <point x="885" y="142" type="line"/>
      <point x="837" y="85"/>
      <point x="788" y="57"/>
    </contour>
  </outline>
</glyph>
<glyph name="A" format="2">
  <advance width="916"/>
  <unicode hex="0041"/>
  <note>
A
</note>
  <anchor x="452" y="942" name="above"/>
  <anchor x="444" y="0" name="below"/>
  <anchor x="853" y="0" name="ogonek"/>
  <outline>
    <contour>
      <point x="9" y="0" type="line"/>
      <point x="260" y="0" type="line"/>
      <point x="263" y="51" type="line"/>
      <point x="166" y="72" type="line"/>
      <point x="256" y="322" type="line"/>
      <point x="274" y="370" type="line"/>
      <point x="459" y="873" type="line"/>
      <point x="425" y="836" type="line"/>
      <point x="608" y="372" type="line"/>
      <point x="625" y="325" type="line"/>
      <point x="723" y="72" type="line"/>
      <point x="627" y="51" type="line"/>
      <point x="630" y="0" type="line"/>
      <point x="905" y="0" type="line"/>
      <point x="908" y="51" type="line"/>
      <point x="829" y="72" type="line"/>
      <point x="489" y="971" type="line"/>
      <point x="415" y="924" type="line"/>
      <point x="85" y="72" type="line"/>
      <point x="6" y="51" type="line"/>
    </contour>
    <contour>
      <point x="219" y="308" type="line"/>
      <point x="319" y="309"/>
      <point x="396" y="311"/>
      <point x="452" y="311" type="curve" smooth="yes"/>
      <point x="510" y="311"/>
      <point x="592" y="309"/>
      <point x="682" y="308" type="curve"/>
      <point x="682" y="381" type="line"/>
      <point x="643" y="380"/>
      <point x="561" y="377"/>
      <point x="452" y="377" type="curve" smooth="yes"/>
      <point x="341" y="377"/>
      <point x="260" y="380"/>
      <point x="219" y="381" type="curve"/>
    </contour>
  </outline>
</glyph>
<glyph name="B" format="2">
  <advance width="869"/>
  <unicode hex="0042"/>
  <note>
B
</note>
  <anchor x="426" y="0" name="bottom"/>
  <anchor x="426" y="942" name="top"/>
  <outline>
    <contour>
      <point x="178" y="72" type="curve"/>
      <point x="81" y="51" type="line"/>
      <point x="85" y="0" type="line"/>
      <point x="401" y="0" type="line" smooth="yes"/>
      <point x="637" y="0"/>
      <point x="791" y="105"/>
      <point x="791" y="269" type="curve" smooth="yes"/>
      <point x="791" y="417"/>
      <point x="680" y="502"/>
      <point x="473" y="507" type="curve"/>
      <point x="505" y="495" type="line"/>
      <point x="645" y="508"/>
      <point x="743" y="598"/>
      <point x="743" y="715" type="curve" smooth="yes"/>
      <point x="743" y="860"/>
      <point x="630" y="942"/>
      <point x="431" y="942" type="curve" smooth="yes"/>
      <point x="85" y="942" type="line"/>
      <point x="81" y="887" type="line"/>
      <point x="178" y="876" type="line"/>
      <point x="182" y="863"/>
      <point x="187" y="780"/>
      <point x="187" y="637" type="curve" smooth="yes"/>
      <point x="187" y="303" type="line" smooth="yes"/>
      <point x="187" y="174"/>
      <point x="182" y="89"/>
    </contour>
    <contour>
      <point x="284" y="284" type="curve" smooth="yes"/>
      <point x="284" y="666" type="line" smooth="yes"/>
      <point x="284" y="767"/>
      <point x="285" y="866"/>
      <point x="287" y="881" type="curve"/>
      <point x="417" y="881" type="line" smooth="yes"/>
      <point x="556" y="881"/>
      <point x="638" y="820"/>
      <point x="638" y="702" type="curve" smooth="yes"/>
      <point x="638" y="584"/>
      <point x="548" y="516"/>
      <point x="394" y="516" type="curve" smooth="yes"/>
      <point x="345" y="516"/>
      <point x="306" y="518"/>
      <point x="260" y="521" type="curve"/>
      <point x="260" y="449" type="line"/>
      <point x="279" y="452"/>
      <point x="296" y="452"/>
      <point x="401" y="452" type="curve" smooth="yes"/>
      <point x="589" y="452"/>
      <point x="686" y="385"/>
      <point x="686" y="255" type="curve" smooth="yes"/>
      <point x="686" y="123"/>
      <point x="597" y="64"/>
      <point x="406" y="64" type="curve" smooth="yes"/>
      <point x="380" y="64"/>
      <point x="316" y="70"/>
      <point x="288" y="75" type="curve"/>
      <point x="285" y="91"/>
      <point x="284" y="184"/>
    </contour>
  </outline>
</glyph>
<glyph name="C" format="2">
  <advance width="1030.0"/>
  <unicode hex="0043"/>
  <anchor x="553.0" y="-72.0" name="below"/>
  <outline>
    <contour>
      <point x="952.0" y="256.0" type="line"/>
      <point x="860.0" y="125.0"/>
      <point x="780.0" y="43.0"/>
      <point x="610.0" y="43.0" type="curve" smooth="yes"/>
      <point x="340.0" y="43.0"/>
      <point x="227.0" y="250.0"/>
      <point x="227.0" y="494.0" type="curve" smooth="yes"/>
      <point x="227.0" y="727.0"/>
      <point x="309.0" y="991.0"/>
      <point x="588.0" y="991.0" type="curve" smooth="yes"/>
      <point x="776.0" y="991.0"/>
      <point x="879.0" y="868.0"/>
      <point x="930.0" y="698.0" type="curve"/>
      <point x="952.0" y="698.0" type="line"/>
      <point x="930.0" y="1044.0" type="line"/>
      <point x="903.0" y="1044.0" type="line"/>
      <point x="895.0" y="1016.0"/>
      <point x="881.0" y="975.0"/>
      <point x="840.0" y="975.0" type="curve"/>
      <point x="748.0" y="1014.0"/>
      <point x="680.0" y="1044.0"/>
      <point x="575.0" y="1044.0" type="curve" smooth="yes"/>
      <point x="264.0" y="1044.0"/>
      <point x="55.0" y="799.0"/>
      <point x="55.0" y="496.0" type="curve" smooth="yes"/>
      <point x="55.0" y="201.0"/>
      <point x="250.0" y="-25.0"/>
      <point x="553.0" y="-25.0" type="curve" smooth="yes"/>
      <point x="745.0" y="-25.0"/>
      <point x="883.0" y="74.0"/>
      <point x="975.0" y="240.0" type="curve"/>
    </contour>
  </outline>
</glyph>
<glyph name="D" format="2">
  <advance width="1076"/>
  <unicode hex="0044"/>
  <note>
D
</note>
  <anchor x="526" y="942" name="above"/>
  <anchor x="510" y="0" name="below"/>
  <anchor x="542" y="471" name="center"/>
  <anchor x="312" y="471" name="stroke"/>
  <outline>
    <contour>
      <point x="89" y="942" type="line"/>
      <point x="86" y="890" type="line"/>
      <point x="181" y="869" type="line"/>
      <point x="184" y="853"/>
      <point x="189" y="760"/>
      <point x="189" y="637" type="curve" smooth="yes"/>
      <point x="189" y="303" type="line" smooth="yes"/>
      <point x="189" y="194"/>
      <point x="184" y="94"/>
      <point x="181" y="72" type="curve"/>
      <point x="86" y="51" type="line"/>
      <point x="89" y="0" type="line"/>
      <point x="471" y="0" type="line" smooth="yes"/>
      <point x="773" y="0"/>
      <point x="982" y="197"/>
      <point x="982" y="481" type="curve" smooth="yes"/>
      <point x="982" y="772"/>
      <point x="784" y="942"/>
      <point x="451" y="942" type="curve" smooth="yes"/>
    </contour>
    <contour>
      <point x="290" y="865" type="curve"/>
      <point x="341" y="874"/>
      <point x="388" y="877"/>
      <point x="431" y="877" type="curve" smooth="yes"/>
      <point x="727" y="877"/>
      <point x="861" y="704"/>
      <point x="861" y="434" type="curve" smooth="yes"/>
      <point x="861" y="205"/>
      <point x="728" y="70"/>
      <point x="481" y="70" type="curve" smooth="yes"/>
      <point x="423" y="70"/>
      <point x="372" y="75"/>
      <point x="293" y="85" type="curve"/>
      <point x="290" y="130"/>
      <point x="287" y="199"/>
      <point x="287" y="303" type="curve" smooth="yes"/>
      <point x="287" y="637" type="line" smooth="yes"/>
      <point x="287" y="797"/>
      <point x="288" y="829"/>
    </contour>
  </outline>
</glyph>
<glyph name="F" format="2">
  <advance width="789"/>
  <unicode hex="0046"/>
  <note>
F
</note>
  <anchor x="240" y="0" name="bottom"/>
  <anchor x="417" y="942" name="top"/>
  <outline>
    <contour>
      <point x="97" y="0" type="line"/>
      <point x="417" y="0" type="line"/>
      <point x="420" y="54" type="line"/>
      <point x="290" y="72" type="line"/>
      <point x="287" y="85"/>
      <point x="285" y="130"/>
      <point x="285" y="325" type="curve"/>
      <point x="284" y="667" type="line"/>
      <point x="284" y="744"/>
      <point x="284" y="853"/>
      <point x="285" y="869" type="curve"/>
      <point x="308" y="871"/>
      <point x="356" y="873"/>
      <point x="386" y="873" type="curve" smooth="yes"/>
      <point x="592" y="873" type="line" smooth="yes"/>
      <point x="614" y="873"/>
      <point x="637" y="871"/>
      <point x="646" y="869" type="curve"/>
      <point x="698" y="738" type="line"/>
      <point x="760" y="747" type="line"/>
      <point x="733" y="948" type="line"/>
      <point x="666" y="942"/>
      <point x="648" y="942"/>
      <point x="614" y="942" type="curve" smooth="yes"/>
      <point x="91" y="942" type="line"/>
      <point x="88" y="890" type="line"/>
      <point x="184" y="869" type="line"/>
      <point x="187" y="858"/>
      <point x="189" y="805"/>
      <point x="189" y="678" type="curve"/>
      <point x="187" y="290" type="line"/>
      <point x="187" y="138"/>
      <point x="186" y="85"/>
      <point x="182" y="72" type="curve"/>
      <point x="94" y="51" type="line"/>
    </contour>
    <contour>
      <point x="589" y="321" type="line"/>
      <point x="645" y="321" type="line"/>
      <point x="645" y="633" type="line"/>
      <point x="589" y="633" type="line"/>
      <point x="566" y="521" type="line"/>
      <point x="555" y="516"/>
      <point x="537" y="515"/>
      <point x="494" y="515" type="curve" smooth="yes"/>
      <point x="340" y="515" type="line" smooth="yes"/>
      <point x="316" y="515"/>
      <point x="288" y="516"/>
      <point x="261" y="518" type="curve"/>
      <point x="261" y="442" type="line"/>
      <point x="303" y="444"/>
      <point x="325" y="444"/>
      <point x="340" y="444" type="curve" smooth="yes"/>
      <point x="494" y="444" type="line" smooth="yes"/>
      <point x="531" y="444"/>
      <point x="558" y="442"/>
      <point x="566" y="438" type="curve"/>
    </contour>
  </outline>
</glyph>
<glyph name="G" format="2">
  <advance width="1114.0"/>
  <unicode hex="0047"/>
  <outline>
    <contour>
      <point x="1094.0" y="557.0" type="line"/>
      <point x="698.0" y="557.0" type="line"/>
      <point x="698.0" y="530.0" type="line"/>
      <point x="817.0" y="526.0"/>
      <point x="831.0" y="494.0"/>
      <point x="831.0" y="381.0" type="curve" smooth="yes"/>
      <point x="831.0" y="84.0" type="line"/>
      <point x="768.0" y="47.0"/>
      <point x="694.0" y="29.0"/>
      <point x="621.0" y="29.0" type="curve" smooth="yes"/>
      <point x="350.0" y="29.0"/>
      <point x="227.0" y="291.0"/>
      <point x="227.0" y="528.0" type="curve" smooth="yes"/>
      <point x="227.0" y="766.0"/>
      <point x="344.0" y="993.0"/>
      <point x="610.0" y="993.0" type="curve" smooth="yes"/>
      <point x="791.0" y="993.0"/>
      <point x="895.0" y="887.0"/>
      <point x="948.0" y="723.0" type="curve"/>
      <point x="975.0" y="723.0" type="line"/>
      <point x="948.0" y="1044.0" type="line"/>
      <point x="922.0" y="1044.0" type="line"/>
      <point x="920.0" y="1026.0"/>
      <point x="911.0" y="981.0"/>
      <point x="883.0" y="981.0" type="curve" smooth="yes"/>
      <point x="881.0" y="981.0"/>
      <point x="795.0" y="1012.0"/>
      <point x="791.0" y="1012.0" type="curve"/>
      <point x="727.0" y="1034.0"/>
      <point x="662.0" y="1044.0"/>
      <point x="596.0" y="1044.0" type="curve" smooth="yes"/>
      <point x="289.0" y="1044.0"/>
      <point x="53.0" y="801.0"/>
      <point x="53.0" y="496.0" type="curve" smooth="yes"/>
      <point x="53.0" y="166.0"/>
      <point x="305.0" y="-25.0"/>
      <point x="618.0" y="-25.0" type="curve" smooth="yes"/>
      <point x="745.0" y="-25.0"/>
      <point x="870.0" y="4.0"/>
      <point x="979.0" y="68.0" type="curve"/>
      <point x="979.0" y="381.0" type="line" smooth="yes"/>
      <point x="979.0" y="475.0"/>
      <point x="983.0" y="530.0"/>
      <point x="1094.0" y="530.0" type="curve"/>
    </contour>
  </outline>
</glyph>
<glyph name="H" format="2">
  <advance width="1114.0"/>
  <unicode hex="0048"/>
  <outline>
    <contour>
      <point x="1083.0" y="0.0" type="line"/>
      <point x="1083.0" y="29.0" type="line"/>
      <point x="963.0" y="29.0"/>
      <point x="938.0" y="47.0"/>
      <point x="938.0" y="170.0" type="curve" smooth="yes"/>
      <point x="938.0" y="854.0" type="line" smooth="yes"/>
      <point x="938.0" y="971.0"/>
      <point x="963.0" y="995.0"/>
      <point x="1083.0" y="995.0" type="curve"/>
      <point x="1083.0" y="1022.0" type="line"/>
      <point x="645.0" y="1022.0" type="line"/>
      <point x="645.0" y="995.0" type="line"/>
      <point x="774.0" y="995.0"/>
      <point x="793.0" y="967.0"/>
      <point x="793.0" y="842.0" type="curve" smooth="yes"/>
      <point x="793.0" y="549.0" type="line"/>
      <point x="315.0" y="549.0" type="line"/>
      <point x="315.0" y="842.0" type="line" smooth="yes"/>
      <point x="315.0" y="967.0"/>
      <point x="338.0" y="995.0"/>
      <point x="465.0" y="995.0" type="curve"/>
      <point x="465.0" y="1022.0" type="line"/>
      <point x="27.0" y="1022.0" type="line"/>
      <point x="27.0" y="995.0" type="line"/>
      <point x="156.0" y="995.0"/>
      <point x="172.0" y="967.0"/>
      <point x="172.0" y="842.0" type="curve" smooth="yes"/>
      <point x="172.0" y="180.0" type="line" smooth="yes"/>
      <point x="172.0" y="55.0"/>
      <point x="158.0" y="29.0"/>
      <point x="27.0" y="29.0" type="curve"/>
      <point x="27.0" y="0.0" type="line"/>
      <point x="465.0" y="0.0" type="line"/>
      <point x="465.0" y="29.0" type="line"/>
      <point x="334.0" y="29.0"/>
      <point x="315.0" y="55.0"/>
      <point x="315.0" y="180.0" type="curve" smooth="yes"/>
      <point x="315.0" y="494.0" type="line"/>
      <point x="793.0" y="494.0" type="line"/>
      <point x="793.0" y="180.0" type="line" smooth="yes"/>
      <point x="793.0" y="57.0"/>
      <point x="774.0" y="29.0"/>
      <point x="645.0" y="29.0" type="curve"/>
      <point x="645.0" y="0.0" type="line"/>
    </contour>
  </outline>
</glyph>
<glyph name="I" format="2">
  <advance width="473"/>
  <unicode hex="0049"/>
  <note>
I
</note>
  <anchor x="237" y="0" name="bottom"/>
  <anchor x="316" y="0" name="ogonek"/>
  <anchor x="237" y="942" name="top"/>
  <anchor x="40" y="942" name="topleft"/>
  <outline>
    <contour>
      <point x="89" y="0" type="line"/>
      <point x="386" y="0" type="line"/>
      <point x="390" y="51" type="line"/>
      <point x="293" y="72" type="line"/>
      <point x="288" y="83"/>
      <point x="285" y="134"/>
      <point x="285" y="303" type="curve" smooth="yes"/>
      <point x="285" y="637" type="line" smooth="yes"/>
      <point x="285" y="808"/>
      <point x="288" y="858"/>
      <point x="293" y="869" type="curve"/>
      <point x="390" y="890" type="line"/>
      <point x="386" y="942" type="line"/>
      <point x="89" y="942" type="line"/>
      <point x="86" y="890" type="line"/>
      <point x="182" y="869" type="line"/>
      <point x="186" y="855"/>
      <point x="187" y="786"/>
      <point x="187" y="637" type="curve" smooth="yes"/>
      <point x="187" y="303" type="line" smooth="yes"/>
      <point x="187" y="155"/>
      <point x="186" y="88"/>
      <point x="182" y="72" type="curve"/>
      <point x="86" y="51" type="line"/>
    </contour>
  </outline>
</glyph>
<glyph name="J" format="2">
  <advance width="473"/>
  <unicode hex="004A"/>
  <note>
J
</note>
  <anchor x="237" y="942" name="top"/>
  <outline>
    <contour>
      <point x="293" y="869" type="curve"/>
      <point x="390" y="890" type="line"/>
      <point x="386" y="942" type="line"/>
      <point x="78" y="942" type="line"/>
      <point x="75" y="890" type="line"/>
      <point x="182" y="868" type="line"/>
      <point x="186" y="850"/>
      <point x="187" y="783"/>
      <point x="187" y="633" type="curve"/>
      <point x="186" y="-48" type="line"/>
      <point x="186" y="-208"/>
      <point x="136" y="-285"/>
      <point x="40" y="-269" type="curve"/>
      <point x="80" y="-282" type="line"/>
      <point x="11" y="-210" type="line" smooth="yes"/>
      <point x="-12" y="-186"/>
      <point x="-35" y="-173"/>
      <point x="-59" y="-173" type="curve" smooth="yes"/>
      <point x="-93" y="-173"/>
      <point x="-112" y="-194"/>
      <point x="-112" y="-221" type="curve" smooth="yes"/>
      <point x="-112" y="-274"/>
      <point x="-35" y="-325"/>
      <point x="49" y="-325" type="curve" smooth="yes"/>
      <point x="197" y="-325"/>
      <point x="287" y="-205"/>
      <point x="287" y="35" type="curve"/>
      <point x="285" y="635" type="line"/>
      <point x="285" y="800"/>
      <point x="288" y="858"/>
    </contour>
  </outline>
</glyph>
<glyph name="K" format="2">
  <advance width="897"/>
  <unicode hex="004B"/>
  <note>
K
</note>
  <anchor x="495" y="0" name="bottom"/>
  <anchor x="495" y="942" name="top"/>
  <outline>
    <contour>
      <point x="579" y="0" type="line"/>
      <point x="903" y="0" type="line"/>
      <point x="903" y="52" type="line"/>
      <point x="824" y="75" type="line"/>
      <point x="796" y="101"/>
      <point x="759" y="144"/>
      <point x="715" y="190" type="curve" smooth="yes"/>
      <point x="410" y="518" type="line"/>
      <point x="402" y="481" type="line"/>
      <point x="805" y="871" type="line"/>
      <point x="890" y="887" type="line"/>
      <point x="889" y="942" type="line"/>
      <point x="603" y="942" type="line"/>
      <point x="601" y="890" type="line"/>
      <point x="698" y="868" type="line"/>
      <point x="367" y="524" type="line"/>
      <point x="274" y="499" type="line"/>
      <point x="274" y="447" type="line"/>
      <point x="343" y="447" type="line"/>
      <point x="613" y="149" type="line" smooth="yes"/>
      <point x="638" y="121"/>
      <point x="662" y="89"/>
      <point x="680" y="67" type="curve"/>
      <point x="576" y="51" type="line"/>
    </contour>
    <contour>
      <point x="89" y="0" type="line"/>
      <point x="393" y="0" type="line"/>
      <point x="396" y="51" type="line"/>
      <point x="292" y="72" type="line"/>
      <point x="290" y="88"/>
      <point x="287" y="158"/>
      <point x="287" y="303" type="curve" smooth="yes"/>
      <point x="287" y="637" type="line" smooth="yes"/>
      <point x="287" y="804"/>
      <point x="290" y="860"/>
      <point x="295" y="869" type="curve"/>
      <point x="391" y="890" type="line"/>
      <point x="388" y="942" type="line"/>
      <point x="89" y="942" type="line"/>
      <point x="86" y="890" type="line"/>
      <point x="182" y="869" type="line"/>
      <point x="187" y="857"/>
      <point x="189" y="786"/>
      <point x="189" y="637" type="curve" smooth="yes"/>
      <point x="189" y="303" type="line" smooth="yes"/>
      <point x="189" y="158"/>
      <point x="186" y="88"/>
      <point x="182" y="72" type="curve"/>
      <point x="86" y="51" type="line"/>
    </contour>
  </outline>
</glyph>
<glyph name="L" format="2">
  <advance width="942.0"/>
  <unicode hex="004C"/>
  <outline>
    <contour>
      <point x="911.0" y="279.0" type="line"/>
      <point x="885.0" y="283.0" type="line"/>
      <point x="807.0" y="102.0"/>
      <point x="750.0" y="66.0"/>
      <point x="553.0" y="66.0" type="curve" smooth="yes"/>
      <point x="451.0" y="66.0" type="line" smooth="yes"/>
      <point x="350.0" y="66.0"/>
      <point x="322.0" y="92.0"/>
      <point x="322.0" y="193.0" type="curve" smooth="yes"/>
      <point x="322.0" y="866.0" type="line" smooth="yes"/>
      <point x="322.0" y="973.0"/>
      <point x="375.0" y="993.0"/>
      <point x="473.0" y="993.0" type="curve"/>
      <point x="473.0" y="1022.0" type="line"/>
      <point x="29.0" y="1022.0" type="line"/>
      <point x="29.0" y="993.0" type="line"/>
      <point x="125.0" y="993.0"/>
      <point x="178.0" y="973.0"/>
      <point x="178.0" y="866.0" type="curve" smooth="yes"/>
      <point x="178.0" y="156.0" type="line" smooth="yes"/>
      <point x="178.0" y="47.0"/>
      <point x="125.0" y="29.0"/>
      <point x="29.0" y="29.0" type="curve"/>
      <point x="29.0" y="0.0" type="line"/>
      <point x="823.0" y="0.0" type="line"/>
    </contour>
  </outline>
</glyph>
<glyph name="M" format="2">
  <advance width="1335"/>
  <unicode hex="004D"/>
  <note>
M
</note>
  <anchor x="661" y="942" name="above"/>
  <anchor x="661" y="0" name="below"/>
  <outline>
    <contour>
      <point x="97" y="942" type="line"/>
      <point x="94" y="890" type="line"/>
      <point x="190" y="869" type="line"/>
      <point x="192" y="824"/>
      <point x="194" y="725"/>
      <point x="192" y="648" type="curve" smooth="yes"/>
      <point x="187" y="325" type="line" smooth="yes"/>
      <point x="186" y="165"/>
      <point x="184" y="96"/>
      <point x="181" y="72" type="curve"/>
      <point x="73" y="51" type="line"/>
      <point x="77" y="0" type="line"/>
      <point x="375" y="0" type="line"/>
      <point x="378" y="51" type="line"/>
      <point x="271" y="72" type="line"/>
      <point x="269" y="94"/>
      <point x="268" y="170"/>
      <point x="268" y="356" type="curve" smooth="yes"/>
      <point x="268" y="898" type="line"/>
      <point x="253" y="898" type="line"/>
      <point x="637" y="-4" type="line"/>
      <point x="670" y="-4" type="line"/>
      <point x="1062" y="895" type="line"/>
      <point x="1036" y="895" type="line"/>
      <point x="1040" y="312" type="line" smooth="yes"/>
      <point x="1041" y="147"/>
      <point x="1041" y="123"/>
      <point x="1040" y="70" type="curve"/>
      <point x="945" y="51" type="line"/>
      <point x="948" y="0" type="line"/>
      <point x="1242" y="0" type="line"/>
      <point x="1245" y="51" type="line"/>
      <point x="1149" y="70" type="line"/>
      <point x="1147" y="110"/>
      <point x="1145" y="174"/>
      <point x="1142" y="348" type="curve"/>
      <point x="1139" y="646" type="line" smooth="yes"/>
      <point x="1137" y="728"/>
      <point x="1136" y="832"/>
      <point x="1139" y="871" type="curve"/>
      <point x="1235" y="890" type="line"/>
      <point x="1232" y="942" type="line"/>
      <point x="1009" y="942" type="line"/>
      <point x="664" y="144" type="line"/>
      <point x="683" y="144" type="line"/>
      <point x="345" y="942" type="line"/>
    </contour>
  </outline>
</glyph>
<glyph name="N" format="2">
  <advance width="1067"/>
  <unicode hex="004E"/>
  <note>
N
</note>
  <anchor x="534" y="942" name="above"/>
  <anchor x="534" y="0" name="below"/>
  <outline>
    <contour>
      <point x="802" y="194" type="line"/>
      <point x="813" y="194" type="line"/>
      <point x="292" y="942" type="line"/>
      <point x="88" y="942" type="line"/>
      <point x="85" y="890" type="line"/>
      <point x="181" y="869" type="line"/>
      <point x="186" y="844"/>
      <point x="189" y="800"/>
      <point x="189" y="632" type="curve" smooth="yes"/>
      <point x="189" y="327" type="line" smooth="yes"/>
      <point x="189" y="121"/>
      <point x="182" y="80"/>
      <point x="181" y="72" type="curve"/>
      <point x="85" y="51" type="line"/>
      <point x="88" y="0" type="line"/>
      <point x="380" y="0" type="line"/>
      <point x="383" y="51" type="line"/>
      <point x="276" y="72" type="line"/>
      <point x="274" y="80"/>
      <point x="266" y="126"/>
      <point x="266" y="327" type="curve" smooth="yes"/>
      <point x="266" y="813" type="line"/>
      <point x="255" y="813" type="line"/>
      <point x="821" y="-6" type="line"/>
      <point x="879" y="-6" type="line"/>
      <point x="877" y="69"/>
      <point x="877" y="139"/>
      <point x="877" y="192" type="curve" smooth="yes"/>
      <point x="877" y="611" type="line" smooth="yes"/>
      <point x="877" y="813"/>
      <point x="884" y="861"/>
      <point x="885" y="869" type="curve"/>
      <point x="982" y="890" type="line"/>
      <point x="979" y="942" type="line"/>
      <point x="690" y="942" type="line"/>
      <point x="686" y="890" type="line"/>
      <point x="794" y="869" type="line"/>
      <point x="796" y="861"/>
      <point x="802" y="815"/>
      <point x="802" y="611" type="curve" smooth="yes"/>
    </contour>
  </outline>
</glyph>
<glyph name="O" format="2">
  <advance width="1114.0"/>
  <unicode hex="004F"/>
  <anchor x="554.0" y="1090.0" name="above"/>
  <outline>
    <contour>
      <point x="1055.0" y="516.0" type="curve"/>
      <point x="1055.0" y="799.0"/>
      <point x="860.0" y="1044.0"/>
      <point x="565.0" y="1044.0" type="curve" smooth="yes"/>
      <point x="264.0" y="1044.0"/>
      <point x="53.0" y="809.0"/>
      <point x="53.0" y="514.0" type="curve" smooth="yes"/>
      <point x="53.0" y="221.0"/>
      <point x="248.0" y="-25.0"/>
      <point x="553.0" y="-25.0" type="curve" smooth="yes"/>
      <point x="856.0" y="-25.0"/>
      <point x="1055.0" y="225.0"/>
    </contour>
    <contour>
      <point x="883.0" y="506.0" type="curve"/>
      <point x="883.0" y="287.0"/>
      <point x="819.0" y="31.0"/>
      <point x="551.0" y="31.0" type="curve" smooth="yes"/>
      <point x="295.0" y="31.0"/>
      <point x="227.0" y="313.0"/>
      <point x="227.0" y="518.0" type="curve" smooth="yes"/>
      <point x="227.0" y="727.0"/>
      <point x="293.0" y="991.0"/>
      <point x="549.0" y="991.0" type="curve" smooth="yes"/>
      <point x="827.0" y="991.0"/>
      <point x="883.0" y="731.0"/>
    </contour>
  </outline>
</glyph>
<glyph name="P" format="2">
  <advance width="858.0"/>
  <unicode hex="0050"/>
  <outline>
    <contour>
      <point x="805.0" y="739.0" type="curve"/>
      <point x="805.0" y="969.0"/>
      <point x="584.0" y="1022.0"/>
      <point x="399.0" y="1022.0" type="curve" smooth="yes"/>
      <point x="27.0" y="1022.0" type="line"/>
      <point x="27.0" y="995.0" type="line"/>
      <point x="158.0" y="995.0"/>
      <point x="170.0" y="969.0"/>
      <point x="170.0" y="842.0" type="curve" smooth="yes"/>
      <point x="170.0" y="180.0" type="line" smooth="yes"/>
      <point x="170.0" y="55.0"/>
      <point x="156.0" y="29.0"/>
      <point x="27.0" y="29.0" type="curve"/>
      <point x="27.0" y="0.0" type="line"/>
      <point x="463.0" y="0.0" type="line"/>
      <point x="463.0" y="29.0" type="line"/>
      <point x="336.0" y="29.0"/>
      <point x="315.0" y="55.0"/>
      <point x="315.0" y="180.0" type="curve" smooth="yes"/>
      <point x="315.0" y="465.0" type="line"/>
      <point x="363.0" y="457.0"/>
      <point x="403.0" y="457.0"/>
      <point x="446.0" y="457.0" type="curve" smooth="yes"/>
      <point x="641.0" y="457.0"/>
      <point x="805.0" y="518.0"/>
    </contour>
    <contour>
      <point x="633.0" y="725.0" type="curve"/>
      <point x="633.0" y="612.0"/>
      <point x="559.0" y="506.0"/>
      <point x="440.0" y="506.0" type="curve" smooth="yes"/>
      <point x="397.0" y="506.0"/>
      <point x="356.0" y="510.0"/>
      <point x="315.0" y="516.0" type="curve"/>
      <point x="315.0" y="948.0" type="line"/>
      <point x="348.0" y="954.0"/>
      <point x="383.0" y="963.0"/>
      <point x="416.0" y="963.0" type="curve" smooth="yes"/>
      <point x="555.0" y="963.0"/>
      <point x="633.0" y="856.0"/>
    </contour>
  </outline>
</glyph>
<glyph name="Q" format="2">
  <advance width="1088"/>
  <unicode hex="0051"/>
  <note>
Q
</note>
  <anchor x="542" y="942" name="top"/>
  <outline>
    <contour>
      <point x="552" y="-12" type="curve"/>
      <point x="566" y="-11" type="line"/>
      <point x="818" y="-11"/>
      <point x="999" y="208"/>
      <point x="999" y="475" type="curve" smooth="yes"/>
      <point x="999" y="760"/>
      <point x="818" y="956"/>
      <point x="558" y="956" type="curve" smooth="yes"/>
      <point x="288" y="956"/>
      <point x="88" y="747"/>
      <point x="88" y="470" type="curve" smooth="yes"/>
      <point x="88" y="182"/>
      <point x="279" y="-12"/>
    </contour>
    <contour>
      <point x="956" y="-207" type="curve" smooth="yes"/>
      <point x="1025" y="-207"/>
      <point x="1096" y="-190"/>
      <point x="1152" y="-157" type="curve"/>
      <point x="1139" y="-107" type="line"/>
      <point x="1109" y="-117"/>
      <point x="1076" y="-121"/>
      <point x="1041" y="-121" type="curve" smooth="yes"/>
      <point x="972" y="-121"/>
      <point x="895" y="-102"/>
      <point x="818" y="-60" type="curve" smooth="yes"/>
      <point x="754" y="-27"/>
      <point x="709" y="-4"/>
      <point x="606" y="6" type="curve"/>
      <point x="457" y="6" type="line"/>
      <point x="528" y="-8"/>
      <point x="674" y="-117"/>
      <point x="736" y="-146" type="curve" smooth="yes"/>
      <point x="831" y="-190"/>
      <point x="887" y="-207"/>
    </contour>
    <contour>
      <point x="569" y="56" type="curve" smooth="yes"/>
      <point x="362" y="56"/>
      <point x="213" y="239"/>
      <point x="213" y="492" type="curve" smooth="yes"/>
      <point x="213" y="736"/>
      <point x="337" y="889"/>
      <point x="539" y="889" type="curve" smooth="yes"/>
      <point x="741" y="889"/>
      <point x="881" y="702"/>
      <point x="881" y="438" type="curve" smooth="yes"/>
      <point x="881" y="210"/>
      <point x="754" y="56"/>
    </contour>
  </outline>
</glyph>
<glyph name="R" format="2">
  <advance width="868"/>
  <unicode hex="0052"/>
  <note>
R
</note>
  <anchor x="483" y="0" name="bottom"/>
  <anchor x="406" y="942" name="top"/>
  <outline>
    <contour>
      <point x="93" y="0" type="line"/>
      <point x="385" y="0" type="line"/>
      <point x="388" y="51" type="line"/>
      <point x="292" y="75" type="line"/>
      <point x="288" y="104"/>
      <point x="285" y="136"/>
      <point x="285" y="303" type="curve" smooth="yes"/>
      <point x="285" y="666" type="line" smooth="yes"/>
      <point x="285" y="893"/>
      <point x="285" y="871"/>
      <point x="288" y="881" type="curve"/>
      <point x="396" y="881" type="line" smooth="yes"/>
      <point x="524" y="881"/>
      <point x="593" y="818"/>
      <point x="593" y="698" type="curve" smooth="yes"/>
      <point x="593" y="576"/>
      <point x="513" y="507"/>
      <point x="369" y="507" type="curve" smooth="yes"/>
      <point x="263" y="507" type="line"/>
      <point x="263" y="444" type="line"/>
      <point x="369" y="444" type="line" smooth="yes"/>
      <point x="561" y="444"/>
      <point x="698" y="556"/>
      <point x="698" y="715" type="curve" smooth="yes"/>
      <point x="698" y="860"/>
      <point x="590" y="942"/>
      <point x="410" y="942" type="curve" smooth="yes"/>
      <point x="91" y="942" type="line"/>
      <point x="88" y="890" type="line"/>
      <point x="184" y="869" type="line"/>
      <point x="187" y="857"/>
      <point x="189" y="789"/>
      <point x="189" y="637" type="curve" smooth="yes"/>
      <point x="189" y="303" type="line" smooth="yes"/>
      <point x="189" y="194"/>
      <point x="186" y="104"/>
      <point x="186" y="75" type="curve"/>
      <point x="89" y="51" type="line"/>
    </contour>
    <contour>
      <point x="816" y="-14" type="curve" smooth="yes"/>
      <point x="834" y="-14"/>
      <point x="857" y="-14"/>
      <point x="871" y="-9" type="curve"/>
      <point x="873" y="38" type="line"/>
      <point x="789" y="51"/>
      <point x="735" y="91"/>
      <point x="635" y="242" type="curve" smooth="yes"/>
      <point x="470" y="492" type="line"/>
      <point x="377" y="471" type="line"/>
      <point x="495" y="272" type="line" smooth="yes"/>
      <point x="629" y="49"/>
      <point x="693" y="-14"/>
    </contour>
  </outline>
</glyph>
<glyph name="S" format="2">
  <advance width="747"/>
  <unicode hex="0053"/>
  <note>
S
</note>
  <anchor x="377" y="942" name="above"/>
  <anchor x="377" y="0" name="below"/>
  <outline>
    <contour>
      <point x="356" y="-14" type="curve" smooth="yes"/>
      <point x="539" y="-14"/>
      <point x="675" y="94"/>
      <point x="675" y="242" type="curve" smooth="yes"/>
      <point x="675" y="524"/>
      <point x="200" y="497"/>
      <point x="200" y="738" type="curve" smooth="yes"/>
      <point x="200" y="828"/>
      <point x="276" y="892"/>
      <point x="394" y="892" type="curve" smooth="yes"/>
      <point x="457" y="892"/>
      <point x="500" y="881"/>
      <point x="534" y="857" type="curve"/>
      <point x="576" y="733" type="line"/>
      <point x="629" y="739" type="line"/>
      <point x="619" y="922" type="line"/>
      <point x="566" y="945"/>
      <point x="500" y="958"/>
      <point x="412" y="958" type="curve" smooth="yes"/>
      <point x="229" y="958"/>
      <point x="96" y="853"/>
      <point x="96" y="706" type="curve" smooth="yes"/>
      <point x="96" y="410"/>
      <point x="569" y="441"/>
      <point x="569" y="211" type="curve" smooth="yes"/>
      <point x="569" y="113"/>
      <point x="491" y="54"/>
      <point x="381" y="54" type="curve" smooth="yes"/>
      <point x="301" y="54"/>
      <point x="239" y="75"/>
      <point x="184" y="110" type="curve"/>
      <point x="144" y="242" type="line"/>
      <point x="91" y="235" type="line"/>
      <point x="101" y="43" type="line"/>
      <point x="157" y="11"/>
      <point x="261" y="-14"/>
    </contour>
  </outline>
</glyph>
<glyph name="T" format="2">
  <advance width="853"/>
  <unicode hex="0054"/>
  <note>
T
</note>
  <anchor x="426" y="942" name="above"/>
  <anchor x="428" y="0" name="below"/>
  <anchor x="426" y="486" name="stroke"/>
  <outline>
    <contour>
      <point x="789" y="948" type="line"/>
      <point x="735" y="943"/>
      <point x="714" y="942"/>
      <point x="667" y="942" type="curve" smooth="yes"/>
      <point x="184" y="942" type="line" smooth="yes"/>
      <point x="138" y="942"/>
      <point x="115" y="943"/>
      <point x="62" y="948" type="curve"/>
      <point x="27" y="699" type="line"/>
      <point x="85" y="690" type="line"/>
      <point x="155" y="871" type="line"/>
      <point x="168" y="874"/>
      <point x="189" y="876"/>
      <point x="203" y="876" type="curve" smooth="yes"/>
      <point x="268" y="876" type="line" smooth="yes"/>
      <point x="292" y="876"/>
      <point x="340" y="876"/>
      <point x="375" y="874" type="curve"/>
      <point x="377" y="847"/>
      <point x="377" y="701"/>
      <point x="377" y="597" type="curve" smooth="yes"/>
      <point x="377" y="348" type="line" smooth="yes"/>
      <point x="377" y="203"/>
      <point x="373" y="94"/>
      <point x="373" y="72" type="curve"/>
      <point x="240" y="54" type="line"/>
      <point x="243" y="0" type="line"/>
      <point x="609" y="0" type="line"/>
      <point x="613" y="54" type="line"/>
      <point x="479" y="72" type="line"/>
      <point x="479" y="94"/>
      <point x="476" y="203"/>
      <point x="476" y="348" type="curve" smooth="yes"/>
      <point x="476" y="597" type="line" smooth="yes"/>
      <point x="476" y="701"/>
      <point x="476" y="847"/>
      <point x="478" y="874" type="curve"/>
      <point x="513" y="876"/>
      <point x="563" y="876"/>
      <point x="585" y="876" type="curve" smooth="yes"/>
      <point x="645" y="876" type="line" smooth="yes"/>
      <point x="659" y="876"/>
      <point x="685" y="874"/>
      <point x="698" y="871" type="curve"/>
      <point x="767" y="691" type="line"/>
      <point x="824" y="699" type="line"/>
    </contour>
  </outline>
</glyph>
<glyph name="U" format="2">
  <advance width="1041"/>
  <unicode hex="0055"/>
  <note>
U
</note>
  <anchor x="534" y="942" name="above"/>
  <anchor x="532" y="0" name="below"/>
  <anchor x="643" y="0" name="ogonek"/>
  <anchor x="1009" y="942" name="topright"/>
  <outline>
    <contour>
      <point x="83" y="942" type="line"/>
      <point x="80" y="890" type="line"/>
      <point x="176" y="868" type="line"/>
      <point x="178" y="858"/>
      <point x="182" y="831"/>
      <point x="182" y="637" type="curve" smooth="yes"/>
      <point x="182" y="335" type="line" smooth="yes"/>
      <point x="182" y="113"/>
      <point x="316" y="-14"/>
      <point x="532" y="-14" type="curve" smooth="yes"/>
      <point x="712" y="-14"/>
      <point x="860" y="91"/>
      <point x="860" y="367" type="curve" smooth="yes"/>
      <point x="860" y="608" type="line" smooth="yes"/>
      <point x="860" y="826"/>
      <point x="863" y="858"/>
      <point x="863" y="868" type="curve"/>
      <point x="959" y="890" type="line"/>
      <point x="954" y="942" type="line"/>
      <point x="664" y="942" type="line"/>
      <point x="661" y="890" type="line"/>
      <point x="773" y="868" type="line"/>
      <point x="778" y="839"/>
      <point x="781" y="738"/>
      <point x="781" y="608" type="curve" smooth="yes"/>
      <point x="781" y="365" type="line" smooth="yes"/>
      <point x="781" y="146"/>
      <point x="678" y="70"/>
      <point x="542" y="70" type="curve" smooth="yes"/>
      <point x="396" y="70"/>
      <point x="287" y="141"/>
      <point x="284" y="351" type="curve"/>
      <point x="284" y="637" type="line"/>
      <point x="282" y="834"/>
      <point x="287" y="863"/>
      <point x="288" y="868" type="curve"/>
      <point x="385" y="890" type="line"/>
      <point x="381" y="942" type="line"/>
    </contour>
  </outline>
</glyph>
<glyph name="V" format="2">
  <advance width="1114.0"/>
  <unicode hex="0056"/>
  <outline>
    <contour>
      <point x="1096.0" y="1022.0" type="line"/>
      <point x="780.0" y="1022.0" type="line"/>
      <point x="780.0" y="995.0" type="line"/>
      <point x="821.0" y="987.0"/>
      <point x="889.0" y="973.0"/>
      <point x="889.0" y="920.0" type="curve" smooth="yes"/>
      <point x="889.0" y="889.0"/>
      <point x="866.0" y="831.0"/>
      <point x="854.0" y="803.0" type="curve" smooth="yes"/>
      <point x="612.0" y="209.0" type="line"/>
      <point x="352.0" y="807.0" type="line" smooth="yes"/>
      <point x="332.0" y="853.0"/>
      <point x="317.0" y="887.0"/>
      <point x="317.0" y="924.0" type="curve" smooth="yes"/>
      <point x="317.0" y="983.0"/>
      <point x="387.0" y="992.0"/>
      <point x="430.0" y="995.0" type="curve"/>
      <point x="430.0" y="1022.0" type="line"/>
      <point x="14.0" y="1022.0" type="line"/>
      <point x="14.0" y="995.0" type="line"/>
      <point x="113.0" y="985.0"/>
      <point x="139.0" y="944.0"/>
      <point x="176.0" y="858.0" type="curve" smooth="yes"/>
      <point x="559.0" y="-25.0" type="line"/>
      <point x="586.0" y="-25.0" type="line"/>
      <point x="942.0" y="848.0" type="line"/>
      <point x="973.0" y="925.0"/>
      <point x="1010.0" y="981.0"/>
      <point x="1096.0" y="995.0" type="curve"/>
    </contour>
  </outline>
</glyph>
<glyph name="W" format="2">
  <advance width="1484"/>
  <unicode hex="0057"/>
  <note>
W
</note>
  <anchor x="741" y="942" name="above"/>
  <anchor x="741" y="0" name="below"/>
  <outline>
    <contour>
      <point x="776" y="741" type="line"/>
      <point x="741" y="865" type="line"/>
      <point x="470" y="133" type="line"/>
      <point x="479" y="133" type="line"/>
      <point x="213" y="871" type="line"/>
      <point x="293" y="890" type="line"/>
      <point x="290" y="942" type="line"/>
      <point x="22" y="942" type="line"/>
      <point x="19" y="890" type="line"/>
      <point x="99" y="869" type="line"/>
      <point x="422" y="-4" type="line"/>
      <point x="483" y="-4" type="line"/>
    </contour>
    <contour>
      <point x="993" y="-4" type="line"/>
      <point x="1054" y="-4" type="line"/>
      <point x="1391" y="869" type="line"/>
      <point x="1471" y="890" type="line"/>
      <point x="1468" y="942" type="line"/>
      <point x="1187" y="942" type="line"/>
      <point x="1184" y="890" type="line"/>
      <point x="1298" y="869" type="line"/>
      <point x="1036" y="133" type="line"/>
      <point x="1051" y="133" type="line"/>
      <point x="791" y="871" type="line"/>
      <point x="885" y="890" type="line"/>
      <point x="882" y="942" type="line"/>
      <point x="601" y="942" type="line"/>
      <point x="598" y="890" type="line"/>
      <point x="678" y="869" type="line"/>
    </contour>
  </outline>
</glyph>
<glyph name="X" format="2">
  <advance width="918"/>
  <unicode hex="0058"/>
  <note>
X
</note>
  <anchor x="455" y="942" name="above"/>
  <anchor x="455" y="0" name="below"/>
  <outline>
    <contour>
      <point x="905" y="0" type="line"/>
      <point x="908" y="51" type="line"/>
      <point x="828" y="75" type="line"/>
      <point x="508" y="511" type="line"/>
      <point x="465" y="569" type="line"/>
      <point x="250" y="869" type="line"/>
      <point x="356" y="890" type="line"/>
      <point x="354" y="942" type="line"/>
      <point x="36" y="942" type="line"/>
      <point x="33" y="890" type="line"/>
      <point x="115" y="869" type="line"/>
      <point x="401" y="479" type="line"/>
      <point x="444" y="422" type="line"/>
      <point x="694" y="75" type="line"/>
      <point x="598" y="51" type="line"/>
      <point x="601" y="0" type="line"/>
    </contour>
    <contour>
      <point x="682" y="869" type="line"/>
      <point x="465" y="569" type="line"/>
      <point x="401" y="479" type="line"/>
      <point x="104" y="75" type="line"/>
      <point x="22" y="51" type="line"/>
      <point x="24" y="0" type="line"/>
      <point x="308" y="0" type="line"/>
      <point x="311" y="51" type="line"/>
      <point x="194" y="75" type="line"/>
      <point x="444" y="422" type="line"/>
      <point x="508" y="511" type="line"/>
      <point x="773" y="869" type="line"/>
      <point x="855" y="890" type="line"/>
      <point x="852" y="942" type="line"/>
      <point x="558" y="942" type="line"/>
      <point x="555" y="890" type="line"/>
    </contour>
  </outline>
</glyph>
<glyph name="Y" format="2">
  <advance width="837"/>
  <unicode hex="0059"/>
  <note>
Y
</note>
  <anchor x="418" y="0" name="bottom"/>
  <anchor x="418" y="942" name="top"/>
  <anchor x="33" y="942" name="topleft"/>
  <outline>
    <contour>
      <point x="763" y="869" type="line"/>
      <point x="844" y="890" type="line"/>
      <point x="842" y="942" type="line"/>
      <point x="561" y="942" type="line"/>
      <point x="558" y="890" type="line"/>
      <point x="670" y="869" type="line"/>
      <point x="433" y="476" type="line"/>
      <point x="447" y="476" type="line"/>
      <point x="195" y="869" type="line"/>
      <point x="292" y="890" type="line"/>
      <point x="288" y="942" type="line"/>
      <point x="-1" y="942" type="line"/>
      <point x="-3" y="890" type="line"/>
      <point x="77" y="869" type="line"/>
      <point x="393" y="377" type="line"/>
      <point x="370" y="460" type="line"/>
      <point x="370" y="312" type="line" smooth="yes"/>
      <point x="370" y="112"/>
      <point x="365" y="83"/>
      <point x="364" y="72" type="curve"/>
      <point x="251" y="52" type="line"/>
      <point x="255" y="0" type="line"/>
      <point x="581" y="0" type="line"/>
      <point x="584" y="52" type="line"/>
      <point x="471" y="72" type="line"/>
      <point x="471" y="83"/>
      <point x="467" y="112"/>
      <point x="467" y="312" type="curve" smooth="yes"/>
      <point x="467" y="460" type="line"/>
      <point x="441" y="377" type="line"/>
    </contour>
  </outline>
</glyph>
<glyph name="Z" format="2">
  <advance width="844"/>
  <unicode hex="005A"/>
  <note>
Z
</note>
  <anchor x="425" y="0" name="bottom"/>
  <anchor x="425" y="942" name="top"/>
  <outline>
    <contour>
      <point x="765" y="-6" type="curve"/>
      <point x="799" y="247" type="line"/>
      <point x="747" y="251" type="line"/>
      <point x="678" y="77" type="line"/>
      <point x="666" y="73"/>
      <point x="645" y="72"/>
      <point x="625" y="72" type="curve" smooth="yes"/>
      <point x="221" y="72" type="line"/>
      <point x="221" y="22" type="line"/>
      <point x="757" y="900" type="line"/>
      <point x="757" y="945" type="line"/>
      <point x="717" y="943"/>
      <point x="677" y="942"/>
      <point x="637" y="942" type="curve" smooth="yes"/>
      <point x="207" y="942" type="line" smooth="yes"/>
      <point x="166" y="942"/>
      <point x="131" y="942"/>
      <point x="85" y="943" type="curve"/>
      <point x="86" y="707" type="line"/>
      <point x="139" y="707" type="line"/>
      <point x="157" y="868" type="line"/>
      <point x="182" y="873"/>
      <point x="211" y="873"/>
      <point x="250" y="873" type="curve" smooth="yes"/>
      <point x="653" y="873" type="line"/>
      <point x="646" y="918" type="line"/>
      <point x="112" y="43" type="line"/>
      <point x="112" y="-3" type="line"/>
      <point x="150" y="-1"/>
      <point x="179" y="0"/>
      <point x="219" y="0" type="curve" smooth="yes"/>
      <point x="638" y="0" type="line" smooth="yes"/>
      <point x="685" y="0"/>
      <point x="711" y="-1"/>
    </contour>
  </outline>
</glyph>
<glyph name="bracketleft" format="2">
  <advance width="690.0"/>
  <unicode hex="005B"/>
  <outline>
    <contour>
      <point x="483.0" y="-162.0" type="line"/>
      <point x="295.0" y="-131.0" type="line"/>
      <point x="295.0" y="979.0" type="line"/>
      <point x="483.0" y="1008.0" type="line"/>
      <point x="469.0" y="1087.0" type="line"/>
      <point x="193.0" y="1047.0" type="line"/>
      <point x="193.0" y="-201.0" type="line"/>
      <point x="469.0" y="-242.0" type="line"/>
    </contour>
  </outline>
</glyph>
<glyph name="backslash" format="2">
  <advance width="548"/>
  <unicode hex="005C"/>
  <note>
backslash
</note>
  <outline>
    <contour>
      <point x="524" y="-288" type="line"/>
      <point x="41" y="1168" type="line"/>
      <point x="-40" y="1168" type="line"/>
      <point x="442" y="-288" type="line"/>
    </contour>
  </outline>
</glyph>
<glyph name="bracketright" format="2">
  <advance width="690.0"/>
  <unicode hex="005D"/>
  <outline>
    <contour>
      <point x="483.0" y="-205.0" type="line"/>
      <point x="483.0" y="1044.0" type="line"/>
      <point x="207.0" y="1085.0" type="line"/>
      <point x="188.0" y="1006.0" type="line"/>
      <point x="381.0" y="975.0" type="line"/>
      <point x="381.0" y="-137.0" type="line"/>
      <point x="188.0" y="-168.0" type="line"/>
      <point x="207.0" y="-246.0" type="line"/>
    </contour>
  </outline>
</glyph>
<glyph name="asciicircum" format="2">
  <advance width="866"/>
  <unicode hex="005E"/>
  <outline>
    <contour>
      <point x="476" y="898" type="line"/>
      <point x="394" y="898" type="line"/>
      <point x="75" y="202" type="line"/>
      <point x="163" y="202" type="line"/>
      <point x="460" y="852" type="line"/>
      <point x="409" y="852" type="line"/>
      <point x="704" y="202" type="line"/>
      <point x="792" y="202" type="line"/>
    </contour>
  </outline>
</glyph>
<glyph name="underscore" format="2">
  <advance width="590"/>
  <unicode hex="005F"/>
  <note>
underscore
</note>
  <outline>
    <contour>
      <point x="24" y="-81" type="line"/>
      <point x="566" y="-81" type="line"/>
      <point x="566" y="0" type="line"/>
      <point x="24" y="0" type="line"/>
    </contour>
  </outline>
</glyph>
<glyph name="grave" format="2">
  <advance width="580.0"/>
  <unicode hex="0060"/>
  <anchor x="294.0" y="760.0" name="_above"/>
  <outline>
    <contour>
      <point x="442.0" y="786.0" type="line"/>
      <point x="227.0" y="1001.0" type="line" smooth="yes"/>
      <point x="194.0" y="1034.0"/>
      <point x="164.0" y="1051.0"/>
      <point x="137.0" y="1051.0" type="curve" smooth="yes"/>
      <point x="106.0" y="1051.0"/>
      <point x="90.0" y="1032.0"/>
      <point x="90.0" y="993.0" type="curve" smooth="yes"/>
      <point x="90.0" y="977.0"/>
      <point x="113.0" y="954.0"/>
      <point x="158.0" y="926.0" type="curve" smooth="yes"/>
      <point x="379.0" y="786.0" type="line"/>
    </contour>
  </outline>
</glyph>
<glyph name="a" format="2">
  <advance width="686.0"/>
  <unicode hex="0061"/>
  <anchor x="336.0" y="760.0" name="above"/>
  <outline>
    <contour>
      <point x="684.0" y="143.0" type="line"/>
      <point x="670.0" y="129.0"/>
      <point x="625.0" y="82.0"/>
      <point x="602.0" y="82.0" type="curve" smooth="yes"/>
      <point x="580.0" y="82.0"/>
      <point x="573.0" y="100.0"/>
      <point x="569.0" y="119.0" type="curve" smooth="yes"/>
      <point x="563.0" y="156.0"/>
      <point x="565.0" y="201.0"/>
      <point x="565.0" y="240.0" type="curve" smooth="yes"/>
      <point x="565.0" y="475.0" type="line" smooth="yes"/>
      <point x="565.0" y="647.0"/>
      <point x="508.0" y="711.0"/>
      <point x="334.0" y="711.0" type="curve" smooth="yes"/>
      <point x="231.0" y="711.0"/>
      <point x="82.0" y="662.0"/>
      <point x="82.0" y="537.0" type="curve" smooth="yes"/>
      <point x="82.0" y="494.0"/>
      <point x="98.0" y="465.0"/>
      <point x="145.0" y="465.0" type="curve" smooth="yes"/>
      <point x="195.0" y="465.0"/>
      <point x="209.0" y="492.0"/>
      <point x="209.0" y="537.0" type="curve" smooth="yes"/>
      <point x="209.0" y="612.0"/>
      <point x="219.0" y="666.0"/>
      <point x="311.0" y="666.0" type="curve" smooth="yes"/>
      <point x="422.0" y="666.0"/>
      <point x="440.0" y="578.0"/>
      <point x="440.0" y="485.0" type="curve" smooth="yes"/>
      <point x="440.0" y="457.0" type="line"/>
      <point x="311.0" y="414.0"/>
      <point x="55.0" y="332.0"/>
      <point x="55.0" y="164.0" type="curve" smooth="yes"/>
      <point x="55.0" y="63.0"/>
      <point x="115.0" y="-14.0"/>
      <point x="219.0" y="-14.0" type="curve" smooth="yes"/>
      <point x="309.0" y="-14.0"/>
      <point x="373.0" y="47.0"/>
      <point x="440.0" y="100.0" type="curve"/>
      <point x="440.0" y="45.0"/>
      <point x="455.0" y="-14.0"/>
      <point x="520.0" y="-14.0" type="curve" smooth="yes"/>
      <point x="590.0" y="-14.0"/>
      <point x="647.0" y="49.0"/>
      <point x="684.0" y="100.0" type="curve"/>
    </contour>
    <contour>
      <point x="440.0" y="150.0" type="line"/>
      <point x="399.0" y="117.0"/>
      <point x="342.0" y="74.0"/>
      <point x="289.0" y="74.0" type="curve" smooth="yes"/>
      <point x="221.0" y="74.0"/>
      <point x="182.0" y="139.0"/>
      <point x="182.0" y="199.0" type="curve" smooth="yes"/>
      <point x="182.0" y="319.0"/>
      <point x="348.0" y="377.0"/>
      <point x="440.0" y="414.0" type="curve"/>
    </contour>
  </outline>
</glyph>
<glyph name="b" format="2">
  <advance width="821"/>
  <unicode hex="0062"/>
  <note>
b
</note>
  <anchor x="412" y="0" name="bottom"/>
  <anchor x="412" y="1059" name="top"/>
  <outline>
    <contour>
      <point x="136" y="41" type="curve"/>
      <point x="192" y="11"/>
      <point x="287" y="-12"/>
      <point x="373" y="-12" type="curve" smooth="yes"/>
      <point x="566" y="-12"/>
      <point x="751" y="133"/>
      <point x="751" y="365" type="curve" smooth="yes"/>
      <point x="751" y="576"/>
      <point x="614" y="694"/>
      <point x="455" y="694" type="curve" smooth="yes"/>
      <point x="359" y="694"/>
      <point x="277" y="650"/>
      <point x="223" y="572" type="curve"/>
      <point x="218" y="574" type="line"/>
      <point x="221" y="837"/>
      <point x="221" y="956"/>
      <point x="224" y="1091" type="curve"/>
      <point x="200" y="1110" type="line"/>
      <point x="11" y="1051" type="line"/>
      <point x="14" y="1009" type="line"/>
      <point x="133" y="993" type="line"/>
      <point x="134" y="954"/>
      <point x="138" y="706"/>
      <point x="138" y="584" type="curve"/>
      <point x="138" y="268" type="line"/>
      <point x="138" y="189"/>
      <point x="138" y="154"/>
    </contour>
    <contour>
      <point x="407" y="51" type="curve" smooth="yes"/>
      <point x="324" y="51"/>
      <point x="268" y="72"/>
      <point x="219" y="104" type="curve"/>
      <point x="219" y="508" type="line"/>
      <point x="271" y="581"/>
      <point x="343" y="614"/>
      <point x="415" y="614" type="curve" smooth="yes"/>
      <point x="550" y="614"/>
      <point x="653" y="524"/>
      <point x="650" y="345" type="curve" smooth="yes"/>
      <point x="646" y="163"/>
      <point x="545" y="51"/>
    </contour>
  </outline>
</glyph>
<glyph name="c" format="2">
  <advance width="654"/>
  <unicode hex="0063"/>
  <note>
c
</note>
  <anchor x="386" y="682" name="above"/>
  <anchor x="386" y="0" name="below"/>
  <outline>
    <contour>
      <point x="388" y="-12" type="curve" smooth="yes"/>
      <point x="503" y="-12"/>
      <point x="585" y="35"/>
      <point x="646" y="136" type="curve"/>
      <point x="608" y="168" type="line"/>
      <point x="555" y="101"/>
      <point x="502" y="72"/>
      <point x="410" y="72" type="curve" smooth="yes"/>
      <point x="276" y="72"/>
      <point x="173" y="170"/>
      <point x="173" y="346" type="curve" smooth="yes"/>
      <point x="173" y="571"/>
      <point x="322" y="667"/>
      <point x="463" y="637" type="curve"/>
      <point x="418" y="653" type="line"/>
      <point x="484" y="579" type="line" smooth="yes"/>
      <point x="520" y="540"/>
      <point x="534" y="531"/>
      <point x="566" y="531" type="curve" smooth="yes"/>
      <point x="601" y="531"/>
      <point x="617" y="553"/>
      <point x="617" y="582" type="curve" smooth="yes"/>
      <point x="617" y="637"/>
      <point x="555" y="694"/>
      <point x="415" y="694" type="curve" smooth="yes"/>
      <point x="223" y="694"/>
      <point x="70" y="542"/>
      <point x="70" y="330" type="curve" smooth="yes"/>
      <point x="70" y="107"/>
      <point x="216" y="-12"/>
    </contour>
  </outline>
</glyph>
<glyph name="d" format="2">
  <advance width="850"/>
  <unicode hex="0064"/>
  <note>
d
</note>
  <anchor x="444" y="0" name="bottom"/>
  <anchor x="426" y="341" name="center"/>
  <anchor x="550" y="832" name="stroke"/>
  <anchor x="426" y="1059" name="top"/>
  <anchor x="752" y="1104" name="topright"/>
  <outline>
    <contour>
      <point x="617" y="-16" type="line"/>
      <point x="797" y="24" type="line"/>
      <point x="797" y="69" type="line"/>
      <point x="696" y="96" type="line"/>
      <point x="693" y="125"/>
      <point x="686" y="215"/>
      <point x="686" y="324" type="curve"/>
      <point x="688" y="693" type="line" smooth="yes"/>
      <point x="688" y="832"/>
      <point x="688" y="958"/>
      <point x="693" y="1091" type="curve"/>
      <point x="669" y="1110" type="line"/>
      <point x="468" y="1051" type="line"/>
      <point x="471" y="1006" type="line"/>
      <point x="600" y="982" type="line"/>
      <point x="601" y="946"/>
      <point x="605" y="712"/>
      <point x="605" y="637" type="curve"/>
      <point x="555" y="678"/>
      <point x="476" y="696"/>
      <point x="407" y="696" type="curve" smooth="yes"/>
      <point x="223" y="696"/>
      <point x="69" y="537"/>
      <point x="69" y="317" type="curve" smooth="yes"/>
      <point x="69" y="126"/>
      <point x="199" y="-11"/>
      <point x="386" y="-11" type="curve" smooth="yes"/>
      <point x="465" y="-11"/>
      <point x="531" y="20"/>
      <point x="600" y="109" type="curve"/>
      <point x="605" y="109" type="line"/>
      <point x="603" y="3" type="line"/>
    </contour>
    <contour>
      <point x="409" y="73" type="curve" smooth="yes"/>
      <point x="276" y="73"/>
      <point x="170" y="176"/>
      <point x="170" y="351" type="curve" smooth="yes"/>
      <point x="170" y="515"/>
      <point x="255" y="637"/>
      <point x="406" y="637" type="curve" smooth="yes"/>
      <point x="479" y="637"/>
      <point x="558" y="603"/>
      <point x="603" y="515" type="curve"/>
      <point x="603" y="176" type="line"/>
      <point x="536" y="96"/>
      <point x="484" y="73"/>
    </contour>
  </outline>
</glyph>
<glyph name="e" format="2">
  <advance width="686.0"/>
  <unicode hex="0065"/>
  <anchor x="375.0" y="760.0" name="above"/>
  <outline>
    <contour>
      <point x="618.0" y="268.0" type="line"/>
      <point x="582.0" y="174.0"/>
      <point x="522.0" y="102.0"/>
      <point x="416.0" y="102.0" type="curve" smooth="yes"/>
      <point x="242.0" y="102.0"/>
      <point x="164.0" y="281.0"/>
      <point x="164.0" y="430.0" type="curve"/>
      <point x="641.0" y="430.0" type="line"/>
      <point x="641.0" y="592.0"/>
      <point x="543.0" y="711.0"/>
      <point x="377.0" y="711.0" type="curve" smooth="yes"/>
      <point x="160.0" y="711.0"/>
      <point x="57.0" y="537.0"/>
      <point x="57.0" y="338.0" type="curve" smooth="yes"/>
      <point x="57.0" y="158.0"/>
      <point x="160.0" y="-23.0"/>
      <point x="358.0" y="-23.0" type="curve" smooth="yes"/>
      <point x="510.0" y="-23.0"/>
      <point x="621.0" y="109.0"/>
      <point x="641.0" y="252.0" type="curve"/>
    </contour>
    <contour>
      <point x="164.0" y="473.0" type="line"/>
      <point x="172.0" y="567.0"/>
      <point x="231.0" y="657.0"/>
      <point x="334.0" y="657.0" type="curve" smooth="yes"/>
      <point x="438.0" y="657.0"/>
      <point x="483.0" y="565.0"/>
      <point x="483.0" y="473.0" type="curve"/>
    </contour>
  </outline>
</glyph>
<glyph name="g" format="2">
  <advance width="780"/>
  <unicode hex="0067"/>
  <note>
g
</note>
  <anchor x="385" y="-353" name="bottom"/>
  <anchor x="381" y="682" name="top"/>
  <outline>
    <contour>
      <point x="369" y="-365" type="curve" smooth="yes"/>
      <point x="560" y="-365"/>
      <point x="712" y="-253"/>
      <point x="712" y="-109" type="curve" smooth="yes"/>
      <point x="712" y="3"/>
      <point x="632" y="56"/>
      <point x="492" y="70" type="curve" smooth="yes"/>
      <point x="303" y="89" type="line" smooth="yes"/>
      <point x="245" y="96"/>
      <point x="211" y="121"/>
      <point x="211" y="155" type="curve" smooth="yes"/>
      <point x="211" y="176"/>
      <point x="231" y="200"/>
      <point x="280" y="234" type="curve"/>
      <point x="261" y="269" type="line"/>
      <point x="171" y="223"/>
      <point x="120" y="166"/>
      <point x="120" y="113" type="curve" smooth="yes"/>
      <point x="120" y="57"/>
      <point x="182" y="8"/>
      <point x="247" y="8" type="curve"/>
      <point x="276" y="3" type="line"/>
      <point x="433" y="-9" type="line" smooth="yes"/>
      <point x="564" y="-19"/>
      <point x="619" y="-56"/>
      <point x="619" y="-136" type="curve" smooth="yes"/>
      <point x="619" y="-240"/>
      <point x="520" y="-311"/>
      <point x="372" y="-311" type="curve" smooth="yes"/>
      <point x="248" y="-311"/>
      <point x="171" y="-258"/>
      <point x="171" y="-166" type="curve" smooth="yes"/>
      <point x="171" y="-99"/>
      <point x="213" y="-41"/>
      <point x="293" y="3" type="curve"/>
      <point x="237" y="19" type="line"/>
      <point x="110" y="-57"/>
      <point x="69" y="-115"/>
      <point x="69" y="-189" type="curve" smooth="yes"/>
      <point x="69" y="-295"/>
      <point x="187" y="-365"/>
    </contour>
    <contour>
      <point x="385" y="203" type="curve" smooth="yes"/>
      <point x="529" y="203"/>
      <point x="650" y="314"/>
      <point x="650" y="452" type="curve" smooth="yes"/>
      <point x="650" y="593"/>
      <point x="536" y="693"/>
      <point x="380" y="693" type="curve" smooth="yes"/>
      <point x="224" y="693"/>
      <point x="107" y="579"/>
      <point x="107" y="431" type="curve" smooth="yes"/>
      <point x="107" y="301"/>
      <point x="226" y="203"/>
    </contour>
    <contour>
      <point x="391" y="255" type="curve" smooth="yes"/>
      <point x="282" y="255"/>
      <point x="210" y="335"/>
      <point x="210" y="454" type="curve" smooth="yes"/>
      <point x="210" y="566"/>
      <point x="279" y="645"/>
      <point x="378" y="645" type="curve" smooth="yes"/>
      <point x="481" y="645"/>
      <point x="550" y="563"/>
      <point x="550" y="438" type="curve" smooth="yes"/>
      <point x="550" y="327"/>
      <point x="489" y="255"/>
    </contour>
    <contour>
      <point x="751" y="592" type="line"/>
      <point x="751" y="682" type="line"/>
      <point x="507" y="659" type="line"/>
      <point x="571" y="601" type="line"/>
    </contour>
  </outline>
</glyph>
<glyph name="h" format="2">
  <advance width="855"/>
  <unicode hex="0068"/>
  <note>
h
</note>
  <anchor x="431" y="0" name="bottom"/>
  <anchor x="311" y="832" name="stroke"/>
  <anchor x="203" y="1059" name="top"/>
  <outline>
    <contour>
      <point x="60" y="0" type="line"/>
      <point x="348" y="0" type="line"/>
      <point x="351" y="49" type="line"/>
      <point x="251" y="72" type="line"/>
      <point x="248" y="88"/>
      <point x="245" y="158"/>
      <point x="245" y="264" type="curve" smooth="yes"/>
      <point x="245" y="510" type="line"/>
      <point x="293" y="581"/>
      <point x="362" y="622"/>
      <point x="441" y="622" type="curve" smooth="yes"/>
      <point x="529" y="622"/>
      <point x="616" y="563"/>
      <point x="616" y="417" type="curve" smooth="yes"/>
      <point x="616" y="226" type="line" smooth="yes"/>
      <point x="616" y="123"/>
      <point x="613" y="96"/>
      <point x="611" y="72" type="curve"/>
      <point x="518" y="49" type="line"/>
      <point x="521" y="0" type="line"/>
      <point x="805" y="0" type="line"/>
      <point x="807" y="49" type="line"/>
      <point x="707" y="72" type="line"/>
      <point x="702" y="97"/>
      <point x="698" y="162"/>
      <point x="698" y="242" type="curve" smooth="yes"/>
      <point x="698" y="420" type="line" smooth="yes"/>
      <point x="698" y="614"/>
      <point x="582" y="694"/>
      <point x="473" y="694" type="curve" smooth="yes"/>
      <point x="391" y="694"/>
      <point x="327" y="666"/>
      <point x="248" y="584" type="curve"/>
      <point x="243" y="585" type="line"/>
      <point x="245" y="832"/>
      <point x="247" y="956"/>
      <point x="250" y="1091" type="curve"/>
      <point x="226" y="1110" type="line"/>
      <point x="36" y="1051" type="line"/>
      <point x="40" y="1009" type="line"/>
      <point x="158" y="993" type="line"/>
      <point x="160" y="971"/>
      <point x="163" y="728"/>
      <point x="163" y="584" type="curve" smooth="yes"/>
      <point x="163" y="385" type="line" smooth="yes"/>
      <point x="163" y="173"/>
      <point x="162" y="110"/>
      <point x="157" y="72" type="curve"/>
      <point x="57" y="49" type="line"/>
    </contour>
  </outline>
</glyph>
<glyph name="j" format="2">
  <advance width="430.0"/>
  <unicode hex="006A"/>
  <outline>
    <contour>
      <point x="301.0" y="926.0" type="curve"/>
      <point x="301.0" y="967.0"/>
      <point x="264.0" y="1001.0"/>
      <point x="223.0" y="1001.0" type="curve" smooth="yes"/>
      <point x="182.0" y="1001.0"/>
      <point x="147.0" y="967.0"/>
      <point x="147.0" y="926.0" type="curve" smooth="yes"/>
      <point x="147.0" y="881.0"/>
      <point x="180.0" y="848.0"/>
      <point x="223.0" y="848.0" type="curve" smooth="yes"/>
      <point x="266.0" y="848.0"/>
      <point x="301.0" y="883.0"/>
    </contour>
    <contour>
      <point x="289.0" y="711.0" type="line"/>
      <point x="256.0" y="711.0" type="line"/>
      <point x="47.0" y="627.0" type="line"/>
      <point x="57.0" y="600.0" type="line"/>
      <point x="74.0" y="606.0"/>
      <point x="92.0" y="610.0"/>
      <point x="109.0" y="610.0" type="curve" smooth="yes"/>
      <point x="176.0" y="610.0"/>
      <point x="164.0" y="477.0"/>
      <point x="164.0" y="432.0" type="curve" smooth="yes"/>
      <point x="164.0" y="-82.0" type="line" smooth="yes"/>
      <point x="164.0" y="-133.0"/>
      <point x="172.0" y="-272.0"/>
      <point x="94.0" y="-272.0" type="curve" smooth="yes"/>
      <point x="41.0" y="-272.0"/>
      <point x="12.0" y="-193.0"/>
      <point x="-57.0" y="-193.0" type="curve" smooth="yes"/>
      <point x="-92.0" y="-193.0"/>
      <point x="-119.0" y="-223.0"/>
      <point x="-119.0" y="-258.0" type="curve" smooth="yes"/>
      <point x="-119.0" y="-315.0"/>
      <point x="-27.0" y="-334.0"/>
      <point x="16.0" y="-334.0" type="curve" smooth="yes"/>
      <point x="221.0" y="-334.0"/>
      <point x="289.0" y="-164.0"/>
      <point x="289.0" y="14.0" type="curve"/>
    </contour>
  </outline>
</glyph>
<glyph name="k" format="2">
  <advance width="733"/>
  <unicode hex="006B"/>
  <note>
k
</note>
  <anchor x="203" y="1059" name="above"/>
  <anchor x="401" y="0" name="below"/>
  <outline>
    <contour>
      <point x="69" y="0" type="line"/>
      <point x="346" y="0" type="line"/>
      <point x="349" y="49" type="line"/>
      <point x="250" y="72" type="line"/>
      <point x="248" y="86"/>
      <point x="243" y="134"/>
      <point x="243" y="219" type="curve"/>
      <point x="245" y="627" type="line"/>
      <point x="245" y="794"/>
      <point x="247" y="937"/>
      <point x="250" y="1091" type="curve"/>
      <point x="226" y="1110" type="line"/>
      <point x="35" y="1051" type="line"/>
      <point x="38" y="1009" type="line"/>
      <point x="157" y="993" type="line"/>
      <point x="158" y="972"/>
      <point x="163" y="747"/>
      <point x="163" y="584" type="curve" smooth="yes"/>
      <point x="163" y="338" type="line" smooth="yes"/>
      <point x="163" y="179"/>
      <point x="158" y="101"/>
      <point x="157" y="72" type="curve"/>
      <point x="65" y="49" type="line"/>
    </contour>
    <contour>
      <point x="714" y="0" type="line"/>
      <point x="717" y="51" type="line"/>
      <point x="640" y="67" type="line"/>
      <point x="609" y="94"/>
      <point x="566" y="139"/>
      <point x="547" y="160" type="curve" smooth="yes"/>
      <point x="333" y="386" type="line"/>
      <point x="304" y="335" type="line"/>
      <point x="601" y="611" type="line"/>
      <point x="707" y="630" type="line"/>
      <point x="704" y="682" type="line"/>
      <point x="398" y="682" type="line"/>
      <point x="394" y="630" type="line"/>
      <point x="500" y="611" type="line"/>
      <point x="287" y="390" type="line"/>
      <point x="218" y="370" type="line"/>
      <point x="216" y="341" type="line"/>
      <point x="264" y="341" type="line"/>
      <point x="499" y="88" type="line" smooth="yes"/>
      <point x="518" y="69"/>
      <point x="532" y="54"/>
      <point x="572" y="0" type="curve"/>
    </contour>
  </outline>
</glyph>
<glyph name="l" format="2">
  <advance width="409"/>
  <unicode hex="006C"/>
  <note>
l
</note>
  <anchor x="205" y="1059" name="above"/>
  <anchor x="205" y="0" name="below"/>
  <anchor x="205" y="569" name="center"/>
  <anchor x="409" y="569" name="dotacc"/>
  <anchor x="311" y="1104" name="topright"/>
  <outline>
    <contour>
      <point x="56" y="0" type="line"/>
      <point x="354" y="0" type="line"/>
      <point x="357" y="51" type="line"/>
      <point x="253" y="72" type="line"/>
      <point x="250" y="109"/>
      <point x="245" y="219"/>
      <point x="245" y="335" type="curve"/>
      <point x="247" y="605" type="line" smooth="yes"/>
      <point x="247" y="832"/>
      <point x="250" y="953"/>
      <point x="253" y="1091" type="curve"/>
      <point x="229" y="1110" type="line"/>
      <point x="36" y="1051" type="line"/>
      <point x="40" y="1009" type="line"/>
      <point x="158" y="993" type="line"/>
      <point x="160" y="975"/>
      <point x="163" y="751"/>
      <point x="163" y="584" type="curve" smooth="yes"/>
      <point x="163" y="385" type="line" smooth="yes"/>
      <point x="163" y="173"/>
      <point x="162" y="109"/>
      <point x="157" y="72" type="curve"/>
      <point x="52" y="51" type="line"/>
    </contour>
  </outline>
</glyph>
<glyph name="m" format="2">
  <advance width="1287"/>
  <unicode hex="006D"/>
  <note>
m
</note>
  <anchor x="646" y="682" name="above"/>
  <anchor x="646" y="0" name="below"/>
  <outline>
    <contour>
      <point x="62" y="0" type="line"/>
      <point x="346" y="0" type="line"/>
      <point x="349" y="49" type="line"/>
      <point x="253" y="72" type="line"/>
      <point x="250" y="99"/>
      <point x="247" y="155"/>
      <point x="247" y="264" type="curve" smooth="yes"/>
      <point x="247" y="510" type="line"/>
      <point x="298" y="589"/>
      <point x="362" y="622"/>
      <point x="436" y="622" type="curve" smooth="yes"/>
      <point x="520" y="622"/>
      <point x="605" y="563"/>
      <point x="605" y="415" type="curve"/>
      <point x="605" y="226" type="line"/>
      <point x="605" y="123"/>
      <point x="603" y="96"/>
      <point x="600" y="72" type="curve"/>
      <point x="510" y="49" type="line"/>
      <point x="513" y="0" type="line"/>
      <point x="792" y="0" type="line"/>
      <point x="796" y="49" type="line"/>
      <point x="696" y="72" type="line"/>
      <point x="691" y="97"/>
      <point x="686" y="162"/>
      <point x="686" y="242" type="curve"/>
      <point x="686" y="414" type="line"/>
      <point x="686" y="608"/>
      <point x="561" y="694"/>
      <point x="457" y="694" type="curve" smooth="yes"/>
      <point x="385" y="694"/>
      <point x="314" y="664"/>
      <point x="248" y="581" type="curve"/>
      <point x="243" y="582" type="line"/>
      <point x="251" y="669" type="line"/>
      <point x="232" y="691" type="line"/>
      <point x="51" y="640" type="line"/>
      <point x="51" y="595" type="line"/>
      <point x="154" y="572" type="line"/>
      <point x="158" y="542"/>
      <point x="168" y="447"/>
      <point x="165" y="377" type="curve"/>
      <point x="163" y="248" type="line" smooth="yes"/>
      <point x="162" y="118"/>
      <point x="160" y="99"/>
      <point x="158" y="72" type="curve"/>
      <point x="59" y="49" type="line"/>
    </contour>
    <contour>
      <point x="948" y="0" type="line"/>
      <point x="1231" y="0" type="line"/>
      <point x="1234" y="49" type="line"/>
      <point x="1134" y="72" type="line"/>
      <point x="1129" y="97"/>
      <point x="1126" y="162"/>
      <point x="1126" y="242" type="curve"/>
      <point x="1128" y="431" type="line"/>
      <point x="1128" y="603"/>
      <point x="1015" y="694"/>
      <point x="895" y="694" type="curve" smooth="yes"/>
      <point x="804" y="694"/>
      <point x="720" y="653"/>
      <point x="646" y="547" type="curve"/>
      <point x="669" y="492" type="line"/>
      <point x="725" y="579"/>
      <point x="792" y="622"/>
      <point x="876" y="622" type="curve" smooth="yes"/>
      <point x="950" y="622"/>
      <point x="1046" y="568"/>
      <point x="1046" y="418" type="curve"/>
      <point x="1044" y="226" type="line"/>
      <point x="1044" y="121"/>
      <point x="1040" y="96"/>
      <point x="1038" y="72" type="curve"/>
      <point x="945" y="49" type="line"/>
    </contour>
  </outline>
</glyph>
<glyph name="n" format="2">
  <advance width="772.0"/>
  <unicode hex="006E"/>
  <anchor x="389.0" y="760.0" name="above"/>
  <outline>
    <contour>
      <point x="770.0" y="0.0" type="line"/>
      <point x="770.0" y="29.0" type="line"/>
      <point x="670.0" y="29.0"/>
      <point x="662.0" y="68.0"/>
      <point x="662.0" y="156.0" type="curve" smooth="yes"/>
      <point x="662.0" y="451.0" type="line" smooth="yes"/>
      <point x="662.0" y="575.0"/>
      <point x="631.0" y="711.0"/>
      <point x="481.0" y="711.0" type="curve" smooth="yes"/>
      <point x="387.0" y="711.0"/>
      <point x="305.0" y="633.0"/>
      <point x="250.0" y="565.0" type="curve"/>
      <point x="250.0" y="711.0" type="line"/>
      <point x="219.0" y="711.0" type="line"/>
      <point x="8.0" y="627.0" type="line"/>
      <point x="18.0" y="600.0" type="line"/>
      <point x="35.0" y="606.0"/>
      <point x="53.0" y="612.0"/>
      <point x="70.0" y="612.0" type="curve" smooth="yes"/>
      <point x="137.0" y="612.0"/>
      <point x="123.0" y="457.0"/>
      <point x="123.0" y="414.0" type="curve" smooth="yes"/>
      <point x="123.0" y="156.0" type="line" smooth="yes"/>
      <point x="123.0" y="68.0"/>
      <point x="119.0" y="29.0"/>
      <point x="18.0" y="29.0" type="curve"/>
      <point x="18.0" y="0.0" type="line"/>
      <point x="362.0" y="0.0" type="line"/>
      <point x="362.0" y="29.0" type="line"/>
      <point x="258.0" y="29.0"/>
      <point x="250.0" y="59.0"/>
      <point x="250.0" y="156.0" type="curve" smooth="yes"/>
      <point x="250.0" y="520.0" type="line"/>
      <point x="295.0" y="569.0"/>
      <point x="356.0" y="618.0"/>
      <point x="428.0" y="618.0" type="curve" smooth="yes"/>
      <point x="530.0" y="618.0"/>
      <point x="537.0" y="516.0"/>
      <point x="537.0" y="438.0" type="curve" smooth="yes"/>
      <point x="537.0" y="156.0" type="line" smooth="yes"/>
      <point x="537.0" y="57.0"/>
      <point x="528.0" y="29.0"/>
      <point x="424.0" y="29.0" type="curve"/>
      <point x="424.0" y="0.0" type="line"/>
    </contour>
  </outline>
</glyph>
<glyph name="o" format="2">
  <advance width="796"/>
  <unicode hex="006F"/>
  <note>
o
</note>
  <anchor x="398" y="0" name="bottom"/>
  <anchor x="398" y="341" name="center"/>
  <anchor x="513" y="0" name="ogonek"/>
  <anchor x="398" y="682" name="top"/>
  <anchor x="772" y="682" name="topright"/>
  <outline>
    <contour>
      <point x="404" y="-12" type="curve" smooth="yes"/>
      <point x="584" y="-12"/>
      <point x="725" y="146"/>
      <point x="725" y="345" type="curve" smooth="yes"/>
      <point x="725" y="555"/>
      <point x="600" y="694"/>
      <point x="409" y="694" type="curve" smooth="yes"/>
      <point x="219" y="694"/>
      <point x="70" y="550"/>
      <point x="70" y="343" type="curve" smooth="yes"/>
      <point x="70" y="133"/>
      <point x="200" y="-12"/>
    </contour>
    <contour>
      <point x="418" y="49" type="curve" smooth="yes"/>
      <point x="276" y="49"/>
      <point x="174" y="170"/>
      <point x="174" y="356" type="curve" smooth="yes"/>
      <point x="174" y="524"/>
      <point x="263" y="635"/>
      <point x="394" y="635" type="curve" smooth="yes"/>
      <point x="531" y="635"/>
      <point x="624" y="511"/>
      <point x="624" y="325" type="curve" smooth="yes"/>
      <point x="624" y="166"/>
      <point x="539" y="49"/>
    </contour>
  </outline>
</glyph>
<glyph name="p" format="2">
  <advance width="841"/>
  <unicode hex="0070"/>
  <note>
p
</note>
  <anchor x="422" y="682" name="top"/>
  <outline>
    <contour>
      <point x="57" y="-353" type="line"/>
      <point x="378" y="-353" type="line"/>
      <point x="381" y="-298" type="line"/>
      <point x="250" y="-280" type="line"/>
      <point x="247" y="-247"/>
      <point x="243" y="-197"/>
      <point x="243" y="-109" type="curve" smooth="yes"/>
      <point x="243" y="20" type="line"/>
      <point x="292" y="1"/>
      <point x="359" y="-11"/>
      <point x="417" y="-11" type="curve" smooth="yes"/>
      <point x="609" y="-11"/>
      <point x="768" y="138"/>
      <point x="768" y="353" type="curve" smooth="yes"/>
      <point x="768" y="542"/>
      <point x="648" y="694"/>
      <point x="460" y="694" type="curve" smooth="yes"/>
      <point x="378" y="694"/>
      <point x="311" y="661"/>
      <point x="247" y="584" type="curve"/>
      <point x="242" y="584" type="line"/>
      <point x="248" y="669" type="line"/>
      <point x="229" y="691" type="line"/>
      <point x="48" y="640" type="line"/>
      <point x="48" y="595" type="line"/>
      <point x="150" y="572" type="line"/>
      <point x="154" y="542"/>
      <point x="162" y="454"/>
      <point x="162" y="388" type="curve" smooth="yes"/>
      <point x="158" y="-44" type="line" smooth="yes"/>
      <point x="157" y="-197"/>
      <point x="155" y="-260"/>
      <point x="154" y="-280" type="curve"/>
      <point x="54" y="-303" type="line"/>
    </contour>
    <contour>
      <point x="425" y="49" type="curve" smooth="yes"/>
      <point x="357" y="49"/>
      <point x="290" y="70"/>
      <point x="243" y="107" type="curve"/>
      <point x="243" y="507" type="line"/>
      <point x="298" y="577"/>
      <point x="361" y="614"/>
      <point x="441" y="614" type="curve" smooth="yes"/>
      <point x="579" y="614"/>
      <point x="669" y="479"/>
      <point x="667" y="332" type="curve" smooth="yes"/>
      <point x="664" y="157"/>
      <point x="566" y="49"/>
    </contour>
  </outline>
</glyph>
<glyph name="q" format="2">
  <advance width="772.0"/>
  <unicode hex="0071"/>
  <outline>
    <contour>
      <point x="774.0" y="-332.0" type="line"/>
      <point x="774.0" y="-303.0" type="line"/>
      <point x="674.0" y="-303.0"/>
      <point x="662.0" y="-272.0"/>
      <point x="662.0" y="-178.0" type="curve" smooth="yes"/>
      <point x="662.0" y="711.0" type="line"/>
      <point x="635.0" y="711.0" type="line"/>
      <point x="608.0" y="692.0"/>
      <point x="580.0" y="676.0"/>
      <point x="549.0" y="662.0" type="curve"/>
      <point x="512.0" y="700.0"/>
      <point x="457.0" y="711.0"/>
      <point x="408.0" y="711.0" type="curve" smooth="yes"/>
      <point x="184.0" y="711.0"/>
      <point x="51.0" y="524.0"/>
      <point x="51.0" y="315.0" type="curve" smooth="yes"/>
      <point x="51.0" y="164.0"/>
      <point x="135.0" y="-23.0"/>
      <point x="309.0" y="-23.0" type="curve" smooth="yes"/>
      <point x="401.0" y="-23.0"/>
      <point x="481.0" y="53.0"/>
      <point x="537.0" y="121.0" type="curve"/>
      <point x="537.0" y="-178.0" type="line" smooth="yes"/>
      <point x="537.0" y="-274.0"/>
      <point x="524.0" y="-303.0"/>
      <point x="424.0" y="-303.0" type="curve"/>
      <point x="424.0" y="-332.0" type="line"/>
    </contour>
    <contour>
      <point x="537.0" y="166.0" type="line"/>
      <point x="498.0" y="123.0"/>
      <point x="446.0" y="84.0"/>
      <point x="387.0" y="84.0" type="curve" smooth="yes"/>
      <point x="233.0" y="84.0"/>
      <point x="178.0" y="240.0"/>
      <point x="178.0" y="371.0" type="curve" smooth="yes"/>
      <point x="178.0" y="498.0"/>
      <point x="227.0" y="657.0"/>
      <point x="383.0" y="657.0" type="curve" smooth="yes"/>
      <point x="492.0" y="657.0"/>
      <point x="537.0" y="594.0"/>
      <point x="537.0" y="492.0" type="curve" smooth="yes"/>
    </contour>
  </outline>
</glyph>
<glyph name="r" format="2">
  <advance width="548"/>
  <unicode hex="0072"/>
  <note>
r
</note>
  <anchor x="256" y="682" name="above"/>
  <anchor x="207" y="0" name="below"/>
  <outline>
    <contour>
      <point x="64" y="0" type="line"/>
      <point x="393" y="0" type="line"/>
      <point x="396" y="52" type="line"/>
      <point x="256" y="72" type="line"/>
      <point x="253" y="117"/>
      <point x="248" y="218"/>
      <point x="247" y="282" type="curve" smooth="yes"/>
      <point x="245" y="442" type="line"/>
      <point x="279" y="520"/>
      <point x="319" y="571"/>
      <point x="361" y="598" type="curve"/>
      <point x="341" y="611" type="line"/>
      <point x="364" y="587"/>
      <point x="399" y="569"/>
      <point x="433" y="569" type="curve" smooth="yes"/>
      <point x="481" y="569"/>
      <point x="515" y="590"/>
      <point x="515" y="632" type="curve" smooth="yes"/>
      <point x="515" y="670"/>
      <point x="483" y="693"/>
      <point x="436" y="693" type="curve" smooth="yes"/>
      <point x="383" y="693"/>
      <point x="312" y="658"/>
      <point x="245" y="532" type="curve"/>
      <point x="240" y="534" type="line"/>
      <point x="248" y="672" type="line"/>
      <point x="234" y="691" type="line"/>
      <point x="51" y="640" type="line"/>
      <point x="51" y="595" type="line"/>
      <point x="154" y="572" type="line"/>
      <point x="158" y="542"/>
      <point x="165" y="451"/>
      <point x="165" y="377" type="curve"/>
      <point x="165" y="248" type="line" smooth="yes"/>
      <point x="165" y="138"/>
      <point x="162" y="89"/>
      <point x="160" y="72" type="curve"/>
      <point x="60" y="49" type="line"/>
    </contour>
  </outline>
</glyph>
<glyph name="u" format="2">
  <advance width="842"/>
  <unicode hex="0075"/>
  <note>
u
</note>
  <anchor x="420" y="0" name="bottom"/>
  <anchor x="669" y="0" name="ogonek"/>
  <anchor x="420" y="682" name="top"/>
  <anchor x="658" y="682" name="topright"/>
  <outline>
    <contour>
      <point x="691" y="96" type="line"/>
      <point x="688" y="125"/>
      <point x="680" y="192"/>
      <point x="680" y="343" type="curve" smooth="yes"/>
      <point x="680" y="451" type="line" smooth="yes"/>
      <point x="680" y="529"/>
      <point x="680" y="569"/>
      <point x="683" y="672" type="curve"/>
      <point x="667" y="691" type="line"/>
      <point x="475" y="640" type="line"/>
      <point x="475" y="595" type="line"/>
      <point x="592" y="572" type="line"/>
      <point x="597" y="529"/>
      <point x="600" y="444"/>
      <point x="600" y="375" type="curve" smooth="yes"/>
      <point x="600" y="178" type="line"/>
      <point x="548" y="96"/>
      <point x="476" y="67"/>
      <point x="412" y="67" type="curve" smooth="yes"/>
      <point x="308" y="67"/>
      <point x="232" y="118"/>
      <point x="232" y="264" type="curve"/>
      <point x="232" y="459" type="line"/>
      <point x="232" y="536"/>
      <point x="234" y="600"/>
      <point x="237" y="669" type="curve"/>
      <point x="218" y="691" type="line"/>
      <point x="35" y="640" type="line"/>
      <point x="35" y="595" type="line"/>
      <point x="144" y="572" type="line"/>
      <point x="147" y="515"/>
      <point x="150" y="452"/>
      <point x="150" y="383" type="curve" smooth="yes"/>
      <point x="150" y="242" type="line" smooth="yes"/>
      <point x="150" y="72"/>
      <point x="261" y="-11"/>
      <point x="399" y="-11" type="curve" smooth="yes"/>
      <point x="475" y="-11"/>
      <point x="532" y="17"/>
      <point x="597" y="101" type="curve"/>
      <point x="601" y="99" type="line"/>
      <point x="600" y="3" type="line"/>
      <point x="614" y="-16" type="line"/>
      <point x="792" y="24" type="line"/>
      <point x="792" y="69" type="line"/>
    </contour>
  </outline>
</glyph>
<glyph name="v" format="2">
  <advance width="739"/>
  <unicode hex="0076"/>
  <note>
v
</note>
  <anchor x="370" y="682" name="above"/>
  <anchor x="370" y="0" name="below"/>
  <outline>
    <contour>
      <point x="349" y="-6" type="line"/>
      <point x="388" y="-6" type="line"/>
      <point x="669" y="609" type="line"/>
      <point x="744" y="632" type="line"/>
      <point x="741" y="682" type="line"/>
      <point x="489" y="682" type="line"/>
      <point x="486" y="632" type="line"/>
      <point x="585" y="609" type="line"/>
      <point x="367" y="73" type="line"/>
      <point x="407" y="75" type="line"/>
      <point x="168" y="609" type="line"/>
      <point x="268" y="632" type="line"/>
      <point x="264" y="682" type="line"/>
      <point x="0" y="682" type="line"/>
      <point x="-3" y="632" type="line"/>
      <point x="72" y="609" type="line"/>
    </contour>
  </outline>
</glyph>
<glyph name="w" format="2">
  <advance width="1162"/>
  <unicode hex="0077"/>
  <note>
w
</note>
  <anchor x="593" y="682" name="above"/>
  <anchor x="579" y="0" name="below"/>
  <outline>
    <contour>
      <point x="783" y="-6" type="line"/>
      <point x="820" y="-6" type="line"/>
      <point x="1081" y="609" type="line"/>
      <point x="1157" y="632" type="line"/>
      <point x="1153" y="682" type="line"/>
      <point x="916" y="682" type="line"/>
      <point x="913" y="632" type="line"/>
      <point x="996" y="609" type="line"/>
      <point x="797" y="73" type="line"/>
      <point x="836" y="75" type="line"/>
      <point x="638" y="609" type="line"/>
      <point x="722" y="632" type="line"/>
      <point x="719" y="682" type="line"/>
      <point x="470" y="682" type="line"/>
      <point x="467" y="632" type="line"/>
      <point x="550" y="609" type="line"/>
    </contour>
    <contour>
      <point x="335" y="-6" type="line"/>
      <point x="373" y="-6" type="line"/>
      <point x="608" y="536" type="line"/>
      <point x="572" y="630" type="line"/>
      <point x="351" y="73" type="line"/>
      <point x="396" y="75" type="line"/>
      <point x="186" y="609" type="line"/>
      <point x="269" y="632" type="line"/>
      <point x="266" y="682" type="line"/>
      <point x="14" y="682" type="line"/>
      <point x="11" y="632" type="line"/>
      <point x="86" y="609" type="line"/>
    </contour>
  </outline>
</glyph>
<glyph name="x" format="2">
  <advance width="772.0"/>
  <unicode hex="0078"/>
  <outline>
    <contour>
      <point x="754.0" y="0.0" type="line"/>
      <point x="754.0" y="29.0" type="line"/>
      <point x="672.0" y="33.0"/>
      <point x="637.0" y="94.0"/>
      <point x="592.0" y="158.0" type="curve" smooth="yes"/>
      <point x="420.0" y="403.0" type="line"/>
      <point x="471.0" y="473.0"/>
      <point x="573.0" y="659.0"/>
      <point x="680.0" y="662.0" type="curve"/>
      <point x="680.0" y="690.0" type="line"/>
      <point x="446.0" y="690.0" type="line"/>
      <point x="446.0" y="662.0" type="line"/>
      <point x="471.0" y="662.0"/>
      <point x="502.0" y="657.0"/>
      <point x="502.0" y="627.0" type="curve" smooth="yes"/>
      <point x="502.0" y="600.0"/>
      <point x="410.0" y="479.0"/>
      <point x="391.0" y="453.0" type="curve"/>
      <point x="373.0" y="479.0"/>
      <point x="289.0" y="602.0"/>
      <point x="289.0" y="625.0" type="curve" smooth="yes"/>
      <point x="289.0" y="655.0"/>
      <point x="313.0" y="664.0"/>
      <point x="338.0" y="662.0" type="curve" smooth="yes"/>
      <point x="346.0" y="662.0" type="line"/>
      <point x="346.0" y="690.0" type="line"/>
      <point x="20.0" y="690.0" type="line"/>
      <point x="20.0" y="662.0" type="line"/>
      <point x="109.0" y="657.0"/>
      <point x="137.0" y="608.0"/>
      <point x="184.0" y="541.0" type="curve" smooth="yes"/>
      <point x="315.0" y="350.0" type="line"/>
      <point x="170.0" y="158.0" type="line" smooth="yes"/>
      <point x="139.0" y="117.0"/>
      <point x="82.0" y="31.0"/>
      <point x="27.0" y="29.0" type="curve"/>
      <point x="27.0" y="0.0" type="line"/>
      <point x="252.0" y="0.0" type="line"/>
      <point x="252.0" y="29.0" type="line"/>
      <point x="223.0" y="29.0"/>
      <point x="184.0" y="37.0"/>
      <point x="184.0" y="74.0" type="curve" smooth="yes"/>
      <point x="184.0" y="113.0"/>
      <point x="317.0" y="268.0"/>
      <point x="346.0" y="305.0" type="curve"/>
      <point x="369.0" y="272.0"/>
      <point x="496.0" y="100.0"/>
      <point x="496.0" y="72.0" type="curve" smooth="yes"/>
      <point x="496.0" y="35.0"/>
      <point x="457.0" y="29.0"/>
      <point x="428.0" y="29.0" type="curve"/>
      <point x="428.0" y="0.0" type="line"/>
    </contour>
  </outline>
</glyph>
<glyph name="y" format="2">
  <advance width="772.0"/>
  <unicode hex="0079"/>
  <anchor x="420.0" y="760.0" name="above"/>
  <outline>
    <contour>
      <point x="764.0" y="690.0" type="line"/>
      <point x="539.0" y="690.0" type="line"/>
      <point x="539.0" y="662.0" type="line"/>
      <point x="571.0" y="662.0"/>
      <point x="610.0" y="662.0"/>
      <point x="610.0" y="621.0" type="curve" smooth="yes"/>
      <point x="610.0" y="598.0"/>
      <point x="602.0" y="584.0"/>
      <point x="594.0" y="565.0" type="curve" smooth="yes"/>
      <point x="440.0" y="182.0" type="line"/>
      <point x="272.0" y="530.0" type="line" smooth="yes"/>
      <point x="260.0" y="555.0"/>
      <point x="246.0" y="584.0"/>
      <point x="246.0" y="612.0" type="curve" smooth="yes"/>
      <point x="246.0" y="662.0"/>
      <point x="293.0" y="662.0"/>
      <point x="332.0" y="662.0" type="curve"/>
      <point x="332.0" y="690.0" type="line"/>
      <point x="8.0" y="690.0" type="line"/>
      <point x="8.0" y="662.0" type="line"/>
      <point x="76.0" y="655.0"/>
      <point x="106.0" y="602.0"/>
      <point x="133.0" y="549.0" type="curve" smooth="yes"/>
      <point x="381.0" y="29.0" type="line"/>
      <point x="362.0" y="-16.0"/>
      <point x="307.0" y="-207.0"/>
      <point x="227.0" y="-207.0" type="curve" smooth="yes"/>
      <point x="195.0" y="-207.0"/>
      <point x="158.0" y="-180.0"/>
      <point x="121.0" y="-180.0" type="curve" smooth="yes"/>
      <point x="76.0" y="-180.0"/>
      <point x="45.0" y="-199.0"/>
      <point x="45.0" y="-248.0" type="curve" smooth="yes"/>
      <point x="45.0" y="-303.0"/>
      <point x="96.0" y="-334.0"/>
      <point x="147.0" y="-334.0" type="curve" smooth="yes"/>
      <point x="258.0" y="-334.0"/>
      <point x="342.0" y="-225.0"/>
      <point x="381.0" y="-131.0" type="curve" smooth="yes"/>
      <point x="662.0" y="559.0" type="line" smooth="yes"/>
      <point x="682.0" y="610.0"/>
      <point x="700.0" y="657.0"/>
      <point x="764.0" y="662.0" type="curve"/>
    </contour>
  </outline>
</glyph>
<glyph name="z" format="2">
  <advance width="669"/>
  <unicode hex="007A"/>
  <note>
z
</note>
  <anchor x="343" y="0" name="bottom"/>
  <anchor x="343" y="682" name="top"/>
  <outline>
    <contour>
      <point x="182" y="27" type="line"/>
      <point x="592" y="646" type="line"/>
      <point x="592" y="685" type="line"/>
      <point x="547" y="683"/>
      <point x="502" y="682"/>
      <point x="457" y="682" type="curve" smooth="yes"/>
      <point x="210" y="682" type="line" smooth="yes"/>
      <point x="168" y="682"/>
      <point x="130" y="682"/>
      <point x="78" y="683" type="curve"/>
      <point x="78" y="495" type="line"/>
      <point x="139" y="495" type="line"/>
      <point x="162" y="616" type="line"/>
      <point x="190" y="619"/>
      <point x="224" y="621"/>
      <point x="245" y="621" type="curve" smooth="yes"/>
      <point x="495" y="621" type="line"/>
      <point x="500" y="656" type="line"/>
      <point x="85" y="36" type="line"/>
      <point x="85" y="-3" type="line"/>
      <point x="128" y="-1"/>
      <point x="174" y="0"/>
      <point x="218" y="0" type="curve" smooth="yes"/>
      <point x="459" y="0" type="line" smooth="yes"/>
      <point x="502" y="0"/>
      <point x="542" y="0"/>
      <point x="593" y="-1" type="curve"/>
      <point x="619" y="199" type="line"/>
      <point x="558" y="199" type="line"/>
      <point x="520" y="69" type="line"/>
      <point x="484" y="64"/>
      <point x="452" y="62"/>
      <point x="425" y="62" type="curve" smooth="yes"/>
      <point x="179" y="62" type="line"/>
    </contour>
  </outline>
</glyph>
<glyph name="braceleft" format="2">
  <advance width="582"/>
  <unicode hex="007B"/>
  <note>
braceleft
</note>
  <outline>
    <contour>
      <point x="301" y="-134" type="curve" smooth="yes"/>
      <point x="301" y="-14"/>
      <point x="373" y="89"/>
      <point x="373" y="218" type="curve" smooth="yes"/>
      <point x="373" y="319"/>
      <point x="319" y="396"/>
      <point x="190" y="415" type="curve"/>
      <point x="190" y="393" type="line"/>
      <point x="324" y="412"/>
      <point x="373" y="491"/>
      <point x="373" y="587" type="curve" smooth="yes"/>
      <point x="373" y="715"/>
      <point x="301" y="820"/>
      <point x="301" y="940" type="curve" smooth="yes"/>
      <point x="301" y="1030"/>
      <point x="349" y="1086"/>
      <point x="479" y="1117" type="curve"/>
      <point x="471" y="1171" type="line"/>
      <point x="295" y="1142"/>
      <point x="221" y="1054"/>
      <point x="221" y="926" type="curve" smooth="yes"/>
      <point x="221" y="807"/>
      <point x="298" y="667"/>
      <point x="298" y="564" type="curve" smooth="yes"/>
      <point x="298" y="478"/>
      <point x="232" y="434"/>
      <point x="126" y="430" type="curve"/>
      <point x="126" y="375" type="line"/>
      <point x="232" y="370"/>
      <point x="298" y="327"/>
      <point x="298" y="240" type="curve" smooth="yes"/>
      <point x="298" y="138"/>
      <point x="221" y="-1"/>
      <point x="221" y="-120" type="curve" smooth="yes"/>
      <point x="221" y="-248"/>
      <point x="295" y="-337"/>
      <point x="471" y="-365" type="curve"/>
      <point x="479" y="-311" type="line"/>
      <point x="349" y="-280"/>
      <point x="301" y="-224"/>
    </contour>
  </outline>
</glyph>
<glyph name="braceright" format="2">
  <advance width="582"/>
  <unicode hex="007D"/>
  <note>
braceright
</note>
  <outline>
    <contour>
      <point x="280" y="-134" type="curve" smooth="yes"/>
      <point x="280" y="-224"/>
      <point x="234" y="-280"/>
      <point x="102" y="-311" type="curve"/>
      <point x="112" y="-365" type="line"/>
      <point x="288" y="-337"/>
      <point x="361" y="-248"/>
      <point x="361" y="-120" type="curve" smooth="yes"/>
      <point x="361" y="-1"/>
      <point x="285" y="138"/>
      <point x="285" y="240" type="curve" smooth="yes"/>
      <point x="285" y="327"/>
      <point x="351" y="370"/>
      <point x="455" y="375" type="curve"/>
      <point x="455" y="430" type="line"/>
      <point x="351" y="434"/>
      <point x="285" y="478"/>
      <point x="285" y="564" type="curve" smooth="yes"/>
      <point x="285" y="667"/>
      <point x="361" y="807"/>
      <point x="361" y="926" type="curve" smooth="yes"/>
      <point x="361" y="1054"/>
      <point x="288" y="1142"/>
      <point x="112" y="1171" type="curve"/>
      <point x="102" y="1117" type="line"/>
      <point x="234" y="1086"/>
      <point x="280" y="1030"/>
      <point x="280" y="940" type="curve" smooth="yes"/>
      <point x="280" y="820"/>
      <point x="210" y="715"/>
      <point x="210" y="587" type="curve" smooth="yes"/>
      <point x="210" y="491"/>
      <point x="260" y="412"/>
      <point x="391" y="393" type="curve"/>
      <point x="391" y="415" type="line"/>
      <point x="264" y="396"/>
      <point x="210" y="319"/>
      <point x="210" y="218" type="curve" smooth="yes"/>
      <point x="210" y="89"/>
      <point x="280" y="-14"/>
    </contour>
  </outline>
</glyph>
<glyph name="asciitilde" format="2">
  <advance width="866"/>
  <unicode hex="007E"/>
  <outline>
    <contour>
      <point x="743" y="471" type="line"/>
      <point x="712" y="418"/>
      <point x="674" y="388"/>
      <point x="619" y="388" type="curve" smooth="yes"/>
      <point x="531" y="388"/>
      <point x="394" y="507"/>
      <point x="268" y="507" type="curve" smooth="yes"/>
      <point x="186" y="507"/>
      <point x="121" y="455"/>
      <point x="85" y="365" type="curve"/>
      <point x="123" y="340" type="line"/>
      <point x="150" y="394"/>
      <point x="194" y="425"/>
      <point x="247" y="425" type="curve" smooth="yes"/>
      <point x="335" y="425"/>
      <point x="471" y="304"/>
      <point x="598" y="304" type="curve" smooth="yes"/>
      <point x="680" y="304"/>
      <point x="744" y="356"/>
      <point x="781" y="446" type="curve"/>
    </contour>
  </outline>
</glyph>
<glyph name="exclamdown" format="2">
  <advance width="514.0"/>
  <unicode hex="00A1"/>
  <outline>
    <contour>
      <point x="342.0" y="649.0" type="curve"/>
      <point x="342.0" y="710.0"/>
      <point x="291.0" y="736.0"/>
      <point x="257.0" y="736.0" type="curve" smooth="yes"/>
      <point x="213.0" y="736.0"/>
      <point x="174.0" y="697.0"/>
      <point x="174.0" y="649.0" type="curve" smooth="yes"/>
      <point x="174.0" y="598.0"/>
      <point x="218.0" y="567.0"/>
      <point x="257.0" y="567.0" type="curve" smooth="yes"/>
      <point x="296.0" y="567.0"/>
      <point x="342.0" y="596.0"/>
    </contour>
    <contour>
      <point x="343.0" y="-227.0" type="curve"/>
      <point x="343.0" y="-215.0"/>
      <point x="342.0" y="-205.0"/>
      <point x="337.0" y="-169.0" type="curve" smooth="yes"/>
      <point x="272.0" y="442.0" type="line"/>
      <point x="242.0" y="442.0" type="line"/>
      <point x="174.0" y="-169.0" type="line" smooth="yes"/>
      <point x="171.0" y="-190.0"/>
      <point x="171.0" y="-208.0"/>
      <point x="171.0" y="-220.0" type="curve" smooth="yes"/>
      <point x="171.0" y="-303.0"/>
      <point x="218.0" y="-333.0"/>
      <point x="255.0" y="-333.0" type="curve" smooth="yes"/>
      <point x="305.0" y="-333.0"/>
      <point x="343.0" y="-295.0"/>
    </contour>
  </outline>
</glyph>
<glyph name="currency" format="2">
  <advance width="891.0"/>
  <unicode hex="00A4"/>
  <outline>
    <contour>
      <point x="846.0" y="291.0" type="line"/>
      <point x="694.0" y="444.0" type="line"/>
      <point x="737.0" y="498.0"/>
      <point x="758.0" y="565.0"/>
      <point x="758.0" y="635.0" type="curve" smooth="yes"/>
      <point x="758.0" y="707.0"/>
      <point x="737.0" y="776.0"/>
      <point x="692.0" y="831.0" type="curve"/>
      <point x="846.0" y="985.0" type="line"/>
      <point x="793.0" y="1040.0" type="line"/>
      <point x="635.0" y="883.0" type="line"/>
      <point x="582.0" y="928.0"/>
      <point x="518.0" y="948.0"/>
      <point x="449.0" y="948.0" type="curve" smooth="yes"/>
      <point x="379.0" y="948.0"/>
      <point x="309.0" y="928.0"/>
      <point x="254.0" y="883.0" type="curve"/>
      <point x="98.0" y="1040.0" type="line"/>
      <point x="45.0" y="985.0" type="line"/>
      <point x="201.0" y="829.0" type="line"/>
      <point x="152.0" y="776.0"/>
      <point x="133.0" y="705.0"/>
      <point x="133.0" y="635.0" type="curve" smooth="yes"/>
      <point x="133.0" y="565.0"/>
      <point x="154.0" y="498.0"/>
      <point x="197.0" y="444.0" type="curve"/>
      <point x="45.0" y="291.0" type="line"/>
      <point x="98.0" y="238.0" type="line"/>
      <point x="252.0" y="391.0" type="line"/>
      <point x="307.0" y="342.0"/>
      <point x="375.0" y="322.0"/>
      <point x="449.0" y="322.0" type="curve" smooth="yes"/>
      <point x="520.0" y="322.0"/>
      <point x="586.0" y="344.0"/>
      <point x="639.0" y="391.0" type="curve"/>
      <point x="793.0" y="238.0" type="line"/>
    </contour>
    <contour>
      <point x="674.0" y="635.0" type="curve"/>
      <point x="674.0" y="510.0"/>
      <point x="575.0" y="406.0"/>
      <point x="449.0" y="406.0" type="curve" smooth="yes"/>
      <point x="319.0" y="406.0"/>
      <point x="217.0" y="506.0"/>
      <point x="217.0" y="635.0" type="curve" smooth="yes"/>
      <point x="217.0" y="764.0"/>
      <point x="319.0" y="864.0"/>
      <point x="449.0" y="864.0" type="curve" smooth="yes"/>
      <point x="573.0" y="864.0"/>
      <point x="674.0" y="760.0"/>
    </contour>
  </outline>
</glyph>
<glyph name="yen" format="2">
  <advance width="772.0"/>
  <unicode hex="00A5"/>
  <outline>
    <contour>
      <point x="758.0" y="266.0" type="line"/>
      <point x="758.0" y="322.0" type="line"/>
      <point x="451.0" y="322.0" type="line"/>
      <point x="451.0" y="442.0" type="line"/>
      <point x="457.0" y="457.0" type="line"/>
      <point x="758.0" y="457.0" type="line"/>
      <point x="758.0" y="510.0" type="line"/>
      <point x="477.0" y="510.0" type="line"/>
      <point x="641.0" y="877.0" type="line" smooth="yes"/>
      <point x="670.0" y="940.0"/>
      <point x="696.0" y="995.0"/>
      <point x="772.0" y="995.0" type="curve"/>
      <point x="772.0" y="1022.0" type="line"/>
      <point x="510.0" y="1022.0" type="line"/>
      <point x="510.0" y="995.0" type="line"/>
      <point x="543.0" y="993.0"/>
      <point x="594.0" y="989.0"/>
      <point x="594.0" y="948.0" type="curve" smooth="yes"/>
      <point x="594.0" y="928.0"/>
      <point x="586.0" y="909.0"/>
      <point x="580.0" y="891.0" type="curve"/>
      <point x="418.0" y="510.0" type="line"/>
      <point x="406.0" y="543.0"/>
      <point x="242.0" y="932.0"/>
      <point x="242.0" y="948.0" type="curve" smooth="yes"/>
      <point x="242.0" y="983.0"/>
      <point x="309.0" y="993.0"/>
      <point x="336.0" y="995.0" type="curve"/>
      <point x="336.0" y="1022.0" type="line"/>
      <point x="2.0" y="1022.0" type="line"/>
      <point x="2.0" y="995.0" type="line"/>
      <point x="78.0" y="987.0"/>
      <point x="96.0" y="950.0"/>
      <point x="125.0" y="885.0" type="curve" smooth="yes"/>
      <point x="285.0" y="510.0" type="line"/>
      <point x="14.0" y="510.0" type="line"/>
      <point x="14.0" y="457.0" type="line"/>
      <point x="311.0" y="457.0" type="line"/>
      <point x="322.0" y="430.0" type="line"/>
      <point x="322.0" y="322.0" type="line"/>
      <point x="14.0" y="322.0" type="line"/>
      <point x="14.0" y="266.0" type="line"/>
      <point x="322.0" y="266.0" type="line"/>
      <point x="322.0" y="184.0" type="line" smooth="yes"/>
      <point x="322.0" y="63.0"/>
      <point x="322.0" y="31.0"/>
      <point x="190.0" y="31.0" type="curve"/>
      <point x="190.0" y="0.0" type="line"/>
      <point x="580.0" y="0.0" type="line"/>
      <point x="580.0" y="31.0" type="line"/>
      <point x="453.0" y="31.0"/>
      <point x="451.0" y="68.0"/>
      <point x="451.0" y="184.0" type="curve" smooth="yes"/>
      <point x="451.0" y="266.0" type="line"/>
    </contour>
  </outline>
</glyph>
<glyph name="section" format="2">
  <advance width="752"/>
  <unicode hex="00A7"/>
  <note>
section
</note>
  <outline>
    <contour>
      <point x="406" y="346" type="line"/>
      <point x="542" y="356"/>
      <point x="646" y="454"/>
      <point x="646" y="572" type="curve" smooth="yes"/>
      <point x="646" y="781"/>
      <point x="258" y="794"/>
      <point x="258" y="958" type="curve" smooth="yes"/>
      <point x="258" y="1017"/>
      <point x="311" y="1060"/>
      <point x="412" y="1060" type="curve" smooth="yes"/>
      <point x="434" y="1060"/>
      <point x="460" y="1057"/>
      <point x="478" y="1049" type="curve"/>
      <point x="518" y="945" type="line"/>
      <point x="579" y="945" type="line"/>
      <point x="563" y="1096" type="line"/>
      <point x="521" y="1109"/>
      <point x="460" y="1115"/>
      <point x="420" y="1115" type="curve" smooth="yes"/>
      <point x="258" y="1115"/>
      <point x="160" y="1036"/>
      <point x="160" y="927" type="curve" smooth="yes"/>
      <point x="160" y="699"/>
      <point x="547" y="741"/>
      <point x="547" y="532" type="curve" smooth="yes"/>
      <point x="547" y="452"/>
      <point x="468" y="393"/>
      <point x="388" y="377" type="curve"/>
    </contour>
    <contour>
      <point x="332" y="-12" type="curve" smooth="yes"/>
      <point x="499" y="-12"/>
      <point x="597" y="64"/>
      <point x="597" y="173" type="curve" smooth="yes"/>
      <point x="597" y="396"/>
      <point x="205" y="364"/>
      <point x="205" y="572" type="curve" smooth="yes"/>
      <point x="205" y="651"/>
      <point x="284" y="711"/>
      <point x="361" y="725" type="curve"/>
      <point x="341" y="755" type="line"/>
      <point x="208" y="746"/>
      <point x="105" y="650"/>
      <point x="105" y="534" type="curve" smooth="yes"/>
      <point x="105" y="319"/>
      <point x="500" y="309"/>
      <point x="500" y="142" type="curve" smooth="yes"/>
      <point x="500" y="81"/>
      <point x="446" y="43"/>
      <point x="362" y="43" type="curve" smooth="yes"/>
      <point x="319" y="43"/>
      <point x="287" y="49"/>
      <point x="264" y="62" type="curve"/>
      <point x="223" y="163" type="line"/>
      <point x="162" y="163" type="line"/>
      <point x="181" y="9" type="line"/>
      <point x="224" y="-6"/>
      <point x="285" y="-12"/>
    </contour>
  </outline>
</glyph>
<glyph name="copyright" format="2">
  <advance width="1174.0"/>
  <unicode hex="00A9"/>
  <outline>
    <contour>
      <point x="1122.0" y="510.0" type="curve"/>
      <point x="1122.0" y="813.0"/>
      <point x="889.0" y="1044.0"/>
      <point x="586.0" y="1044.0" type="curve" smooth="yes"/>
      <point x="285.0" y="1044.0"/>
      <point x="51.0" y="813.0"/>
      <point x="51.0" y="510.0" type="curve" smooth="yes"/>
      <point x="51.0" y="209.0"/>
      <point x="285.0" y="-25.0"/>
      <point x="586.0" y="-25.0" type="curve" smooth="yes"/>
      <point x="887.0" y="-25.0"/>
      <point x="1122.0" y="211.0"/>
    </contour>
    <contour>
      <point x="1075.0" y="510.0" type="curve"/>
      <point x="1075.0" y="238.0"/>
      <point x="860.0" y="25.0"/>
      <point x="586.0" y="25.0" type="curve" smooth="yes"/>
      <point x="313.0" y="25.0"/>
      <point x="100.0" y="238.0"/>
      <point x="100.0" y="510.0" type="curve" smooth="yes"/>
      <point x="100.0" y="782.0"/>
      <point x="313.0" y="999.0"/>
      <point x="586.0" y="999.0" type="curve" smooth="yes"/>
      <point x="860.0" y="999.0"/>
      <point x="1075.0" y="784.0"/>
    </contour>
    <contour>
      <point x="850.0" y="340.0" type="line"/>
      <point x="795.0" y="260.0"/>
      <point x="715.0" y="219.0"/>
      <point x="616.0" y="219.0" type="curve" smooth="yes"/>
      <point x="432.0" y="219.0"/>
      <point x="365.0" y="367.0"/>
      <point x="365.0" y="528.0" type="curve" smooth="yes"/>
      <point x="365.0" y="682.0"/>
      <point x="436.0" y="821.0"/>
      <point x="608.0" y="821.0" type="curve" smooth="yes"/>
      <point x="729.0" y="821.0"/>
      <point x="801.0" y="754.0"/>
      <point x="838.0" y="645.0" type="curve"/>
      <point x="866.0" y="645.0" type="line"/>
      <point x="850.0" y="856.0" type="line"/>
      <point x="821.0" y="856.0" type="line"/>
      <point x="815.0" y="840.0"/>
      <point x="803.0" y="821.0"/>
      <point x="784.0" y="821.0" type="curve" smooth="yes"/>
      <point x="752.0" y="821.0"/>
      <point x="680.0" y="856.0"/>
      <point x="616.0" y="856.0" type="curve" smooth="yes"/>
      <point x="410.0" y="856.0"/>
      <point x="240.0" y="723.0"/>
      <point x="240.0" y="506.0" type="curve" smooth="yes"/>
      <point x="240.0" y="309.0"/>
      <point x="397.0" y="170.0"/>
      <point x="590.0" y="170.0" type="curve" smooth="yes"/>
      <point x="711.0" y="170.0"/>
      <point x="809.0" y="223.0"/>
      <point x="879.0" y="324.0" type="curve"/>
    </contour>
  </outline>
</glyph>
<glyph name="ordfeminine" format="2">
  <advance width="620"/>
  <unicode hex="00AA"/>
  <note>
ordfeminine
</note>
  <outline>
    <contour>
      <point x="265" y="381" type="curve" smooth="yes"/>
      <point x="310" y="381"/>
      <point x="363" y="402"/>
      <point x="426" y="476" type="curve"/>
      <point x="410" y="478" type="line"/>
      <point x="421" y="426" type="line" smooth="yes"/>
      <point x="426" y="399"/>
      <point x="440" y="381"/>
      <point x="464" y="381" type="curve" smooth="yes"/>
      <point x="477" y="381"/>
      <point x="492" y="386"/>
      <point x="509" y="393" type="curve" smooth="yes"/>
      <point x="582" y="420" type="line"/>
      <point x="582" y="459" type="line"/>
      <point x="501" y="476" type="line"/>
      <point x="500" y="484"/>
      <point x="492" y="513"/>
      <point x="492" y="555" type="curve"/>
      <point x="492" y="772" type="line"/>
      <point x="496" y="885"/>
      <point x="408" y="954"/>
      <point x="294" y="954" type="curve"/>
      <point x="196" y="942"/>
      <point x="94" y="871"/>
      <point x="94" y="815" type="curve" smooth="yes"/>
      <point x="94" y="755"/>
      <point x="145" y="738"/>
      <point x="196" y="755" type="curve"/>
      <point x="200" y="820" type="line" smooth="yes"/>
      <point x="204" y="876"/>
      <point x="212" y="889"/>
      <point x="262" y="889" type="curve" smooth="yes"/>
      <point x="338" y="889"/>
      <point x="408" y="832"/>
      <point x="408" y="775" type="curve" smooth="yes"/>
      <point x="408" y="712" type="line"/>
      <point x="214" y="648" type="line" smooth="yes"/>
      <point x="122" y="616"/>
      <point x="90" y="582"/>
      <point x="90" y="526" type="curve" smooth="yes"/>
      <point x="90" y="459"/>
      <point x="159" y="381"/>
    </contour>
    <contour>
      <point x="293" y="465" type="curve" smooth="yes"/>
      <point x="252" y="465"/>
      <point x="196" y="505"/>
      <point x="196" y="555" type="curve" smooth="yes"/>
      <point x="196" y="589"/>
      <point x="211" y="609"/>
      <point x="259" y="619" type="curve" smooth="yes"/>
      <point x="408" y="650" type="line"/>
      <point x="408" y="518" type="line"/>
      <point x="373" y="478"/>
      <point x="336" y="465"/>
    </contour>
  </outline>
</glyph>
<glyph name="guillemetleft" format="2">
  <advance width="772.0"/>
  <unicode hex="00AB"/>
  <outline>
    <contour>
      <point x="723.0" y="-6.0" type="line"/>
      <point x="539.0" y="350.0" type="line"/>
      <point x="723.0" y="705.0" type="line"/>
      <point x="680.0" y="705.0" type="line"/>
      <point x="383.0" y="350.0" type="line"/>
      <point x="680.0" y="-6.0" type="line"/>
    </contour>
    <contour>
      <point x="381.0" y="-6.0" type="line"/>
      <point x="197.0" y="350.0" type="line"/>
      <point x="381.0" y="705.0" type="line"/>
      <point x="340.0" y="705.0" type="line"/>
      <point x="47.0" y="350.0" type="line"/>
      <point x="340.0" y="-6.0" type="line"/>
    </contour>
  </outline>
</glyph>
<glyph name="logicalnot" format="2">
  <advance width="866"/>
  <unicode hex="00AC"/>
  <outline>
    <contour>
      <point x="781" y="598" type="line"/>
      <point x="85" y="598" type="line"/>
      <point x="85" y="511" type="line"/>
      <point x="702" y="511" type="line"/>
      <point x="702" y="215" type="line"/>
      <point x="781" y="215" type="line"/>
    </contour>
  </outline>
</glyph>
<glyph name="softhyphen" format="2">
  <advance width="514.0"/>
  <unicode hex="00AD"/>
  <outline>
    <contour>
      <point x="451.0" y="289.0" type="line"/>
      <point x="451.0" y="401.0" type="line"/>
      <point x="61.0" y="401.0" type="line"/>
      <point x="61.0" y="289.0" type="line"/>
    </contour>
  </outline>
</glyph>
<glyph name="registered" format="2">
  <advance width="1300"/>
  <unicode hex="00AE"/>
  <outline>
    <contour>
      <point x="388" y="300" type="line"/>
      <point x="391" y="255" type="line"/>
      <point x="638" y="255" type="line"/>
      <point x="642" y="300" type="line"/>
      <point x="561" y="316" type="line"/>
      <point x="558" y="325"/>
      <point x="555" y="367"/>
      <point x="555" y="476" type="curve" smooth="yes"/>
      <point x="555" y="832" type="line"/>
      <point x="624" y="832" type="line" smooth="yes"/>
      <point x="706" y="832"/>
      <point x="754" y="799"/>
      <point x="754" y="722" type="curve" smooth="yes"/>
      <point x="754" y="640"/>
      <point x="698" y="601"/>
      <point x="606" y="601" type="curve" smooth="yes"/>
      <point x="585" y="601"/>
      <point x="564" y="600"/>
      <point x="542" y="603" type="curve"/>
      <point x="542" y="548" type="line"/>
      <point x="613" y="548" type="line" smooth="yes"/>
      <point x="751" y="548"/>
      <point x="850" y="624"/>
      <point x="850" y="728" type="curve" smooth="yes"/>
      <point x="850" y="832"/>
      <point x="776" y="885"/>
      <point x="635" y="885" type="curve"/>
      <point x="386" y="885" type="line"/>
      <point x="385" y="837" type="line"/>
      <point x="457" y="824" type="line"/>
      <point x="460" y="820"/>
      <point x="463" y="773"/>
      <point x="463" y="666" type="curve" smooth="yes"/>
      <point x="463" y="476" type="line" smooth="yes"/>
      <point x="463" y="367"/>
      <point x="460" y="324"/>
      <point x="460" y="316" type="curve"/>
    </contour>
    <contour>
      <point x="887" y="247" type="curve" smooth="yes"/>
      <point x="902" y="247"/>
      <point x="921" y="251"/>
      <point x="937" y="253" type="curve"/>
      <point x="942" y="293" type="line"/>
      <point x="884" y="303"/>
      <point x="852" y="329"/>
      <point x="783" y="414" type="curve" smooth="yes"/>
      <point x="669" y="585" type="line"/>
      <point x="587" y="564" type="line"/>
      <point x="650" y="434" type="line" smooth="yes"/>
      <point x="711" y="303"/>
      <point x="783" y="247"/>
    </contour>
    <contour>
      <point x="651" y="-4" type="curve" smooth="yes"/>
      <point x="967" y="-4"/>
      <point x="1211" y="240"/>
      <point x="1211" y="560" type="curve" smooth="yes"/>
      <point x="1211" y="881"/>
      <point x="967" y="1125"/>
      <point x="651" y="1125" type="curve" smooth="yes"/>
      <point x="332" y="1125"/>
      <point x="88" y="881"/>
      <point x="88" y="560" type="curve" smooth="yes"/>
      <point x="88" y="240"/>
      <point x="333" y="-4"/>
    </contour>
    <contour>
      <point x="651" y="40" type="curve" smooth="yes"/>
      <point x="357" y="40"/>
      <point x="134" y="266"/>
      <point x="134" y="561" type="curve" smooth="yes"/>
      <point x="134" y="855"/>
      <point x="357" y="1080"/>
      <point x="651" y="1080" type="curve" smooth="yes"/>
      <point x="942" y="1080"/>
      <point x="1165" y="855"/>
      <point x="1165" y="561" type="curve" smooth="yes"/>
      <point x="1165" y="266"/>
      <point x="942" y="40"/>
    </contour>
  </outline>
</glyph>
<glyph name="plusminus" format="2">
  <advance width="1485.0"/>
  <unicode hex="00B1"/>
  <outline>
    <contour>
      <point x="1188.0" y="532.0" type="line"/>
      <point x="1188.0" y="625.0" type="line"/>
      <point x="788.0" y="625.0" type="line"/>
      <point x="788.0" y="891.0" type="line"/>
      <point x="696.0" y="891.0" type="line"/>
      <point x="696.0" y="625.0" type="line"/>
      <point x="297.0" y="625.0" type="line"/>
      <point x="297.0" y="532.0" type="line"/>
      <point x="696.0" y="532.0" type="line"/>
      <point x="696.0" y="264.0" type="line"/>
      <point x="788.0" y="264.0" type="line"/>
      <point x="788.0" y="532.0" type="line"/>
    </contour>
    <contour>
      <point x="1188.0" y="0.0" type="line"/>
      <point x="1188.0" y="92.0" type="line"/>
      <point x="297.0" y="92.0" type="line"/>
      <point x="297.0" y="0.0" type="line"/>
    </contour>
  </outline>
</glyph>
<glyph name="threesuperior" format="2">
  <advance width="543.0"/>
  <unicode hex="00B3"/>
  <outline>
    <contour>
      <point x="457.0" y="596.0" type="curve"/>
      <point x="457.0" y="682.0"/>
      <point x="399.0" y="731.0"/>
      <point x="322.0" y="756.0" type="curve"/>
      <point x="365.0" y="786.0"/>
      <point x="420.0" y="836.0"/>
      <point x="420.0" y="893.0" type="curve" smooth="yes"/>
      <point x="420.0" y="983.0"/>
      <point x="324.0" y="1018.0"/>
      <point x="250.0" y="1018.0" type="curve" smooth="yes"/>
      <point x="158.0" y="1018.0"/>
      <point x="92.0" y="967.0"/>
      <point x="51.0" y="889.0" type="curve"/>
      <point x="68.0" y="881.0" type="line"/>
      <point x="102.0" y="928.0"/>
      <point x="150.0" y="956.0"/>
      <point x="209.0" y="956.0" type="curve" smooth="yes"/>
      <point x="272.0" y="956.0"/>
      <point x="332.0" y="922.0"/>
      <point x="332.0" y="852.0" type="curve" smooth="yes"/>
      <point x="332.0" y="764.0"/>
      <point x="240.0" y="719.0"/>
      <point x="164.0" y="711.0" type="curve"/>
      <point x="164.0" y="696.0" type="line"/>
      <point x="266.0" y="694.0"/>
      <point x="377.0" y="664.0"/>
      <point x="377.0" y="541.0" type="curve" smooth="yes"/>
      <point x="377.0" y="469.0"/>
      <point x="305.0" y="420.0"/>
      <point x="240.0" y="420.0" type="curve" smooth="yes"/>
      <point x="178.0" y="420.0"/>
      <point x="131.0" y="461.0"/>
      <point x="84.0" y="461.0" type="curve" smooth="yes"/>
      <point x="61.0" y="461.0"/>
      <point x="41.0" y="457.0"/>
      <point x="41.0" y="430.0" type="curve" smooth="yes"/>
      <point x="41.0" y="383.0"/>
      <point x="135.0" y="381.0"/>
      <point x="166.0" y="381.0" type="curve" smooth="yes"/>
      <point x="299.0" y="381.0"/>
      <point x="457.0" y="438.0"/>
    </contour>
  </outline>
</glyph>
<glyph name="micro" format="2">
  <advance width="874.0"/>
  <unicode hex="00B5"/>
  <outline>
    <contour>
      <point x="786.0" y="156.0" type="line"/>
      <point x="780.0" y="125.0"/>
      <point x="766.0" y="61.0"/>
      <point x="725.0" y="61.0" type="curve" smooth="yes"/>
      <point x="668.0" y="61.0"/>
      <point x="674.0" y="160.0"/>
      <point x="674.0" y="199.0" type="curve" smooth="yes"/>
      <point x="674.0" y="688.0" type="line"/>
      <point x="549.0" y="688.0" type="line"/>
      <point x="549.0" y="172.0" type="line"/>
      <point x="504.0" y="121.0"/>
      <point x="442.0" y="72.0"/>
      <point x="371.0" y="72.0" type="curve" smooth="yes"/>
      <point x="258.0" y="72.0"/>
      <point x="264.0" y="207.0"/>
      <point x="264.0" y="289.0" type="curve" smooth="yes"/>
      <point x="264.0" y="688.0" type="line"/>
      <point x="141.0" y="688.0" type="line"/>
      <point x="141.0" y="143.0" type="line" smooth="yes"/>
      <point x="141.0" y="53.0"/>
      <point x="137.0" y="-39.0"/>
      <point x="117.0" y="-127.0" type="curve" smooth="yes"/>
      <point x="109.0" y="-166.0"/>
      <point x="94.0" y="-213.0"/>
      <point x="94.0" y="-252.0" type="curve" smooth="yes"/>
      <point x="94.0" y="-289.0"/>
      <point x="117.0" y="-334.0"/>
      <point x="160.0" y="-334.0" type="curve" smooth="yes"/>
      <point x="203.0" y="-334.0"/>
      <point x="229.0" y="-289.0"/>
      <point x="229.0" y="-250.0" type="curve" smooth="yes"/>
      <point x="229.0" y="-164.0"/>
      <point x="195.0" y="-80.0"/>
      <point x="195.0" y="8.0" type="curve" smooth="yes"/>
      <point x="195.0" y="43.0" type="line"/>
      <point x="221.0" y="0.0"/>
      <point x="262.0" y="-23.0"/>
      <point x="311.0" y="-23.0" type="curve" smooth="yes"/>
      <point x="408.0" y="-23.0"/>
      <point x="489.0" y="55.0"/>
      <point x="549.0" y="121.0" type="curve"/>
      <point x="557.0" y="53.0"/>
      <point x="584.0" y="-23.0"/>
      <point x="668.0" y="-23.0" type="curve" smooth="yes"/>
      <point x="774.0" y="-23.0"/>
      <point x="811.0" y="61.0"/>
      <point x="817.0" y="156.0" type="curve"/>
    </contour>
  </outline>
</glyph>
<glyph name="paragraph" format="2">
  <advance width="698.0"/>
  <unicode hex="00B6"/>
  <outline>
    <contour>
      <point x="702.0" y="981.0" type="line"/>
      <point x="702.0" y="1022.0" type="line"/>
      <point x="330.0" y="1022.0" type="line" smooth="yes"/>
      <point x="147.0" y="1022.0"/>
      <point x="-10.0" y="942.0"/>
      <point x="-10.0" y="739.0" type="curve" smooth="yes"/>
      <point x="-10.0" y="520.0"/>
      <point x="162.0" y="459.0"/>
      <point x="352.0" y="455.0" type="curve"/>
      <point x="352.0" y="-334.0" type="line"/>
      <point x="408.0" y="-334.0" type="line"/>
      <point x="408.0" y="981.0" type="line"/>
      <point x="547.0" y="981.0" type="line"/>
      <point x="547.0" y="-334.0" type="line"/>
      <point x="602.0" y="-334.0" type="line"/>
      <point x="602.0" y="981.0" type="line"/>
    </contour>
  </outline>
</glyph>
<glyph name="periodcentered" format="2">
  <advance width="279.0"/>
  <unicode hex="00B7"/>
  <outline>
    <contour>
      <point x="227.0" y="506.0" type="curve"/>
      <point x="227.0" y="555.0"/>
      <point x="188.0" y="592.0"/>
      <point x="139.0" y="592.0" type="curve" smooth="yes"/>
      <point x="90.0" y="592.0"/>
      <point x="51.0" y="555.0"/>
      <point x="51.0" y="506.0" type="curve" smooth="yes"/>
      <point x="51.0" y="455.0"/>
      <point x="90.0" y="418.0"/>
      <point x="139.0" y="418.0" type="curve" smooth="yes"/>
      <point x="188.0" y="418.0"/>
      <point x="227.0" y="455.0"/>
    </contour>
  </outline>
</glyph>
<glyph name="onesuperior" format="2">
  <advance width="642"/>
  <unicode hex="00B9"/>
  <note>
uni2081
</note>
  <outline>
    <contour>
      <point x="373" y="536" type="curve" smooth="yes"/>
      <point x="373" y="735" type="line" smooth="yes"/>
      <point x="373" y="812"/>
      <point x="377" y="893"/>
      <point x="378" y="953" type="curve"/>
      <point x="155" y="866" type="line"/>
      <point x="162" y="815" type="line"/>
      <point x="282" y="832" type="line"/>
      <point x="284" y="813"/>
      <point x="285" y="768"/>
      <point x="285" y="714" type="curve" smooth="yes"/>
      <point x="285" y="536" type="line" smooth="yes"/>
      <point x="285" y="433"/>
      <point x="284" y="390"/>
      <point x="282" y="383" type="curve"/>
      <point x="171" y="367" type="line"/>
      <point x="174" y="319" type="line"/>
      <point x="486" y="319" type="line"/>
      <point x="489" y="367" type="line"/>
      <point x="378" y="383" type="line"/>
      <point x="377" y="391"/>
      <point x="373" y="433"/>
    </contour>
  </outline>
</glyph>
<glyph name="ordmasculine" format="2">
  <advance width="654"/>
  <unicode hex="00BA"/>
  <note>
ordmasculine
</note>
  <outline>
    <contour>
      <point x="330" y="381" type="curve" smooth="yes"/>
      <point x="479" y="381"/>
      <point x="597" y="508"/>
      <point x="597" y="670" type="curve" smooth="yes"/>
      <point x="597" y="839"/>
      <point x="492" y="954"/>
      <point x="335" y="954" type="curve" smooth="yes"/>
      <point x="192" y="954"/>
      <point x="56" y="852"/>
      <point x="56" y="666" type="curve" smooth="yes"/>
      <point x="56" y="497"/>
      <point x="166" y="381"/>
    </contour>
    <contour>
      <point x="343" y="441" type="curve" smooth="yes"/>
      <point x="237" y="441"/>
      <point x="160" y="540"/>
      <point x="160" y="686" type="curve" smooth="yes"/>
      <point x="160" y="812"/>
      <point x="224" y="897"/>
      <point x="322" y="897" type="curve" smooth="yes"/>
      <point x="423" y="897"/>
      <point x="492" y="797"/>
      <point x="492" y="646" type="curve" smooth="yes"/>
      <point x="492" y="526"/>
      <point x="431" y="441"/>
    </contour>
  </outline>
</glyph>
<glyph name="guillemetright" format="2">
  <advance width="772.0"/>
  <unicode hex="00BB"/>
  <outline>
    <contour>
      <point x="725.0" y="348.0" type="line"/>
      <point x="432.0" y="705.0" type="line"/>
      <point x="391.0" y="705.0" type="line"/>
      <point x="575.0" y="348.0" type="line"/>
      <point x="391.0" y="-6.0" type="line"/>
      <point x="432.0" y="-6.0" type="line"/>
    </contour>
    <contour>
      <point x="389.0" y="348.0" type="line"/>
      <point x="92.0" y="705.0" type="line"/>
      <point x="49.0" y="705.0" type="line"/>
      <point x="233.0" y="348.0" type="line"/>
      <point x="49.0" y="-6.0" type="line"/>
      <point x="92.0" y="-6.0" type="line"/>
    </contour>
  </outline>
</glyph>
<glyph name="onehalf" format="2">
  <advance width="1188.0"/>
  <unicode hex="00BD"/>
  <outline>
    <contour>
      <point x="1063.0" y="113.0" type="line"/>
      <point x="1044.0" y="113.0" type="line"/>
      <point x="1008.0" y="59.0"/>
      <point x="973.0" y="63.0"/>
      <point x="913.0" y="63.0" type="curve" smooth="yes"/>
      <point x="752.0" y="63.0" type="line"/>
      <point x="846.0" y="162.0"/>
      <point x="1024.0" y="322.0"/>
      <point x="1024.0" y="463.0" type="curve" smooth="yes"/>
      <point x="1024.0" y="563.0"/>
      <point x="942.0" y="627.0"/>
      <point x="848.0" y="627.0" type="curve" smooth="yes"/>
      <point x="741.0" y="627.0"/>
      <point x="684.0" y="551.0"/>
      <point x="672.0" y="453.0" type="curve"/>
      <point x="688.0" y="453.0" type="line"/>
      <point x="711.0" y="518.0"/>
      <point x="754.0" y="557.0"/>
      <point x="823.0" y="557.0" type="curve" smooth="yes"/>
      <point x="899.0" y="557.0"/>
      <point x="946.0" y="492.0"/>
      <point x="946.0" y="422.0" type="curve" smooth="yes"/>
      <point x="946.0" y="270.0"/>
      <point x="756.0" y="106.0"/>
      <point x="653.0" y="12.0" type="curve"/>
      <point x="653.0" y="-6.0" type="line"/>
      <point x="1018.0" y="-6.0" type="line"/>
    </contour>
    <contour>
      <point x="922.0" y="1040.0" type="line"/>
      <point x="850.0" y="1040.0" type="line"/>
      <point x="199.0" y="-12.0" type="line"/>
      <point x="272.0" y="-12.0" type="line"/>
    </contour>
    <contour>
      <point x="371.0" y="395.0" type="line"/>
      <point x="371.0" y="414.0" type="line"/>
      <point x="289.0" y="414.0"/>
      <point x="291.0" y="430.0"/>
      <point x="291.0" y="506.0" type="curve" smooth="yes"/>
      <point x="291.0" y="1028.0" type="line"/>
      <point x="274.0" y="1028.0" type="line"/>
      <point x="125.0" y="954.0" type="line"/>
      <point x="131.0" y="938.0" type="line"/>
      <point x="145.0" y="946.0"/>
      <point x="162.0" y="952.0"/>
      <point x="180.0" y="952.0" type="curve" smooth="yes"/>
      <point x="221.0" y="952.0"/>
      <point x="215.0" y="879.0"/>
      <point x="215.0" y="852.0" type="curve" smooth="yes"/>
      <point x="215.0" y="498.0" type="line" smooth="yes"/>
      <point x="215.0" y="426.0"/>
      <point x="209.0" y="414.0"/>
      <point x="135.0" y="414.0" type="curve"/>
      <point x="135.0" y="395.0" type="line"/>
    </contour>
  </outline>
</glyph>
<glyph name="threequarters" format="2">
  <advance width="1188.0"/>
  <unicode hex="00BE"/>
  <outline>
    <contour>
      <point x="1061.0" y="160.0" type="line"/>
      <point x="1061.0" y="223.0" type="line"/>
      <point x="979.0" y="223.0" type="line"/>
      <point x="979.0" y="627.0" type="line"/>
      <point x="928.0" y="627.0" type="line"/>
      <point x="639.0" y="215.0" type="line"/>
      <point x="639.0" y="160.0" type="line"/>
      <point x="903.0" y="160.0" type="line"/>
      <point x="903.0" y="-6.0" type="line"/>
      <point x="979.0" y="-6.0" type="line"/>
      <point x="979.0" y="160.0" type="line"/>
    </contour>
    <contour>
      <point x="1018.0" y="1040.0" type="line"/>
      <point x="948.0" y="1040.0" type="line"/>
      <point x="246.0" y="-12.0" type="line"/>
      <point x="322.0" y="-12.0" type="line"/>
    </contour>
    <contour>
      <point x="479.0" y="600.0" type="curve"/>
      <point x="479.0" y="680.0"/>
      <point x="438.0" y="733.0"/>
      <point x="365.0" y="762.0" type="curve"/>
      <point x="403.0" y="797.0"/>
      <point x="449.0" y="846.0"/>
      <point x="449.0" y="901.0" type="curve" smooth="yes"/>
      <point x="449.0" y="983.0"/>
      <point x="379.0" y="1028.0"/>
      <point x="305.0" y="1028.0" type="curve" smooth="yes"/>
      <point x="211.0" y="1028.0"/>
      <point x="174.0" y="971.0"/>
      <point x="137.0" y="895.0" type="curve"/>
      <point x="154.0" y="889.0" type="line"/>
      <point x="180.0" y="932.0"/>
      <point x="219.0" y="965.0"/>
      <point x="272.0" y="965.0" type="curve" smooth="yes"/>
      <point x="334.0" y="965.0"/>
      <point x="373.0" y="920.0"/>
      <point x="373.0" y="860.0" type="curve" smooth="yes"/>
      <point x="373.0" y="778.0"/>
      <point x="309.0" y="723.0"/>
      <point x="231.0" y="715.0" type="curve"/>
      <point x="231.0" y="700.0" type="line"/>
      <point x="336.0" y="698.0"/>
      <point x="414.0" y="657.0"/>
      <point x="414.0" y="543.0" type="curve" smooth="yes"/>
      <point x="414.0" y="481.0"/>
      <point x="362.0" y="424.0"/>
      <point x="297.0" y="424.0" type="curve" smooth="yes"/>
      <point x="242.0" y="424.0"/>
      <point x="203.0" y="465.0"/>
      <point x="164.0" y="465.0" type="curve" smooth="yes"/>
      <point x="143.0" y="465.0"/>
      <point x="127.0" y="457.0"/>
      <point x="127.0" y="434.0" type="curve" smooth="yes"/>
      <point x="127.0" y="385.0"/>
      <point x="201.0" y="383.0"/>
      <point x="236.0" y="383.0" type="curve" smooth="yes"/>
      <point x="369.0" y="383.0"/>
      <point x="479.0" y="457.0"/>
    </contour>
    <contour>
      <point x="903.0" y="223.0" type="line"/>
      <point x="684.0" y="223.0" type="line"/>
      <point x="903.0" y="530.0" type="line"/>
    </contour>
  </outline>
</glyph>
<glyph name="questiondown" format="2">
  <advance width="556"/>
  <unicode hex="00BF"/>
  <note>
questiondown
</note>
  <outline>
    <contour>
      <point x="380" y="420" type="curve"/>
      <point x="330" y="420" type="line"/>
      <point x="338" y="399"/>
      <point x="343" y="364"/>
      <point x="343" y="327" type="curve" smooth="yes"/>
      <point x="343" y="202"/>
      <point x="85" y="115"/>
      <point x="85" y="-86" type="curve" smooth="yes"/>
      <point x="85" y="-253"/>
      <point x="210" y="-364"/>
      <point x="417" y="-364" type="curve" smooth="yes"/>
      <point x="497" y="-364"/>
      <point x="529" y="-332"/>
      <point x="529" y="-298" type="curve" smooth="yes"/>
      <point x="529" y="-272"/>
      <point x="510" y="-243"/>
      <point x="459" y="-243" type="curve" smooth="yes"/>
      <point x="417" y="-243"/>
      <point x="373" y="-271"/>
      <point x="327" y="-271" type="curve" smooth="yes"/>
      <point x="231" y="-271"/>
      <point x="162" y="-211"/>
      <point x="162" y="-138" type="curve" smooth="yes"/>
      <point x="162" y="24"/>
      <point x="431" y="171"/>
      <point x="431" y="272" type="curve" smooth="yes"/>
      <point x="431" y="322"/>
      <point x="420" y="364"/>
    </contour>
    <contour>
      <point x="353" y="694" type="curve" smooth="yes"/>
      <point x="308" y="694"/>
      <point x="276" y="664"/>
      <point x="276" y="621" type="curve" smooth="yes"/>
      <point x="276" y="577"/>
      <point x="308" y="548"/>
      <point x="353" y="548" type="curve" smooth="yes"/>
      <point x="399" y="548"/>
      <point x="430" y="577"/>
      <point x="430" y="621" type="curve" smooth="yes"/>
      <point x="430" y="664"/>
      <point x="398" y="694"/>
    </contour>
  </outline>
</glyph>
<glyph name="AE" format="2">
  <advance width="1374.0"/>
  <unicode hex="00C6"/>
  <outline>
    <contour>
      <point x="1330.0" y="258.0" type="line"/>
      <point x="1303.0" y="258.0" type="line"/>
      <point x="1233.0" y="115.0"/>
      <point x="1169.0" y="55.0"/>
      <point x="998.0" y="55.0" type="curve" smooth="yes"/>
      <point x="862.0" y="55.0" type="line" smooth="yes"/>
      <point x="802.0" y="55.0"/>
      <point x="789.0" y="73.0"/>
      <point x="780.0" y="86.0" type="curve" smooth="yes"/>
      <point x="773.0" y="96.0"/>
      <point x="774.0" y="128.0"/>
      <point x="774.0" y="168.0" type="curve" smooth="yes"/>
      <point x="774.0" y="506.0" type="line"/>
      <point x="968.0" y="506.0" type="line" smooth="yes"/>
      <point x="1098.0" y="506.0"/>
      <point x="1117.0" y="477.0"/>
      <point x="1132.0" y="357.0" type="curve"/>
      <point x="1158.0" y="357.0" type="line"/>
      <point x="1158.0" y="710.0" type="line"/>
      <point x="1132.0" y="710.0" type="line"/>
      <point x="1123.0" y="601.0"/>
      <point x="1086.0" y="563.0"/>
      <point x="968.0" y="563.0" type="curve" smooth="yes"/>
      <point x="774.0" y="563.0" type="line"/>
      <point x="774.0" y="967.0" type="line"/>
      <point x="1025.0" y="967.0" type="line" smooth="yes"/>
      <point x="1178.0" y="967.0"/>
      <point x="1195.0" y="939.0"/>
      <point x="1224.0" y="799.0" type="curve"/>
      <point x="1249.0" y="799.0" type="line"/>
      <point x="1238.0" y="1022.0" type="line"/>
      <point x="400.0" y="1022.0" type="line"/>
      <point x="400.0" y="995.0" type="line"/>
      <point x="506.0" y="989.0"/>
      <point x="530.0" y="967.0"/>
      <point x="530.0" y="933.0" type="curve" smooth="yes"/>
      <point x="530.0" y="909.0"/>
      <point x="511.0" y="859.0"/>
      <point x="472.0" y="787.0" type="curve" smooth="yes"/>
      <point x="160.0" y="207.0" type="line" smooth="yes"/>
      <point x="102.0" y="99.0"/>
      <point x="68.0" y="59.0"/>
      <point x="38.0" y="41.0" type="curve" smooth="yes"/>
      <point x="24.0" y="33.0"/>
      <point x="4.0" y="28.0"/>
      <point x="-18.0" y="28.0" type="curve"/>
      <point x="-18.0" y="0.0" type="line"/>
      <point x="303.0" y="0.0" type="line"/>
      <point x="303.0" y="28.0" type="line"/>
      <point x="254.0" y="33.0"/>
      <point x="223.0" y="40.0"/>
      <point x="207.0" y="51.0" type="curve" smooth="yes"/>
      <point x="166.0" y="75.0"/>
      <point x="181.0" y="116.0"/>
      <point x="238.0" y="220.0" type="curve" smooth="yes"/>
      <point x="332.0" y="395.0" type="line"/>
      <point x="630.0" y="395.0" type="line"/>
      <point x="630.0" y="181.0" type="line" smooth="yes"/>
      <point x="630.0" y="119.0"/>
      <point x="624.0" y="81.0"/>
      <point x="612.0" y="65.0" type="curve" smooth="yes"/>
      <point x="591.0" y="40.0"/>
      <point x="561.0" y="28.0"/>
      <point x="519.0" y="28.0" type="curve" smooth="yes"/>
      <point x="482.0" y="28.0" type="line"/>
      <point x="482.0" y="0.0" type="line"/>
      <point x="1249.0" y="0.0" type="line"/>
    </contour>
    <contour>
      <point x="630.0" y="452.0" type="line"/>
      <point x="360.0" y="452.0" type="line"/>
      <point x="630.0" y="967.0" type="line"/>
    </contour>
  </outline>
</glyph>
<glyph name="multiply" format="2">
  <advance width="866"/>
  <unicode hex="00D7"/>
  <outline>
    <contour>
      <point x="711" y="741" type="line"/>
      <point x="99" y="133" type="line"/>
      <point x="158" y="73" type="line"/>
      <point x="767" y="678" type="line"/>
    </contour>
    <contour>
      <point x="158" y="741" type="line"/>
      <point x="99" y="678" type="line"/>
      <point x="711" y="73" type="line"/>
      <point x="767" y="133" type="line"/>
    </contour>
  </outline>
</glyph>
<glyph name="Thorn" format="2">
  <advance width="859.0"/>
  <unicode hex="00DE"/>
  <outline>
    <contour>
      <point x="801.0" y="513.0" type="curve"/>
      <point x="801.0" y="612.0"/>
      <point x="747.0" y="685.0"/>
      <point x="678.0" y="733.0" type="curve" smooth="yes"/>
      <point x="614.0" y="775.0"/>
      <point x="554.0" y="791.0"/>
      <point x="373.0" y="791.0" type="curve" smooth="yes"/>
      <point x="316.0" y="791.0" type="line"/>
      <point x="316.0" y="841.0" type="line" smooth="yes"/>
      <point x="316.0" y="890.0"/>
      <point x="319.0" y="907.0"/>
      <point x="330.0" y="940.0" type="curve" smooth="yes"/>
      <point x="343.0" y="981.0"/>
      <point x="400.0" y="995.0"/>
      <point x="432.0" y="995.0" type="curve" smooth="yes"/>
      <point x="464.0" y="995.0" type="line"/>
      <point x="464.0" y="1022.0" type="line"/>
      <point x="28.0" y="1022.0" type="line"/>
      <point x="28.0" y="995.0" type="line"/>
      <point x="57.0" y="995.0" type="line" smooth="yes"/>
      <point x="113.0" y="995.0"/>
      <point x="153.0" y="970.0"/>
      <point x="162.0" y="940.0" type="curve"/>
      <point x="168.0" y="929.0"/>
      <point x="171.0" y="893.0"/>
      <point x="171.0" y="836.0" type="curve" smooth="yes"/>
      <point x="171.0" y="181.0" type="line" smooth="yes"/>
      <point x="171.0" y="120.0"/>
      <point x="166.0" y="83.0"/>
      <point x="156.0" y="70.0" type="curve" smooth="yes"/>
      <point x="136.0" y="41.0"/>
      <point x="104.0" y="28.0"/>
      <point x="55.0" y="28.0" type="curve" smooth="yes"/>
      <point x="28.0" y="28.0" type="line"/>
      <point x="28.0" y="0.0" type="line"/>
      <point x="464.0" y="0.0" type="line"/>
      <point x="464.0" y="28.0" type="line"/>
      <point x="432.0" y="28.0" type="line" smooth="yes"/>
      <point x="390.0" y="28.0"/>
      <point x="361.0" y="37.0"/>
      <point x="343.0" y="57.0" type="curve" smooth="yes"/>
      <point x="326.0" y="77.0"/>
      <point x="316.0" y="119.0"/>
      <point x="316.0" y="184.0" type="curve" smooth="yes"/>
      <point x="316.0" y="230.0" type="line"/>
      <point x="370.0" y="230.0" type="line" smooth="yes"/>
      <point x="611.0" y="230.0"/>
      <point x="666.0" y="268.0"/>
      <point x="719.0" y="321.0" type="curve" smooth="yes"/>
      <point x="768.0" y="370.0"/>
      <point x="801.0" y="438.0"/>
    </contour>
    <contour>
      <point x="625.0" y="511.0" type="curve"/>
      <point x="625.0" y="382.0"/>
      <point x="551.0" y="282.0"/>
      <point x="350.0" y="282.0" type="curve" smooth="yes"/>
      <point x="316.0" y="282.0" type="line"/>
      <point x="316.0" y="733.0" type="line"/>
      <point x="352.0" y="733.0" type="line" smooth="yes"/>
      <point x="489.0" y="733.0"/>
      <point x="501.0" y="717.0"/>
      <point x="540.0" y="689.0" type="curve" smooth="yes"/>
      <point x="596.0" y="649.0"/>
      <point x="625.0" y="584.0"/>
    </contour>
  </outline>
</glyph>
<glyph name="germandbls" format="2">
  <advance width="871"/>
  <unicode hex="00DF"/>
  <note>
germandbls
</note>
  <outline>
    <contour>
      <point x="617" y="-12" type="curve" smooth="yes"/>
      <point x="749" y="-12"/>
      <point x="841" y="69"/>
      <point x="841" y="176" type="curve" smooth="yes"/>
      <point x="841" y="383"/>
      <point x="499" y="377"/>
      <point x="499" y="577" type="curve" smooth="yes"/>
      <point x="499" y="702"/>
      <point x="658" y="802"/>
      <point x="656" y="938" type="curve" smooth="yes"/>
      <point x="656" y="1046"/>
      <point x="584" y="1120"/>
      <point x="446" y="1120" type="curve" smooth="yes"/>
      <point x="272" y="1120"/>
      <point x="160" y="987"/>
      <point x="160" y="788" type="curve" smooth="yes"/>
      <point x="160" y="609" type="line"/>
      <point x="163" y="292" type="line" smooth="yes"/>
      <point x="165" y="158"/>
      <point x="160" y="115"/>
      <point x="158" y="72" type="curve"/>
      <point x="75" y="51" type="line"/>
      <point x="78" y="0" type="line"/>
      <point x="333" y="0" type="line"/>
      <point x="337" y="51" type="line"/>
      <point x="253" y="72" type="line"/>
      <point x="248" y="134"/>
      <point x="243" y="237"/>
      <point x="243" y="285" type="curve" smooth="yes"/>
      <point x="242" y="820" type="line"/>
      <point x="242" y="961"/>
      <point x="312" y="1062"/>
      <point x="430" y="1062" type="curve" smooth="yes"/>
      <point x="520" y="1062"/>
      <point x="571" y="1003"/>
      <point x="571" y="918" type="curve" smooth="yes"/>
      <point x="571" y="751"/>
      <point x="418" y="678"/>
      <point x="418" y="536" type="curve" smooth="yes"/>
      <point x="418" y="321"/>
      <point x="754" y="325"/>
      <point x="754" y="155" type="curve" smooth="yes"/>
      <point x="754" y="81"/>
      <point x="701" y="43"/>
      <point x="635" y="43" type="curve" smooth="yes"/>
      <point x="590" y="43"/>
      <point x="552" y="56"/>
      <point x="513" y="80" type="curve"/>
      <point x="484" y="195" type="line"/>
      <point x="417" y="195" type="line"/>
      <point x="420" y="35" type="line"/>
      <point x="478" y="3"/>
      <point x="553" y="-12"/>
    </contour>
    <contour>
      <point x="46" y="609" type="line"/>
      <point x="210" y="609" type="line"/>
      <point x="210" y="678" type="line"/>
      <point x="160" y="678" type="line"/>
      <point x="46" y="651" type="line"/>
    </contour>
  </outline>
</glyph>
<glyph name="ae" format="2">
  <advance width="1104"/>
  <unicode hex="00E6"/>
  <note>
ae
</note>
  <anchor x="550" y="0" name="bottom"/>
  <anchor x="550" y="682" name="top"/>
  <outline>
    <contour>
      <point x="324" y="-12" type="curve" smooth="yes"/>
      <point x="430" y="-12"/>
      <point x="473" y="19"/>
      <point x="582" y="141" type="curve"/>
      <point x="539" y="176" type="line"/>
      <point x="470" y="91"/>
      <point x="417" y="57"/>
      <point x="357" y="57" type="curve" smooth="yes"/>
      <point x="282" y="57"/>
      <point x="219" y="107"/>
      <point x="219" y="171" type="curve" smooth="yes"/>
      <point x="219" y="223"/>
      <point x="251" y="247"/>
      <point x="296" y="256" type="curve" smooth="yes"/>
      <point x="1038" y="412" type="line"/>
      <point x="1038" y="585"/>
      <point x="940" y="694"/>
      <point x="797" y="694" type="curve" smooth="yes"/>
      <point x="693" y="694"/>
      <point x="611" y="638"/>
      <point x="566" y="552" type="curve"/>
      <point x="576" y="552" type="line"/>
      <point x="552" y="648"/>
      <point x="452" y="694"/>
      <point x="356" y="694" type="curve"/>
      <point x="226" y="677"/>
      <point x="120" y="593"/>
      <point x="120" y="534" type="curve" smooth="yes"/>
      <point x="120" y="483"/>
      <point x="181" y="468"/>
      <point x="234" y="483" type="curve"/>
      <point x="235" y="534" type="line" smooth="yes"/>
      <point x="239" y="603"/>
      <point x="248" y="629"/>
      <point x="317" y="629" type="curve" smooth="yes"/>
      <point x="410" y="629"/>
      <point x="507" y="574"/>
      <point x="507" y="467" type="curve" smooth="yes"/>
      <point x="507" y="332" type="line" smooth="yes"/>
      <point x="507" y="112"/>
      <point x="624" y="-12"/>
      <point x="794" y="-12" type="curve" smooth="yes"/>
      <point x="893" y="-12"/>
      <point x="975" y="35"/>
      <point x="1036" y="138" type="curve"/>
      <point x="1001" y="171" type="line"/>
      <point x="940" y="94"/>
      <point x="887" y="72"/>
      <point x="820" y="72" type="curve" smooth="yes"/>
      <point x="686" y="72"/>
      <point x="595" y="165"/>
      <point x="595" y="349" type="curve" smooth="yes"/>
      <point x="595" y="412" type="line" smooth="yes"/>
      <point x="595" y="536"/>
      <point x="674" y="640"/>
      <point x="786" y="640" type="curve" smooth="yes"/>
      <point x="881" y="640"/>
      <point x="940" y="560"/>
      <point x="940" y="439" type="curve" smooth="yes"/>
      <point x="940" y="409" type="line"/>
      <point x="954" y="449" type="line"/>
      <point x="301" y="312" type="line" smooth="yes"/>
      <point x="174" y="285"/>
      <point x="113" y="234"/>
      <point x="113" y="152" type="curve" smooth="yes"/>
      <point x="113" y="49"/>
      <point x="227" y="-12"/>
    </contour>
  </outline>
</glyph>
<glyph name="eth" format="2">
  <advance width="773.0"/>
  <unicode hex="00F0"/>
  <outline>
    <contour>
      <point x="716.0" y="357.0" type="curve"/>
      <point x="716.0" y="548.0"/>
      <point x="612.0" y="756.0"/>
      <point x="427.0" y="921.0" type="curve"/>
      <point x="600.0" y="1019.0" type="line"/>
      <point x="574.0" y="1061.0" type="line"/>
      <point x="386.0" y="957.0" type="line"/>
      <point x="321.0" y="1004.0"/>
      <point x="260.0" y="1043.0"/>
      <point x="199.0" y="1073.0" type="curve"/>
      <point x="180.0" y="1040.0" type="line"/>
      <point x="236.0" y="1000.0"/>
      <point x="255.0" y="987.0"/>
      <point x="321.0" y="921.0" type="curve"/>
      <point x="146.0" y="822.0" type="line"/>
      <point x="166.0" y="780.0" type="line"/>
      <point x="353.0" y="883.0" type="line"/>
      <point x="410.0" y="817.0"/>
      <point x="456.0" y="743.0"/>
      <point x="496.0" y="661.0" type="curve"/>
      <point x="437.0" y="704.0"/>
      <point x="411.0" y="704.0"/>
      <point x="369.0" y="704.0" type="curve" smooth="yes"/>
      <point x="184.0" y="704.0"/>
      <point x="51.0" y="526.0"/>
      <point x="51.0" y="333.0" type="curve" smooth="yes"/>
      <point x="51.0" y="131.0"/>
      <point x="194.0" y="-22.0"/>
      <point x="377.0" y="-22.0" type="curve" smooth="yes"/>
      <point x="591.0" y="-22.0"/>
      <point x="716.0" y="166.0"/>
    </contour>
    <contour>
      <point x="577.0" y="284.0" type="curve"/>
      <point x="577.0" y="105.0"/>
      <point x="506.0" y="33.0"/>
      <point x="413.0" y="33.0" type="curve" smooth="yes"/>
      <point x="278.0" y="33.0"/>
      <point x="189.0" y="192.0"/>
      <point x="190.0" y="391.0" type="curve" smooth="yes"/>
      <point x="192.0" y="596.0"/>
      <point x="273.0" y="659.0"/>
      <point x="361.0" y="659.0" type="curve" smooth="yes"/>
      <point x="490.0" y="659.0"/>
      <point x="577.0" y="513.0"/>
    </contour>
  </outline>
</glyph>
<glyph name="divide" format="2">
  <advance width="893.0"/>
  <unicode hex="00F7"/>
  <outline>
    <contour>
      <point x="791.0" y="475.0" type="line"/>
      <point x="117.0" y="475.0" type="line"/>
      <point x="117.0" y="383.0" type="line"/>
      <point x="791.0" y="383.0" type="line"/>
    </contour>
    <contour>
      <point x="360.0" y="696.0" type="curve"/>
      <point x="360.0" y="645.0"/>
      <point x="401.0" y="604.0"/>
      <point x="453.0" y="604.0" type="curve" smooth="yes"/>
      <point x="504.0" y="604.0"/>
      <point x="547.0" y="645.0"/>
      <point x="547.0" y="696.0" type="curve" smooth="yes"/>
      <point x="547.0" y="748.0"/>
      <point x="504.0" y="791.0"/>
      <point x="453.0" y="791.0" type="curve" smooth="yes"/>
      <point x="401.0" y="791.0"/>
      <point x="360.0" y="748.0"/>
    </contour>
    <contour>
      <point x="360.0" y="162.0" type="curve"/>
      <point x="360.0" y="109.0"/>
      <point x="401.0" y="68.0"/>
      <point x="453.0" y="68.0" type="curve" smooth="yes"/>
      <point x="504.0" y="68.0"/>
      <point x="547.0" y="109.0"/>
      <point x="547.0" y="162.0" type="curve" smooth="yes"/>
      <point x="547.0" y="213.0"/>
      <point x="504.0" y="254.0"/>
      <point x="453.0" y="254.0" type="curve" smooth="yes"/>
      <point x="401.0" y="254.0"/>
      <point x="360.0" y="213.0"/>
    </contour>
  </outline>
</glyph>
<glyph name="idotless" format="2">
  <advance width="409"/>
  <unicode hex="0131"/>
  <note>
dotlessi
</note>
  <anchor x="203" y="0" name="bottom"/>
  <anchor x="296" y="0" name="ogonek"/>
  <anchor x="203" y="682" name="top"/>
  <outline>
    <contour>
      <point x="54" y="0" type="line"/>
      <point x="357" y="0" type="line"/>
      <point x="361" y="51" type="line"/>
      <point x="253" y="72" type="line"/>
      <point x="250" y="88"/>
      <point x="247" y="155"/>
      <point x="247" y="264" type="curve" smooth="yes"/>
      <point x="247" y="467" type="line" smooth="yes"/>
      <point x="247" y="552"/>
      <point x="250" y="608"/>
      <point x="255" y="674" type="curve"/>
      <point x="240" y="691" type="line"/>
      <point x="46" y="640" type="line"/>
      <point x="46" y="595" type="line"/>
      <point x="154" y="572" type="line"/>
      <point x="157" y="542"/>
      <point x="163" y="449"/>
      <point x="163" y="345" type="curve"/>
      <point x="163" y="248" type="line"/>
      <point x="162" y="102"/>
      <point x="160" y="83"/>
      <point x="158" y="72" type="curve"/>
      <point x="51" y="51" type="line"/>
    </contour>
  </outline>
</glyph>
<glyph name="OE" format="2">
  <advance width="1466"/>
  <unicode hex="0152"/>
  <note>
OE
</note>
  <anchor x="836" y="0" name="bottom"/>
  <anchor x="836" y="942" name="top"/>
  <outline>
    <contour>
      <point x="633" y="-14" type="curve" smooth="yes"/>
      <point x="717" y="-14"/>
      <point x="802" y="0"/>
      <point x="852" y="0" type="curve" smooth="yes"/>
      <point x="1231" y="0" type="line" smooth="yes"/>
      <point x="1261" y="0"/>
      <point x="1279" y="0"/>
      <point x="1348" y="-8" type="curve"/>
      <point x="1407" y="215" type="line"/>
      <point x="1344" y="227" type="line"/>
      <point x="1263" y="78" type="line"/>
      <point x="1250" y="73"/>
      <point x="1213" y="72"/>
      <point x="1149" y="72" type="curve" smooth="yes"/>
      <point x="971" y="72" type="line" smooth="yes"/>
      <point x="948" y="72"/>
      <point x="922" y="73"/>
      <point x="887" y="78" type="curve"/>
      <point x="885" y="93"/>
      <point x="884" y="171"/>
      <point x="884" y="215" type="curve" smooth="yes"/>
      <point x="884" y="694" type="line" smooth="yes"/>
      <point x="884" y="754"/>
      <point x="885" y="857"/>
      <point x="887" y="866" type="curve"/>
      <point x="913" y="871"/>
      <point x="951" y="873"/>
      <point x="982" y="873" type="curve" smooth="yes"/>
      <point x="1186" y="873" type="line" smooth="yes"/>
      <point x="1208" y="873"/>
      <point x="1231" y="871"/>
      <point x="1240" y="869" type="curve"/>
      <point x="1292" y="738" type="line"/>
      <point x="1354" y="747" type="line"/>
      <point x="1327" y="948" type="line"/>
      <point x="1259" y="942"/>
      <point x="1242" y="942"/>
      <point x="1206" y="942" type="curve" smooth="yes"/>
      <point x="820" y="942" type="line" smooth="yes"/>
      <point x="752" y="942"/>
      <point x="691" y="953"/>
      <point x="608" y="953" type="curve" smooth="yes"/>
      <point x="312" y="953"/>
      <point x="89" y="760"/>
      <point x="89" y="462" type="curve" smooth="yes"/>
      <point x="89" y="158"/>
      <point x="287" y="-14"/>
    </contour>
    <contour>
      <point x="643" y="57" type="curve" smooth="yes"/>
      <point x="377" y="57"/>
      <point x="216" y="215"/>
      <point x="216" y="479" type="curve" smooth="yes"/>
      <point x="216" y="722"/>
      <point x="356" y="881"/>
      <point x="601" y="881" type="curve" smooth="yes"/>
      <point x="667" y="881"/>
      <point x="720" y="874"/>
      <point x="781" y="858" type="curve"/>
      <point x="786" y="812"/>
      <point x="788" y="741"/>
      <point x="788" y="640" type="curve" smooth="yes"/>
      <point x="788" y="309" type="line" smooth="yes"/>
      <point x="788" y="157"/>
      <point x="788" y="110"/>
      <point x="784" y="78" type="curve"/>
      <point x="746" y="65"/>
      <point x="693" y="57"/>
    </contour>
    <contour>
      <point x="1181" y="332" type="line"/>
      <point x="1239" y="332" type="line"/>
      <point x="1239" y="638" type="line"/>
      <point x="1181" y="638" type="line"/>
      <point x="1162" y="524" type="line"/>
      <point x="1149" y="520"/>
      <point x="1128" y="520"/>
      <point x="1096" y="520" type="curve" smooth="yes"/>
      <point x="964" y="520" type="line" smooth="yes"/>
      <point x="940" y="520"/>
      <point x="908" y="520"/>
      <point x="865" y="521" type="curve"/>
      <point x="865" y="446" type="line"/>
      <point x="908" y="447"/>
      <point x="940" y="449"/>
      <point x="964" y="449" type="curve" smooth="yes"/>
      <point x="1096" y="449" type="line" smooth="yes"/>
      <point x="1128" y="449"/>
      <point x="1149" y="447"/>
      <point x="1162" y="442" type="curve"/>
    </contour>
  </outline>
</glyph>
<glyph name="oe" format="2">
  <advance width="1251"/>
  <unicode hex="0153"/>
  <note>
oe
</note>
  <anchor x="677" y="0" name="bottom"/>
  <anchor x="677" y="682" name="top"/>
  <outline>
    <contour>
      <point x="402" y="-12" type="curve" smooth="yes"/>
      <point x="577" y="-12"/>
      <point x="691" y="147"/>
      <point x="691" y="341" type="curve" smooth="yes"/>
      <point x="691" y="552"/>
      <point x="582" y="694"/>
      <point x="394" y="694" type="curve" smooth="yes"/>
      <point x="231" y="694"/>
      <point x="72" y="560"/>
      <point x="72" y="343" type="curve" smooth="yes"/>
      <point x="72" y="133"/>
      <point x="200" y="-12"/>
    </contour>
    <contour>
      <point x="415" y="49" type="curve" smooth="yes"/>
      <point x="295" y="49"/>
      <point x="176" y="142"/>
      <point x="176" y="348" type="curve" smooth="yes"/>
      <point x="176" y="524"/>
      <point x="261" y="633"/>
      <point x="396" y="633" type="curve" smooth="yes"/>
      <point x="528" y="633"/>
      <point x="622" y="515"/>
      <point x="622" y="330" type="curve" smooth="yes"/>
      <point x="622" y="165"/>
      <point x="536" y="49"/>
    </contour>
    <contour>
      <point x="927" y="-12" type="curve" smooth="yes"/>
      <point x="1040" y="-12"/>
      <point x="1125" y="35"/>
      <point x="1186" y="138" type="curve"/>
      <point x="1149" y="170" type="line"/>
      <point x="1088" y="94"/>
      <point x="1032" y="72"/>
      <point x="961" y="72" type="curve" smooth="yes"/>
      <point x="831" y="72"/>
      <point x="730" y="176"/>
      <point x="730" y="354" type="curve" smooth="yes"/>
      <point x="730" y="393" type="line" smooth="yes"/>
      <point x="730" y="526"/>
      <point x="812" y="640"/>
      <point x="929" y="640" type="curve" smooth="yes"/>
      <point x="1006" y="640"/>
      <point x="1093" y="592"/>
      <point x="1093" y="433" type="curve" smooth="yes"/>
      <point x="1093" y="409" type="line"/>
      <point x="1110" y="422" type="line"/>
      <point x="712" y="422" type="line"/>
      <point x="712" y="357" type="line"/>
      <point x="1186" y="357" type="line"/>
      <point x="1186" y="378" type="line" smooth="yes"/>
      <point x="1186" y="597"/>
      <point x="1078" y="693"/>
      <point x="940" y="694" type="curve" smooth="yes"/>
      <point x="789" y="698"/>
      <point x="643" y="574"/>
      <point x="643" y="341" type="curve" smooth="yes"/>
      <point x="643" y="109"/>
      <point x="768" y="-12"/>
    </contour>
  </outline>
</glyph>
<glyph name="florin" format="2">
  <advance width="543"/>
  <unicode hex="0192"/>
  <outline>
    <contour>
      <point x="99" y="-364" type="curve" smooth="yes"/>
      <point x="194" y="-364"/>
      <point x="293" y="-247"/>
      <point x="293" y="75" type="curve" smooth="yes"/>
      <point x="293" y="609" type="line"/>
      <point x="290" y="678" type="line"/>
      <point x="290" y="826" type="line" smooth="yes"/>
      <point x="290" y="1004"/>
      <point x="348" y="1065"/>
      <point x="412" y="1076" type="curve"/>
      <point x="472" y="1022" type="line" smooth="yes"/>
      <point x="496" y="999"/>
      <point x="512" y="990"/>
      <point x="539" y="990" type="curve" smooth="yes"/>
      <point x="563" y="990"/>
      <point x="581" y="1007"/>
      <point x="581" y="1030" type="curve" smooth="yes"/>
      <point x="581" y="1076"/>
      <point x="523" y="1120"/>
      <point x="443" y="1120" type="curve" smooth="yes"/>
      <point x="310" y="1120"/>
      <point x="212" y="1003"/>
      <point x="212" y="792" type="curve" smooth="yes"/>
      <point x="212" y="-8" type="line"/>
      <point x="212" y="-248"/>
      <point x="154" y="-309"/>
      <point x="130" y="-321" type="curve"/>
      <point x="70" y="-266" type="line" smooth="yes"/>
      <point x="46" y="-243"/>
      <point x="30" y="-234"/>
      <point x="1" y="-234" type="curve" smooth="yes"/>
      <point x="-20" y="-234"/>
      <point x="-38" y="-251"/>
      <point x="-38" y="-274" type="curve" smooth="yes"/>
      <point x="-38" y="-321"/>
      <point x="19" y="-364"/>
    </contour>
    <contour>
      <point x="98" y="609" type="line"/>
      <point x="476" y="609" type="line"/>
      <point x="476" y="678" type="line"/>
      <point x="343" y="678" type="line"/>
      <point x="212" y="678" type="line"/>
      <point x="171" y="667"/>
      <point x="138" y="658"/>
      <point x="98" y="651" type="curve"/>
    </contour>
  </outline>
</glyph>
<glyph name="jdotless" format="2">
  <advance width="383"/>
  <unicode hex="0237"/>
  <note>
uni0237
</note>
  <anchor x="203" y="682" name="above"/>
  <outline>
    <contour>
      <point x="20" y="-370" type="line"/>
      <point x="199" y="-277"/>
      <point x="247" y="-170"/>
      <point x="247" y="-16" type="curve"/>
      <point x="245" y="475" type="line"/>
      <point x="245" y="566"/>
      <point x="248" y="619"/>
      <point x="253" y="672" type="curve"/>
      <point x="239" y="691" type="line"/>
      <point x="44" y="640" type="line"/>
      <point x="44" y="595" type="line"/>
      <point x="152" y="576" type="line"/>
      <point x="154" y="566"/>
      <point x="163" y="495"/>
      <point x="163" y="399" type="curve"/>
      <point x="162" y="-32" type="line"/>
      <point x="162" y="-184"/>
      <point x="109" y="-261"/>
      <point x="-4" y="-325" type="curve"/>
    </contour>
  </outline>
</glyph>
<glyph name="circumflex" format="2">
  <advance width="483.0"/>
  <unicode hex="02C6"/>
  <anchor x="242.0" y="770.0" name="_above"/>
  <outline>
    <contour>
      <point x="483.0" y="786.0" type="line"/>
      <point x="291.0" y="1044.0" type="line"/>
      <point x="195.0" y="1044.0" type="line"/>
      <point x="0.0" y="786.0" type="line"/>
      <point x="53.0" y="786.0" type="line"/>
      <point x="242.0" y="946.0" type="line"/>
      <point x="430.0" y="786.0" type="line"/>
    </contour>
  </outline>
</glyph>
<glyph name="caron" format="2">
  <advance width="485.0"/>
  <unicode hex="02C7"/>
  <anchor x="242.0" y="760.0" name="_above"/>
  <outline>
    <contour>
      <point x="485.0" y="1045.0" type="line"/>
      <point x="431.0" y="1045.0" type="line"/>
      <point x="242.0" y="886.0" type="line"/>
      <point x="54.0" y="1045.0" type="line"/>
      <point x="0.0" y="1045.0" type="line"/>
      <point x="194.0" y="786.0" type="line"/>
      <point x="291.0" y="786.0" type="line"/>
    </contour>
  </outline>
</glyph>
<glyph name="colontriangularmod" format="2">
  <advance width="296"/>
  <unicode hex="02D0"/>
  <anchor x="223" y="-100" name="L"/>
  <anchor x="223" y="1091" name="U"/>
  <outline>
    <contour>
      <point x="180" y="477" type="line"/>
      <point x="241" y="690" type="line"/>
      <point x="55" y="690" type="line"/>
      <point x="116" y="477" type="line"/>
    </contour>
    <contour>
      <point x="241" y="0" type="line"/>
      <point x="180" y="213" type="line"/>
      <point x="116" y="213" type="line"/>
      <point x="55" y="0" type="line"/>
    </contour>
  </outline>
</glyph>
<glyph name="ring" format="2">
  <advance width="288.0"/>
  <unicode hex="02DA"/>
  <anchor x="144.0" y="760.0" name="_above"/>
  <outline>
    <contour>
      <point x="288.0" y="930.0" type="curve"/>
      <point x="288.0" y="1019.0"/>
      <point x="217.0" y="1074.0"/>
      <point x="146.0" y="1074.0" type="curve" smooth="yes"/>
      <point x="68.0" y="1074.0"/>
      <point x="0.0" y="1016.0"/>
      <point x="0.0" y="930.0" type="curve" smooth="yes"/>
      <point x="0.0" y="844.0"/>
      <point x="74.0" y="786.0"/>
      <point x="146.0" y="786.0" type="curve" smooth="yes"/>
      <point x="217.0" y="786.0"/>
      <point x="288.0" y="844.0"/>
    </contour>
    <contour>
      <point x="236.0" y="930.0" type="curve"/>
      <point x="236.0" y="881.0"/>
      <point x="196.0" y="838.0"/>
      <point x="146.0" y="838.0" type="curve" smooth="yes"/>
      <point x="98.0" y="838.0"/>
      <point x="52.0" y="872.0"/>
      <point x="52.0" y="930.0" type="curve" smooth="yes"/>
      <point x="52.0" y="985.0"/>
      <point x="95.0" y="1022.0"/>
      <point x="146.0" y="1022.0" type="curve" smooth="yes"/>
      <point x="192.0" y="1022.0"/>
      <point x="236.0" y="985.0"/>
    </contour>
  </outline>
</glyph>
<glyph name="tilde" format="2">
  <advance width="514.0"/>
  <unicode hex="02DC"/>
  <anchor x="257.0" y="760.0" name="_above"/>
  <outline>
    <contour>
      <point x="474.0" y="1013.0" type="line"/>
      <point x="462.0" y="964.0"/>
      <point x="416.0" y="937.0"/>
      <point x="367.0" y="937.0" type="curve" smooth="yes"/>
      <point x="288.0" y="937.0"/>
      <point x="250.0" y="1005.0"/>
      <point x="171.0" y="1005.0" type="curve" smooth="yes"/>
      <point x="74.0" y="1005.0"/>
      <point x="21.0" y="937.0"/>
      <point x="0.0" y="848.0" type="curve"/>
      <point x="40.0" y="848.0" type="line"/>
      <point x="44.0" y="883.0"/>
      <point x="86.0" y="920.0"/>
      <point x="128.0" y="920.0" type="curve" smooth="yes"/>
      <point x="227.0" y="920.0"/>
      <point x="238.0" y="848.0"/>
      <point x="350.0" y="848.0" type="curve" smooth="yes"/>
      <point x="437.0" y="848.0"/>
      <point x="505.0" y="930.0"/>
      <point x="514.0" y="1013.0" type="curve"/>
    </contour>
  </outline>
</glyph>
<glyph name="gravecomb" format="2">
  <unicode hex="0300"/>
  <note>
gravecomb
</note>
  <anchor x="481" y="682" name="_above"/>
  <anchor x="481" y="1102" name="above"/>
  <outline>
    <contour>
      <point x="455" y="773" type="line"/>
      <point x="507" y="789" type="line"/>
      <point x="348" y="1086" type="line"/>
      <point x="245" y="1049" type="line"/>
    </contour>
  </outline>
</glyph>
<glyph name="circumflexcomb" format="2">
  <unicode hex="0302"/>
  <note>
uni0302
</note>
  <anchor x="481" y="682" name="_top"/>
  <anchor x="481" y="1102" name="top"/>
  <outline>
    <contour>
      <point x="690" y="789" type="line"/>
      <point x="528" y="1062" type="line"/>
      <point x="434" y="1062" type="line"/>
      <point x="272" y="789" type="line"/>
      <point x="322" y="773" type="line"/>
      <point x="528" y="1025" type="line"/>
      <point x="434" y="1025" type="line"/>
      <point x="640" y="773" type="line"/>
    </contour>
  </outline>
</glyph>
<glyph name="tildecomb" format="2">
  <unicode hex="0303"/>
  <note>
tildecomb
</note>
  <anchor x="481" y="682" name="_above"/>
  <anchor x="481" y="1102" name="above"/>
  <outline>
    <contour>
      <point x="699" y="1004" type="line"/>
      <point x="672" y="958"/>
      <point x="648" y="924"/>
      <point x="603" y="924" type="curve" smooth="yes"/>
      <point x="531" y="924"/>
      <point x="452" y="1017"/>
      <point x="370" y="1017" type="curve" smooth="yes"/>
      <point x="306" y="1017"/>
      <point x="250" y="959"/>
      <point x="219" y="876" type="curve"/>
      <point x="263" y="852" type="line"/>
      <point x="290" y="900"/>
      <point x="311" y="932"/>
      <point x="361" y="932" type="curve" smooth="yes"/>
      <point x="431" y="932"/>
      <point x="510" y="839"/>
      <point x="592" y="839" type="curve" smooth="yes"/>
      <point x="656" y="839"/>
      <point x="712" y="897"/>
      <point x="743" y="980" type="curve"/>
    </contour>
  </outline>
</glyph>
<glyph name="dieresiscomb" format="2">
  <unicode hex="0308"/>
  <note>
uni0308
</note>
  <anchor x="481" y="682" name="_top"/>
  <anchor x="481" y="1076" name="top"/>
  <outline>
    <contour>
      <point x="365" y="860" type="curve" smooth="yes"/>
      <point x="401" y="860"/>
      <point x="431" y="885"/>
      <point x="431" y="927" type="curve" smooth="yes"/>
      <point x="431" y="967"/>
      <point x="401" y="995"/>
      <point x="365" y="995" type="curve" smooth="yes"/>
      <point x="329" y="995"/>
      <point x="296" y="967"/>
      <point x="296" y="927" type="curve" smooth="yes"/>
      <point x="296" y="885"/>
      <point x="329" y="860"/>
    </contour>
    <contour>
      <point x="600" y="860" type="curve" smooth="yes"/>
      <point x="635" y="860"/>
      <point x="666" y="885"/>
      <point x="666" y="927" type="curve" smooth="yes"/>
      <point x="666" y="967"/>
      <point x="635" y="995"/>
      <point x="600" y="995" type="curve" smooth="yes"/>
      <point x="563" y="995"/>
      <point x="531" y="967"/>
      <point x="531" y="927" type="curve" smooth="yes"/>
      <point x="531" y="885"/>
      <point x="563" y="860"/>
    </contour>
  </outline>
</glyph>
<glyph name="cedillacomb" format="2">
  <unicode hex="0327"/>
  <note>
uni0327
</note>
  <anchor x="481" y="0" name="_below"/>
  <outline>
    <contour>
      <point x="438" y="-357" type="curve" smooth="yes"/>
      <point x="544" y="-357"/>
      <point x="624" y="-295"/>
      <point x="624" y="-213" type="curve" smooth="yes"/>
      <point x="624" y="-134"/>
      <point x="552" y="-88"/>
      <point x="449" y="-88" type="curve"/>
      <point x="436" y="-139" type="line"/>
      <point x="548" y="20" type="line"/>
      <point x="473" y="20" type="line"/>
      <point x="380" y="-141" type="line"/>
      <point x="404" y="-171" type="line"/>
      <point x="483" y="-160"/>
      <point x="529" y="-190"/>
      <point x="529" y="-234" type="curve" smooth="yes"/>
      <point x="529" y="-277"/>
      <point x="492" y="-298"/>
      <point x="451" y="-298" type="curve" smooth="yes"/>
      <point x="404" y="-298"/>
      <point x="361" y="-282"/>
      <point x="325" y="-260" type="curve"/>
      <point x="296" y="-319" type="line"/>
      <point x="338" y="-343"/>
      <point x="388" y="-357"/>
    </contour>
  </outline>
</glyph>
<glyph name="ogonekcomb" format="2">
  <unicode hex="0328"/>
  <note>
uni0328
</note>
  <anchor x="491" y="0" name="_ogonek"/>
  <outline>
    <contour>
      <point x="410" y="-357" type="curve" smooth="yes"/>
      <point x="476" y="-357"/>
      <point x="532" y="-324"/>
      <point x="571" y="-277" type="curve"/>
      <point x="540" y="-243" type="line"/>
      <point x="510" y="-276"/>
      <point x="475" y="-300"/>
      <point x="430" y="-300" type="curve" smooth="yes"/>
      <point x="369" y="-300"/>
      <point x="332" y="-261"/>
      <point x="332" y="-202" type="curve" smooth="yes"/>
      <point x="332" y="-130"/>
      <point x="385" y="-60"/>
      <point x="491" y="0" type="curve"/>
      <point x="481" y="25" type="line"/>
      <point x="340" y="-30"/>
      <point x="240" y="-118"/>
      <point x="240" y="-219" type="curve" smooth="yes"/>
      <point x="240" y="-295"/>
      <point x="300" y="-357"/>
    </contour>
  </outline>
</glyph>
<glyph name="Delta" format="2">
  <advance width="1014"/>
  <unicode hex="0394"/>
  <note>
uni2206
</note>
  <outline>
    <contour>
      <point x="16" y="0" type="line"/>
      <point x="998" y="0" type="line"/>
      <point x="510" y="974" type="line"/>
    </contour>
    <contour>
      <point x="125" y="30" type="line"/>
      <point x="536" y="837" type="line"/>
      <point x="465" y="773" type="line"/>
      <point x="844" y="30" type="line"/>
      <point x="903" y="85" type="line"/>
      <point x="65" y="85" type="line"/>
    </contour>
  </outline>
</glyph>
<glyph name="mu" format="2">
  <advance width="847"/>
  <unicode hex="03BC"/>
  <outline>
    <contour>
      <point x="690" y="96" type="line"/>
      <point x="687" y="125"/>
      <point x="679" y="192"/>
      <point x="679" y="343" type="curve" smooth="yes"/>
      <point x="679" y="451" type="line" smooth="yes"/>
      <point x="679" y="574"/>
      <point x="682" y="621"/>
      <point x="682" y="672" type="curve"/>
      <point x="666" y="691" type="line"/>
      <point x="481" y="640" type="line"/>
      <point x="481" y="595" type="line"/>
      <point x="590" y="572" type="line"/>
      <point x="595" y="529"/>
      <point x="598" y="444"/>
      <point x="598" y="375" type="curve" smooth="yes"/>
      <point x="598" y="178" type="line"/>
      <point x="547" y="96"/>
      <point x="473" y="67"/>
      <point x="414" y="67" type="curve" smooth="yes"/>
      <point x="313" y="67"/>
      <point x="237" y="118"/>
      <point x="237" y="264" type="curve" smooth="yes"/>
      <point x="237" y="459" type="line" smooth="yes"/>
      <point x="237" y="536"/>
      <point x="239" y="600"/>
      <point x="242" y="669" type="curve"/>
      <point x="223" y="691" type="line"/>
      <point x="40" y="640" type="line"/>
      <point x="40" y="595" type="line"/>
      <point x="149" y="572" type="line"/>
      <point x="152" y="515"/>
      <point x="155" y="452"/>
      <point x="155" y="337" type="curve" smooth="yes"/>
      <point x="155" y="170"/>
      <point x="136" y="-70"/>
      <point x="136" y="-261" type="curve" smooth="yes"/>
      <point x="136" y="-327"/>
      <point x="154" y="-364"/>
      <point x="192" y="-364" type="curve" smooth="yes"/>
      <point x="231" y="-364"/>
      <point x="253" y="-333"/>
      <point x="253" y="-287" type="curve" smooth="yes"/>
      <point x="253" y="-194"/>
      <point x="221" y="-46"/>
      <point x="215" y="152" type="curve"/>
      <point x="183" y="149" type="line"/>
      <point x="228" y="3"/>
      <point x="335" y="-11"/>
      <point x="401" y="-11" type="curve" smooth="yes"/>
      <point x="473" y="-11"/>
      <point x="531" y="17"/>
      <point x="595" y="101" type="curve"/>
      <point x="600" y="99" type="line"/>
      <point x="598" y="3" type="line"/>
      <point x="613" y="-16" type="line"/>
      <point x="791" y="24" type="line"/>
      <point x="791" y="69" type="line"/>
    </contour>
  </outline>
</glyph>
<glyph name="pi" format="2">
  <advance width="980"/>
  <unicode hex="03C0"/>
  <outline>
    <contour>
      <point x="767" y="-17" type="curve" smooth="yes"/>
      <point x="852" y="-17"/>
      <point x="895" y="28"/>
      <point x="932" y="91" type="curve"/>
      <point x="906" y="112" type="line"/>
      <point x="860" y="60"/>
      <point x="829" y="48"/>
      <point x="786" y="48" type="curve" smooth="yes"/>
      <point x="728" y="48"/>
      <point x="682" y="78"/>
      <point x="685" y="187" type="curve" smooth="yes"/>
      <point x="701" y="659" type="line"/>
      <point x="619" y="658" type="line"/>
      <point x="600" y="174" type="line" smooth="yes"/>
      <point x="595" y="41"/>
      <point x="666" y="-17"/>
    </contour>
    <contour>
      <point x="160" y="-16" type="curve" smooth="yes"/>
      <point x="277" y="-16"/>
      <point x="341" y="104"/>
      <point x="356" y="271" type="curve" smooth="yes"/>
      <point x="391" y="666" type="line"/>
      <point x="306" y="666" type="line"/>
      <point x="269" y="216" type="line" smooth="yes"/>
      <point x="261" y="125"/>
      <point x="227" y="28"/>
      <point x="155" y="30" type="curve"/>
      <point x="181" y="17" type="line"/>
      <point x="130" y="81" type="line" smooth="yes"/>
      <point x="110" y="105"/>
      <point x="102" y="113"/>
      <point x="77" y="113" type="curve" smooth="yes"/>
      <point x="59" y="113"/>
      <point x="36" y="97"/>
      <point x="36" y="73" type="curve" smooth="yes"/>
      <point x="36" y="22"/>
      <point x="85" y="-16"/>
    </contour>
    <contour>
      <point x="118" y="572" type="line"/>
      <point x="170" y="606"/>
      <point x="226" y="621"/>
      <point x="311" y="621" type="curve" smooth="yes"/>
      <point x="725" y="621" type="line" smooth="yes"/>
      <point x="824" y="621"/>
      <point x="839" y="622"/>
      <point x="861" y="621" type="curve"/>
      <point x="885" y="800" type="line"/>
      <point x="823" y="800" type="line"/>
      <point x="786" y="688" type="line"/>
      <point x="765" y="683"/>
      <point x="735" y="682"/>
      <point x="690" y="682" type="curve" smooth="yes"/>
      <point x="373" y="682" type="line" smooth="yes"/>
      <point x="240" y="682"/>
      <point x="141" y="664"/>
      <point x="96" y="637" type="curve"/>
    </contour>
  </outline>
</glyph>
